  0
SECTION
  2
HEADER
  9
$ACADVER
  1
AC1009
  9
$EXTMIN
 10
0.0
 20
0.0
 30
0.0
  9
$EXTMAX
 10
1000.0
 20
1000.0
 30
0.0
  9
$FILLMODE
 70
 0
  9
$SPLFRAME
 70
 1
  0
ENDSEC
  0
SECTION
  2
TABLES
  0
TABLE
  2
LAYER
 70
1
  0
LAYER
  2
0
 70
     0
 62
     7
  6
CONTINUOUS
  0
ENDTAB
  0
ENDSEC
  0
SECTION
  2
ENTITIES
  0
POLYLINE
  8
0
 62
     0
 66
     1
 10
0
 20
0
 30
0.0
 70
     1
 40
4.5
 41
4.5
  0
VERTEX
  8
0
 10
0.109483
 20
1.94808
 30
0.0
 40
0.0625
 41
0.0625
  0
VERTEX
  8
0
 10
0.129069
 20
1.80593
 30
0.0
 40
0.0625
 41
0.0625
  0
VERTEX
  8
0
 10
0.175076
 20
1.67367
 30
0.0
 40
0.0625
 41
0.0625
  0
VERTEX
  8
0
 10
0.244358
 20
1.5541
 30
0.0
 40
0.0625
 41
0.0625
  0
VERTEX
  8
0
 10
0.333931
 20
1.45008
 30
0.0
 40
0.0625
 41
0.0625
  0
VERTEX
  8
0
 10
0.440647
 20
1.36431
 30
0.0
 40
0.0625
 41
0.0625
  0
VERTEX
  8
0
 10
0.561415
 20
1.29959
 30
0.0
 40
0.0625
 41
0.0625
  0
VERTEX
  8
0
 10
0.693306
 20
1.25873
 30
0.0
 40
0.0625
 41
0.0625
  0
VERTEX
  8
0
 10
0.833117
 20
1.24452
 30
0.0
 40
0.0625
 41
0.0625
  0
VERTEX
  8
0
 10
0.955621
 20
1.25559
 30
0.0
 40
0.0625
 41
0.0625
  0
VERTEX
  8
0
 10
1.07281
 20
1.28743
 30
0.0
 40
0.0625
 41
0.0625
  0
VERTEX
  8
0
 10
1.18256
 20
1.33832
 30
0.0
 40
0.0625
 41
0.0625
  0
VERTEX
  8
0
 10
1.28261
 20
1.40647
 30
0.0
 40
0.0625
 41
0.0625
  0
VERTEX
  8
0
 10
1.37071
 20
1.49018
 30
0.0
 40
0.0625
 41
0.0625
  0
VERTEX
  8
0
 10
1.44476
 20
1.58767
 30
0.0
 40
0.0625
 41
0.0625
  0
VERTEX
  8
0
 10
1.5025
 20
1.6971
 30
0.0
 40
0.0625
 41
0.0625
  0
VERTEX
  8
0
 10
1.54172
 20
1.81674
 30
0.0
 40
0.0625
 41
0.0625
  0
VERTEX
  8
0
 10
2.34397
 20
1.82292
 30
0.0
 40
0.0625
 41
0.0625
  0
VERTEX
  8
0
 10
3.16265
 20
1.82194
 30
0.0
 40
0.0625
 41
0.0625
  0
VERTEX
  8
0
 10
3.26475
 20
1.82324
 30
0.0
 40
0.0625
 41
0.0625
  0
VERTEX
  8
0
 10
3.36019
 20
1.82031
 30
0.0
 40
0.0625
 41
0.0625
  0
VERTEX
  8
0
 10
3.44482
 20
1.80317
 30
0.0
 40
0.0625
 41
0.0625
  0
VERTEX
  8
0
 10
3.51449
 20
1.76161
 30
0.0
 40
0.0625
 41
0.0625
  0
VERTEX
  8
0
 10
3.59885
 20
1.64974
 30
0.0
 40
0.0625
 41
0.0625
  0
VERTEX
  8
0
 10
3.68181
 20
1.51199
 30
0.0
 40
0.0625
 41
0.0625
  0
VERTEX
  8
0
 10
3.84478
 20
1.25781
 30
0.0
 40
0.0625
 41
0.0625
  0
VERTEX
  8
0
 10
4.01253
 20
0.990289
 30
0.0
 40
0.0625
 41
0.0625
  0
VERTEX
  8
0
 10
4.17296
 20
0.748643
 30
0.0
 40
0.0625
 41
0.0625
  0
VERTEX
  8
0
 10
4.26568
 20
0.647786
 30
0.0
 40
0.0625
 41
0.0625
  0
VERTEX
  8
0
 10
4.36919
 20
0.579318
 30
0.0
 40
0.0625
 41
0.0625
  0
VERTEX
  8
0
 10
4.48047
 20
0.538683
 30
0.0
 40
0.0625
 41
0.0625
  0
VERTEX
  8
0
 10
4.59657
 20
0.521267
 30
0.0
 40
0.0625
 41
0.0625
  0
VERTEX
  8
0
 10
4.82194
 20
0.515679
 30
0.0
 40
0.0625
 41
0.0625
  0
VERTEX
  8
0
 10
5.0561
 20
0.519749
 30
0.0
 40
0.0625
 41
0.0625
  0
VERTEX
  8
0
 10
5.29389
 20
0.523981
 30
0.0
 40
0.0625
 41
0.0625
  0
VERTEX
  8
0
 10
5.53011
 20
0.518989
 30
0.0
 40
0.0625
 41
0.0625
  0
VERTEX
  8
0
 10
5.53413
 20
0.237631
 30
0.0
 40
0.0625
 41
0.0625
  0
VERTEX
  8
0
 10
6.39692
 20
0.239258
 30
0.0
 40
0.0625
 41
0.0625
  0
VERTEX
  8
0
 10
6.39626
 20
1.09587
 30
0.0
 40
0.0625
 41
0.0625
  0
VERTEX
  8
0
 10
5.96707
 20
1.1027
 30
0.0
 40
0.0625
 41
0.0625
  0
VERTEX
  8
0
 10
5.53575
 20
1.1008
 30
0.0
 40
0.0625
 41
0.0625
  0
VERTEX
  8
0
 10
5.5319
 20
0.958225
 30
0.0
 40
0.0625
 41
0.0625
  0
VERTEX
  8
0
 10
5.53011
 20
0.815104
 30
0.0
 40
0.0625
 41
0.0625
  0
VERTEX
  8
0
 10
5.29872
 20
0.812717
 30
0.0
 40
0.0625
 41
0.0625
  0
VERTEX
  8
0
 10
5.05425
 20
0.813043
 30
0.0
 40
0.0625
 41
0.0625
  0
VERTEX
  8
0
 10
4.81087
 20
0.808322
 30
0.0
 40
0.0625
 41
0.0625
  0
VERTEX
  8
0
 10
4.58296
 20
0.813043
 30
0.0
 40
0.0625
 41
0.0625
  0
VERTEX
  8
0
 10
4.51699
 20
0.828831
 30
0.0
 40
0.0625
 41
0.0625
  0
VERTEX
  8
0
 10
4.45171
 20
0.867622
 30
0.0
 40
0.0625
 41
0.0625
  0
VERTEX
  8
0
 10
4.36583
 20
0.975803
 30
0.0
 40
0.0625
 41
0.0625
  0
VERTEX
  8
0
 10
4.2895
 20
1.10308
 30
0.0
 40
0.0625
 41
0.0625
  0
VERTEX
  8
0
 10
4.05442
 20
1.46588
 30
0.0
 40
0.0625
 41
0.0625
  0
VERTEX
  8
0
 10
3.83518
 20
1.81988
 30
0.0
 40
0.0625
 41
0.0625
  0
VERTEX
  8
0
 10
4.04611
 20
1.81928
 30
0.0
 40
0.0625
 41
0.0625
  0
VERTEX
  8
0
 10
4.23269
 20
1.82378
 30
0.0
 40
0.0625
 41
0.0625
  0
VERTEX
  8
0
 10
4.41411
 20
1.82688
 30
0.0
 40
0.0625
 41
0.0625
  0
VERTEX
  8
0
 10
4.6096
 20
1.82189
 30
0.0
 40
0.0625
 41
0.0625
  0
VERTEX
  8
0
 10
4.65375
 20
1.81782
 30
0.0
 40
0.0625
 41
0.0625
  0
VERTEX
  8
0
 10
4.68608
 20
1.81278
 30
0.0
 40
0.0625
 41
0.0625
  0
VERTEX
  8
0
 10
4.71332
 20
1.80892
 30
0.0
 40
0.0625
 41
0.0625
  0
VERTEX
  8
0
 10
4.7424
 20
1.80865
 30
0.0
 40
0.0625
 41
0.0625
  0
VERTEX
  8
0
 10
4.82113
 20
1.82801
 30
0.0
 40
0.0625
 41
0.0625
  0
VERTEX
  8
0
 10
4.89247
 20
1.87022
 30
0.0
 40
0.0625
 41
0.0625
  0
VERTEX
  8
0
 10
4.95822
 20
1.92904
 30
0.0
 40
0.0625
 41
0.0625
  0
VERTEX
  8
0
 10
5.02024
 20
1.99843
 30
0.0
 40
0.0625
 41
0.0625
  0
VERTEX
  8
0
 10
5.08035
 20
2.07221
 30
0.0
 40
0.0625
 41
0.0625
  0
VERTEX
  8
0
 10
5.14046
 20
2.14421
 30
0.0
 40
0.0625
 41
0.0625
  0
VERTEX
  8
0
 10
5.20242
 20
2.20833
 30
0.0
 40
0.0625
 41
0.0625
  0
VERTEX
  8
0
 10
5.26807
 20
2.25836
 30
0.0
 40
0.0625
 41
0.0625
  0
VERTEX
  8
0
 10
5.32824
 20
2.28331
 30
0.0
 40
0.0625
 41
0.0625
  0
VERTEX
  8
0
 10
5.38824
 20
2.28222
 30
0.0
 40
0.0625
 41
0.0625
  0
VERTEX
  8
0
 10
5.44715
 20
2.24929
 30
0.0
 40
0.0625
 41
0.0625
  0
VERTEX
  8
0
 10
5.50396
 20
2.17893
 30
0.0
 40
0.0625
 41
0.0625
  0
VERTEX
  8
0
 10
5.57292
 20
2.0345
 30
0.0
 40
0.0625
 41
0.0625
  0
VERTEX
  8
0
 10
5.63406
 20
1.86279
 30
0.0
 40
0.0625
 41
0.0625
  0
VERTEX
  8
0
 10
5.69347
 20
1.68685
 30
0.0
 40
0.0625
 41
0.0625
  0
VERTEX
  8
0
 10
5.75732
 20
1.52983
 30
0.0
 40
0.0625
 41
0.0625
  0
VERTEX
  8
0
 10
5.77767
 20
1.49154
 30
0.0
 40
0.0625
 41
0.0625
  0
VERTEX
  8
0
 10
5.79801
 20
1.46132
 30
0.0
 40
0.0625
 41
0.0625
  0
VERTEX
  8
0
 10
5.81901
 20
1.43951
 30
0.0
 40
0.0625
 41
0.0625
  0
VERTEX
  8
0
 10
5.84125
 20
1.42626
 30
0.0
 40
0.0625
 41
0.0625
  0
VERTEX
  8
0
 10
5.86529
 20
1.42199
 30
0.0
 40
0.0625
 41
0.0625
  0
VERTEX
  8
0
 10
5.89187
 20
1.42681
 30
0.0
 40
0.0625
 41
0.0625
  0
VERTEX
  8
0
 10
5.9215
 20
1.44108
 30
0.0
 40
0.0625
 41
0.0625
  0
VERTEX
  8
0
 10
5.95486
 20
1.465
 30
0.0
 40
0.0625
 41
0.0625
  0
VERTEX
  8
0
 10
6.00157
 20
1.51107
 30
0.0
 40
0.0625
 41
0.0625
  0
VERTEX
  8
0
 10
6.04536
 20
1.5664
 30
0.0
 40
0.0625
 41
0.0625
  0
VERTEX
  8
0
 10
6.08757
 20
1.62631
 30
0.0
 40
0.0625
 41
0.0625
  0
VERTEX
  8
0
 10
6.12983
 20
1.68614
 30
0.0
 40
0.0625
 41
0.0625
  0
VERTEX
  8
0
 10
6.17356
 20
1.74126
 30
0.0
 40
0.0625
 41
0.0625
  0
VERTEX
  8
0
 10
6.22032
 20
1.78706
 30
0.0
 40
0.0625
 41
0.0625
  0
VERTEX
  8
0
 10
6.2716
 20
1.81879
 30
0.0
 40
0.0625
 41
0.0625
  0
VERTEX
  8
0
 10
6.32894
 20
1.83188
 30
0.0
 40
0.0625
 41
0.0625
  0
VERTEX
  8
0
 10
6.36187
 20
1.82801
 30
0.0
 40
0.0625
 41
0.0625
  0
VERTEX
  8
0
 10
6.39529
 20
1.8221
 30
0.0
 40
0.0625
 41
0.0625
  0
VERTEX
  8
0
 10
6.55621
 20
1.81674
 30
0.0
 40
0.0625
 41
0.0625
  0
VERTEX
  8
0
 10
6.71496
 20
1.8209
 30
0.0
 40
0.0625
 41
0.0625
  0
VERTEX
  8
0
 10
6.8769
 20
1.82471
 30
0.0
 40
0.0625
 41
0.0625
  0
VERTEX
  8
0
 10
7.04736
 20
1.81819
 30
0.0
 40
0.0625
 41
0.0625
  0
VERTEX
  8
0
 10
7.0485
 20
1.68115
 30
0.0
 40
0.0625
 41
0.0625
  0
VERTEX
  8
0
 10
7.05181
 20
1.54503
 30
0.0
 40
0.0625
 41
0.0625
  0
VERTEX
  8
0
 10
7.24283
 20
1.64535
 30
0.0
 40
0.0625
 41
0.0625
  0
VERTEX
  8
0
 10
7.43033
 20
1.75401
 30
0.0
 40
0.0625
 41
0.0625
  0
VERTEX
  8
0
 10
7.79362
 20
1.96843
 30
0.0
 40
0.0625
 41
0.0625
  0
VERTEX
  8
0
 10
7.42367
 20
2.18782
 30
0.0
 40
0.0625
 41
0.0625
  0
VERTEX
  8
0
 10
7.05007
 20
2.39556
 30
0.0
 40
0.0625
 41
0.0625
  0
VERTEX
  8
0
 10
7.04775
 20
2.11757
 30
0.0
 40
0.0625
 41
0.0625
  0
VERTEX
  8
0
 10
6.72114
 20
2.11219
 30
0.0
 40
0.0625
 41
0.0625
  0
VERTEX
  8
0
 10
6.38162
 20
2.11382
 30
0.0
 40
0.0625
 41
0.0625
  0
VERTEX
  8
0
 10
6.33703
 20
2.11649
 30
0.0
 40
0.0625
 41
0.0625
  0
VERTEX
  8
0
 10
6.29856
 20
2.116
 30
0.0
 40
0.0625
 41
0.0625
  0
VERTEX
  8
0
 10
6.26232
 20
2.10747
 30
0.0
 40
0.0625
 41
0.0625
  0
VERTEX
  8
0
 10
6.22433
 20
2.08594
 30
0.0
 40
0.0625
 41
0.0625
  0
VERTEX
  8
0
 10
6.15506
 20
2.01531
 30
0.0
 40
0.0625
 41
0.0625
  0
VERTEX
  8
0
 10
6.08767
 20
1.92219
 30
0.0
 40
0.0625
 41
0.0625
  0
VERTEX
  8
0
 10
6.02051
 20
1.82801
 30
0.0
 40
0.0625
 41
0.0625
  0
VERTEX
  8
0
 10
5.95182
 20
1.75401
 30
0.0
 40
0.0625
 41
0.0625
  0
VERTEX
  8
0
 10
5.89404
 20
1.7181
 30
0.0
 40
0.0625
 41
0.0625
  0
VERTEX
  8
0
 10
5.84619
 20
1.71517
 30
0.0
 40
0.0625
 41
0.0625
  0
VERTEX
  8
0
 10
5.80382
 20
1.74653
 30
0.0
 40
0.0625
 41
0.0625
  0
VERTEX
  8
0
 10
5.76247
 20
1.81332
 30
0.0
 40
0.0625
 41
0.0625
  0
VERTEX
  8
0
 10
5.70742
 20
1.94417
 30
0.0
 40
0.0625
 41
0.0625
  0
VERTEX
  8
0
 10
5.65506
 20
2.09461
 30
0.0
 40
0.0625
 41
0.0625
  0
VERTEX
  8
0
 10
5.59924
 20
2.25293
 30
0.0
 40
0.0625
 41
0.0625
  0
VERTEX
  8
0
 10
5.53358
 20
2.40744
 30
0.0
 40
0.0625
 41
0.0625
  0
VERTEX
  8
0
 10
5.48697
 20
2.49067
 30
0.0
 40
0.0625
 41
0.0625
  0
VERTEX
  8
0
 10
5.42958
 20
2.55399
 30
0.0
 40
0.0625
 41
0.0625
  0
VERTEX
  8
0
 10
5.35747
 20
2.57889
 30
0.0
 40
0.0625
 41
0.0625
  0
VERTEX
  8
0
 10
5.26665
 20
2.54676
 30
0.0
 40
0.0625
 41
0.0625
  0
VERTEX
  8
0
 10
5.204
 20
2.49636
 30
0.0
 40
0.0625
 41
0.0625
  0
VERTEX
  8
0
 10
5.14318
 20
2.433
 30
0.0
 40
0.0625
 41
0.0625
  0
VERTEX
  8
0
 10
5.08306
 20
2.36231
 30
0.0
 40
0.0625
 41
0.0625
  0
VERTEX
  8
0
 10
5.02263
 20
2.29015
 30
0.0
 40
0.0625
 41
0.0625
  0
VERTEX
  8
0
 10
4.96072
 20
2.22222
 30
0.0
 40
0.0625
 41
0.0625
  0
VERTEX
  8
0
 10
4.89621
 20
2.16422
 30
0.0
 40
0.0625
 41
0.0625
  0
VERTEX
  8
0
 10
4.82807
 20
2.1219
 30
0.0
 40
0.0625
 41
0.0625
  0
VERTEX
  8
0
 10
4.75521
 20
2.10097
 30
0.0
 40
0.0625
 41
0.0625
  0
VERTEX
  8
0
 10
4.67225
 20
2.104
 30
0.0
 40
0.0625
 41
0.0625
  0
VERTEX
  8
0
 10
4.58931
 20
2.11372
 30
0.0
 40
0.0625
 41
0.0625
  0
VERTEX
  8
0
 10
4.34407
 20
2.11697
 30
0.0
 40
0.0625
 41
0.0625
  0
VERTEX
  8
0
 10
4.09179
 20
2.11388
 30
0.0
 40
0.0625
 41
0.0625
  0
VERTEX
  8
0
 10
3.34765
 20
2.11356
 30
0.0
 40
0.0625
 41
0.0625
  0
VERTEX
  8
0
 10
2.60038
 20
2.11594
 30
0.0
 40
0.0625
 41
0.0625
  0
VERTEX
  8
0
 10
2.82249
 20
2.46789
 30
0.0
 40
0.0625
 41
0.0625
  0
VERTEX
  8
0
 10
3.0549
 20
2.83072
 30
0.0
 40
0.0625
 41
0.0625
  0
VERTEX
  8
0
 10
3.11496
 20
2.92719
 30
0.0
 40
0.0625
 41
0.0625
  0
VERTEX
  8
0
 10
3.17567
 20
3.01525
 30
0.0
 40
0.0625
 41
0.0625
  0
VERTEX
  8
0
 10
3.24349
 20
3.0835
 30
0.0
 40
0.0625
 41
0.0625
  0
VERTEX
  8
0
 10
3.32514
 20
3.12044
 30
0.0
 40
0.0625
 41
0.0625
  0
VERTEX
  8
0
 10
3.46653
 20
3.12799
 30
0.0
 40
0.0625
 41
0.0625
  0
VERTEX
  8
0
 10
3.61393
 20
3.12283
 30
0.0
 40
0.0625
 41
0.0625
  0
VERTEX
  8
0
 10
4.47467
 20
3.12067
 30
0.0
 40
0.0625
 41
0.0625
  0
VERTEX
  8
0
 10
4.51074
 20
3.04606
 30
0.0
 40
0.0625
 41
0.0625
  0
VERTEX
  8
0
 10
4.55963
 20
2.98113
 30
0.0
 40
0.0625
 41
0.0625
  0
VERTEX
  8
0
 10
4.61925
 20
2.92692
 30
0.0
 40
0.0625
 41
0.0625
  0
VERTEX
  8
0
 10
4.68744
 20
2.8845
 30
0.0
 40
0.0625
 41
0.0625
  0
VERTEX
  8
0
 10
4.7621
 20
2.85503
 30
0.0
 40
0.0625
 41
0.0625
  0
VERTEX
  8
0
 10
4.84119
 20
2.83946
 30
0.0
 40
0.0625
 41
0.0625
  0
VERTEX
  8
0
 10
4.92253
 20
2.83892
 30
0.0
 40
0.0625
 41
0.0625
  0
VERTEX
  8
0
 10
5.00407
 20
2.85439
 30
0.0
 40
0.0625
 41
0.0625
  0
VERTEX
  8
0
 10
5.09065
 20
2.89128
 30
0.0
 40
0.0625
 41
0.0625
  0
VERTEX
  8
0
 10
5.16624
 20
2.94581
 30
0.0
 40
0.0625
 41
0.0625
  0
VERTEX
  8
0
 10
5.22868
 20
3.01503
 30
0.0
 40
0.0625
 41
0.0625
  0
VERTEX
  8
0
 10
5.27567
 20
3.09576
 30
0.0
 40
0.0625
 41
0.0625
  0
VERTEX
  8
0
 10
5.30501
 20
3.185
 30
0.0
 40
0.0625
 41
0.0625
  0
VERTEX
  8
0
 10
5.3144
 20
3.27962
 30
0.0
 40
0.0625
 41
0.0625
  0
VERTEX
  8
0
 10
5.30171
 20
3.37646
 30
0.0
 40
0.0625
 41
0.0625
  0
VERTEX
  8
0
 10
5.26465
 20
3.47254
 30
0.0
 40
0.0625
 41
0.0625
  0
VERTEX
  8
0
 10
5.19206
 20
3.5714
 30
0.0
 40
0.0625
 41
0.0625
  0
VERTEX
  8
0
 10
5.09722
 20
3.64344
 30
0.0
 40
0.0625
 41
0.0625
  0
VERTEX
  8
0
 10
4.98742
 20
3.6869
 30
0.0
 40
0.0625
 41
0.0625
  0
VERTEX
  8
0
 10
4.8699
 20
3.70008
 30
0.0
 40
0.0625
 41
0.0625
  0
VERTEX
  8
0
 10
4.75196
 20
3.68137
 30
0.0
 40
0.0625
 41
0.0625
  0
VERTEX
  8
0
 10
4.6409
 20
3.62901
 30
0.0
 40
0.0625
 41
0.0625
  0
VERTEX
  8
0
 10
4.544
 20
3.54124
 30
0.0
 40
0.0625
 41
0.0625
  0
VERTEX
  8
0
 10
4.46864
 20
3.41639
 30
0.0
 40
0.0625
 41
0.0625
  0
VERTEX
  8
0
 10
3.90597
 20
3.41482
 30
0.0
 40
0.0625
 41
0.0625
  0
VERTEX
  8
0
 10
3.62207
 20
3.41922
 30
0.0
 40
0.0625
 41
0.0625
  0
VERTEX
  8
0
 10
3.34179
 20
3.41482
 30
0.0
 40
0.0625
 41
0.0625
  0
VERTEX
  8
0
 10
3.23529
 20
3.39632
 30
0.0
 40
0.0625
 41
0.0625
  0
VERTEX
  8
0
 10
3.12819
 20
3.35319
 30
0.0
 40
0.0625
 41
0.0625
  0
VERTEX
  8
0
 10
3.02713
 20
3.28407
 30
0.0
 40
0.0625
 41
0.0625
  0
VERTEX
  8
0
 10
2.93853
 20
3.18761
 30
0.0
 40
0.0625
 41
0.0625
  0
VERTEX
  8
0
 10
2.78831
 20
2.95828
 30
0.0
 40
0.0625
 41
0.0625
  0
VERTEX
  8
0
 10
2.63112
 20
2.70464
 30
0.0
 40
0.0625
 41
0.0625
  0
VERTEX
  8
0
 10
2.46718
 20
2.44081
 30
0.0
 40
0.0625
 41
0.0625
  0
VERTEX
  8
0
 10
2.31819
 20
2.2155
 30
0.0
 40
0.0625
 41
0.0625
  0
VERTEX
  8
0
 10
2.28315
 20
2.17622
 30
0.0
 40
0.0625
 41
0.0625
  0
VERTEX
  8
0
 10
2.24382
 20
2.14654
 30
0.0
 40
0.0625
 41
0.0625
  0
VERTEX
  8
0
 10
2.20031
 20
2.12614
 30
0.0
 40
0.0625
 41
0.0625
  0
VERTEX
  8
0
 10
2.15272
 20
2.11464
 30
0.0
 40
0.0625
 41
0.0625
  0
VERTEX
  8
0
 10
1.99772
 20
2.10894
 30
0.0
 40
0.0625
 41
0.0625
  0
VERTEX
  8
0
 10
1.84179
 20
2.11393
 30
0.0
 40
0.0625
 41
0.0625
  0
VERTEX
  8
0
 10
1.68832
 20
2.11301
 30
0.0
 40
0.0625
 41
0.0625
  0
VERTEX
  8
0
 10
1.54167
 20
2.11914
 30
0.0
 40
0.0625
 41
0.0625
  0
VERTEX
  8
0
 10
1.49636
 20
2.25076
 30
0.0
 40
0.0625
 41
0.0625
  0
VERTEX
  8
0
 10
1.43506
 20
2.37099
 30
0.0
 40
0.0625
 41
0.0625
  0
VERTEX
  8
0
 10
1.33751
 20
2.48801
 30
0.0
 40
0.0625
 41
0.0625
  0
VERTEX
  8
0
 10
1.22304
 20
2.57813
 30
0.0
 40
0.0625
 41
0.0625
  0
VERTEX
  8
0
 10
1.09598
 20
2.6416
 30
0.0
 40
0.0625
 41
0.0625
  0
VERTEX
  8
0
 10
0.960883
 20
2.67871
 30
0.0
 40
0.0625
 41
0.0625
  0
VERTEX
  8
0
 10
0.822211
 20
2.68983
 30
0.0
 40
0.0625
 41
0.0625
  0
VERTEX
  8
0
 10
0.684517
 20
2.67524
 30
0.0
 40
0.0625
 41
0.0625
  0
VERTEX
  8
0
 10
0.552246
 20
2.63525
 30
0.0
 40
0.0625
 41
0.0625
  0
VERTEX
  8
0
 10
0.429904
 20
2.5701
 30
0.0
 40
0.0625
 41
0.0625
  0
VERTEX
  8
0
 10
0.296713
 20
2.45133
 30
0.0
 40
0.0625
 41
0.0625
  0
VERTEX
  8
0
 10
0.193739
 20
2.29915
 30
0.0
 40
0.0625
 41
0.0625
  0
VERTEX
  8
0
 10
0.128743
 20
2.12696
 30
0.0
 40
0.0625
 41
0.0625
  0
VERTEX
  8
0
 10
0.109483
 20
1.94808
 30
0.0
 40
0.0625
 41
0.0625
  0
SEQEND
 8
0
  0
ENDSEC
  0
EOF
