  0
SECTION
  2
HEADER
  9
$ACADVER
  1
AC1009
  9
$EXTMIN
 10
0.0
 20
0.0
 30
0.0
  9
$EXTMAX
 10
1000.0
 20
1000.0
 30
0.0
  9
$FILLMODE
 70
 0
  9
$SPLFRAME
 70
 1
  0
ENDSEC
  0
SECTION
  2
TABLES
  0
TABLE
  2
LAYER
 70
1
  0
LAYER
  2
0
 70
     0
 62
     7
  6
CONTINUOUS
  0
ENDTAB
  0
ENDSEC
  0
SECTION
  2
ENTITIES
  0
POLYLINE
  8
0
 62
     0
 66
     1
 10
0
 20
0
 30
0.0
 70
     1
 40
0
 41
0
  0
VERTEX
  8
0
 10
0
 20
-0
 30
0.0
 40
0
 41
0
  0
VERTEX
  8
0
 10
3.125
 20
-0
 30
0.0
 40
0
 41
0
  0
VERTEX
  8
0
 10
3.125
 20
3.125
 30
0.0
 40
0
 41
0
  0
VERTEX
  8
0
 10
0
 20
3.125
 30
0.0
 40
0
 41
0
  0
VERTEX
  8
0
 10
0
 20
-0
 30
0.0
 40
0
 41
0
  0
SEQEND
 8
0
  0
POLYLINE
  8
0
 62
     7
 66
     1
 10
0
 20
0
 30
0.0
 70
     1
 40
0
 41
0
  0
VERTEX
  8
0
 10
0.4375
 20
2.93815
 30
0.0
 40
0
 41
0
  0
VERTEX
  8
0
 10
0.335286
 20
2.92383
 30
0.0
 40
0
 41
0
  0
VERTEX
  8
0
 10
0.576172
 20
2.70964
 30
0.0
 40
0
 41
0
  0
VERTEX
  8
0
 10
0.306315
 20
2.41015
 30
0.0
 40
0
 41
0
  0
VERTEX
  8
0
 10
0.0602214
 20
2.62825
 30
0.0
 40
0
 41
0
  0
VERTEX
  8
0
 10
0.0527344
 20
2.55339
 30
0.0
 40
0
 41
0
  0
VERTEX
  8
0
 10
0.0605469
 20
2.47592
 30
0.0
 40
0
 41
0
  0
VERTEX
  8
0
 10
0.0829536
 20
2.40369
 30
0.0
 40
0
 41
0
  0
VERTEX
  8
0
 10
0.118435
 20
2.33838
 30
0.0
 40
0
 41
0
  0
VERTEX
  8
0
 10
0.165474
 20
2.28142
 30
0.0
 40
0
 41
0
  0
VERTEX
  8
0
 10
0.222439
 20
2.23438
 30
0.0
 40
0
 41
0
  0
VERTEX
  8
0
 10
0.287761
 20
2.19889
 30
0.0
 40
0
 41
0
  0
VERTEX
  8
0
 10
0.359972
 20
2.17649
 30
0.0
 40
0
 41
0
  0
VERTEX
  8
0
 10
0.4375
 20
2.16863
 30
0.0
 40
0
 41
0
  0
VERTEX
  8
0
 10
0.553711
 20
2.18685
 30
0.0
 40
0
 41
0
  0
VERTEX
  8
0
 10
0.864908
 20
1.91146
 30
0.0
 40
0
 41
0
  0
VERTEX
  8
0
 10
0.973633
 20
2.08897
 30
0.0
 40
0
 41
0
  0
VERTEX
  8
0
 10
1.11816
 20
2.23113
 30
0.0
 40
0
 41
0
  0
VERTEX
  8
0
 10
0.818033
 20
2.49675
 30
0.0
 40
0
 41
0
  0
VERTEX
  8
0
 10
0.822265
 20
2.55339
 30
0.0
 40
0
 41
0
  0
VERTEX
  8
0
 10
0.822265
 20
2.55599
 30
0.0
 40
0
 41
0
  0
VERTEX
  8
0
 10
0.813911
 20
2.63308
 30
0.0
 40
0
 41
0
  0
VERTEX
  8
0
 10
0.791124
 20
2.70486
 30
0.0
 40
0
 41
0
  0
VERTEX
  8
0
 10
0.755479
 20
2.76975
 30
0.0
 40
0
 41
0
  0
VERTEX
  8
0
 10
0.708442
 20
2.82633
 30
0.0
 40
0
 41
0
  0
VERTEX
  8
0
 10
0.651639
 20
2.87294
 30
0.0
 40
0
 41
0
  0
VERTEX
  8
0
 10
0.586481
 20
2.90815
 30
0.0
 40
0
 41
0
  0
VERTEX
  8
0
 10
0.514594
 20
2.93044
 30
0.0
 40
0
 41
0
  0
VERTEX
  8
0
 10
0.4375
 20
2.93815
 30
0.0
 40
0
 41
0
  0
SEQEND
 8
0
  0
POLYLINE
  8
0
 62
     7
 66
     1
 10
0
 20
0
 30
0.0
 70
     1
 40
0
 41
0
  0
VERTEX
  8
0
 10
2.28646
 20
1.19727
 30
0.0
 40
0
 41
0
  0
VERTEX
  8
0
 10
2.19086
 20
1.01074
 30
0.0
 40
0
 41
0
  0
VERTEX
  8
0
 10
2.05761
 20
0.856771
 30
0.0
 40
0
 41
0
  0
VERTEX
  8
0
 10
2.30826
 20
0.634765
 30
0.0
 40
0
 41
0
  0
VERTEX
  8
0
 10
2.30274
 20
0.571614
 30
0.0
 40
0
 41
0
  0
VERTEX
  8
0
 10
2.31054
 20
0.49414
 30
0.0
 40
0
 41
0
  0
VERTEX
  8
0
 10
2.33296
 20
0.421929
 30
0.0
 40
0
 41
0
  0
VERTEX
  8
0
 10
2.36843
 20
0.356608
 30
0.0
 40
0
 41
0
  0
VERTEX
  8
0
 10
2.41547
 20
0.299642
 30
0.0
 40
0
 41
0
  0
VERTEX
  8
0
 10
2.47244
 20
0.252604
 30
0.0
 40
0
 41
0
  0
VERTEX
  8
0
 10
2.53776
 20
0.217122
 30
0.0
 40
0
 41
0
  0
VERTEX
  8
0
 10
2.60997
 20
0.194715
 30
0.0
 40
0
 41
0
  0
VERTEX
  8
0
 10
2.6875
 20
0.186849
 30
0.0
 40
0
 41
0
  0
VERTEX
  8
0
 10
2.79785
 20
0.203125
 30
0.0
 40
0
 41
0
  0
VERTEX
  8
0
 10
2.54719
 20
0.425781
 30
0.0
 40
0
 41
0
  0
VERTEX
  8
0
 10
2.8164
 20
0.723307
 30
0.0
 40
0
 41
0
  0
VERTEX
  8
0
 10
3.06575
 20
0.501953
 30
0.0
 40
0
 41
0
  0
VERTEX
  8
0
 10
3.07226
 20
0.571614
 30
0.0
 40
0
 41
0
  0
VERTEX
  8
0
 10
3.07226
 20
0.574869
 30
0.0
 40
0
 41
0
  0
VERTEX
  8
0
 10
3.06392
 20
0.651964
 30
0.0
 40
0
 41
0
  0
VERTEX
  8
0
 10
3.04113
 20
0.723633
 30
0.0
 40
0
 41
0
  0
VERTEX
  8
0
 10
3.00549
 20
0.788465
 30
0.0
 40
0
 41
0
  0
VERTEX
  8
0
 10
2.95844
 20
0.844889
 30
0.0
 40
0
 41
0
  0
VERTEX
  8
0
 10
2.90164
 20
0.891385
 30
0.0
 40
0
 41
0
  0
VERTEX
  8
0
 10
2.83649
 20
0.926486
 30
0.0
 40
0
 41
0
  0
VERTEX
  8
0
 10
2.7646
 20
0.948676
 30
0.0
 40
0
 41
0
  0
VERTEX
  8
0
 10
2.6875
 20
0.956381
 30
0.0
 40
0
 41
0
  0
VERTEX
  8
0
 10
2.57682
 20
0.940104
 30
0.0
 40
0
 41
0
  0
VERTEX
  8
0
 10
2.28646
 20
1.19727
 30
0.0
 40
0
 41
0
  0
SEQEND
 8
0
  0
POLYLINE
  8
0
 62
     7
 66
     1
 10
0
 20
0
 30
0.0
 70
     1
 40
0
 41
0
  0
VERTEX
  8
0
 10
2.6875
 20
2.93815
 30
0.0
 40
0
 41
0
  0
VERTEX
  8
0
 10
2.61035
 20
2.93044
 30
0.0
 40
0
 41
0
  0
VERTEX
  8
0
 10
2.53847
 20
2.90815
 30
0.0
 40
0
 41
0
  0
VERTEX
  8
0
 10
2.47331
 20
2.87294
 30
0.0
 40
0
 41
0
  0
VERTEX
  8
0
 10
2.4165
 20
2.82633
 30
0.0
 40
0
 41
0
  0
VERTEX
  8
0
 10
2.36947
 20
2.76975
 30
0.0
 40
0
 41
0
  0
VERTEX
  8
0
 10
2.33382
 20
2.70486
 30
0.0
 40
0
 41
0
  0
VERTEX
  8
0
 10
2.31104
 20
2.63308
 30
0.0
 40
0
 41
0
  0
VERTEX
  8
0
 10
2.30274
 20
2.55599
 30
0.0
 40
0
 41
0
  0
VERTEX
  8
0
 10
2.30274
 20
2.55339
 30
0.0
 40
0
 41
0
  0
VERTEX
  8
0
 10
2.30697
 20
2.49675
 30
0.0
 40
0
 41
0
  0
VERTEX
  8
0
 10
2.00683
 20
2.23113
 30
0.0
 40
0
 41
0
  0
VERTEX
  8
0
 10
2.15132
 20
2.08897
 30
0.0
 40
0
 41
0
  0
VERTEX
  8
0
 10
2.2601
 20
1.91146
 30
0.0
 40
0
 41
0
  0
VERTEX
  8
0
 10
2.57129
 20
2.18685
 30
0.0
 40
0
 41
0
  0
VERTEX
  8
0
 10
2.6875
 20
2.16863
 30
0.0
 40
0
 41
0
  0
VERTEX
  8
0
 10
2.76497
 20
2.17649
 30
0.0
 40
0
 41
0
  0
VERTEX
  8
0
 10
2.83718
 20
2.19889
 30
0.0
 40
0
 41
0
  0
VERTEX
  8
0
 10
2.9025
 20
2.23438
 30
0.0
 40
0
 41
0
  0
VERTEX
  8
0
 10
2.95947
 20
2.28142
 30
0.0
 40
0
 41
0
  0
VERTEX
  8
0
 10
3.00651
 20
2.33838
 30
0.0
 40
0
 41
0
  0
VERTEX
  8
0
 10
3.04199
 20
2.40369
 30
0.0
 40
0
 41
0
  0
VERTEX
  8
0
 10
3.0644
 20
2.47592
 30
0.0
 40
0
 41
0
  0
VERTEX
  8
0
 10
3.07226
 20
2.55339
 30
0.0
 40
0
 41
0
  0
VERTEX
  8
0
 10
3.06478
 20
2.62825
 30
0.0
 40
0
 41
0
  0
VERTEX
  8
0
 10
2.81868
 20
2.41015
 30
0.0
 40
0
 41
0
  0
VERTEX
  8
0
 10
2.54883
 20
2.70964
 30
0.0
 40
0
 41
0
  0
VERTEX
  8
0
 10
2.78971
 20
2.92383
 30
0.0
 40
0
 41
0
  0
VERTEX
  8
0
 10
2.6875
 20
2.93815
 30
0.0
 40
0
 41
0
  0
SEQEND
 8
0
  0
POLYLINE
  8
0
 62
     7
 66
     1
 10
0
 20
0
 30
0.0
 70
     1
 40
0
 41
0
  0
VERTEX
  8
0
 10
0.838542
 20
1.19727
 30
0.0
 40
0
 41
0
  0
VERTEX
  8
0
 10
0.548178
 20
0.940104
 30
0.0
 40
0
 41
0
  0
VERTEX
  8
0
 10
0.4375
 20
0.956381
 30
0.0
 40
0
 41
0
  0
VERTEX
  8
0
 10
0.360351
 20
0.948676
 30
0.0
 40
0
 41
0
  0
VERTEX
  8
0
 10
0.288465
 20
0.926486
 30
0.0
 40
0
 41
0
  0
VERTEX
  8
0
 10
0.223307
 20
0.891385
 30
0.0
 40
0
 41
0
  0
VERTEX
  8
0
 10
0.166504
 20
0.844889
 30
0.0
 40
0
 41
0
  0
VERTEX
  8
0
 10
0.119466
 20
0.788465
 30
0.0
 40
0
 41
0
  0
VERTEX
  8
0
 10
0.0838217
 20
0.723633
 30
0.0
 40
0
 41
0
  0
VERTEX
  8
0
 10
0.0610351
 20
0.651964
 30
0.0
 40
0
 41
0
  0
VERTEX
  8
0
 10
0.0527344
 20
0.574869
 30
0.0
 40
0
 41
0
  0
VERTEX
  8
0
 10
0.0527344
 20
0.571614
 30
0.0
 40
0
 41
0
  0
VERTEX
  8
0
 10
0.0592447
 20
0.501953
 30
0.0
 40
0
 41
0
  0
VERTEX
  8
0
 10
0.308594
 20
0.723307
 30
0.0
 40
0
 41
0
  0
VERTEX
  8
0
 10
0.5778
 20
0.425781
 30
0.0
 40
0
 41
0
  0
VERTEX
  8
0
 10
0.327149
 20
0.203125
 30
0.0
 40
0
 41
0
  0
VERTEX
  8
0
 10
0.4375
 20
0.186849
 30
0.0
 40
0
 41
0
  0
VERTEX
  8
0
 10
0.514974
 20
0.194715
 30
0.0
 40
0
 41
0
  0
VERTEX
  8
0
 10
0.587185
 20
0.217122
 30
0.0
 40
0
 41
0
  0
VERTEX
  8
0
 10
0.652507
 20
0.252604
 30
0.0
 40
0
 41
0
  0
VERTEX
  8
0
 10
0.709472
 20
0.299642
 30
0.0
 40
0
 41
0
  0
VERTEX
  8
0
 10
0.756511
 20
0.356608
 30
0.0
 40
0
 41
0
  0
VERTEX
  8
0
 10
0.791992
 20
0.421929
 30
0.0
 40
0
 41
0
  0
VERTEX
  8
0
 10
0.814399
 20
0.49414
 30
0.0
 40
0
 41
0
  0
VERTEX
  8
0
 10
0.822265
 20
0.571614
 30
0.0
 40
0
 41
0
  0
VERTEX
  8
0
 10
0.816732
 20
0.634765
 30
0.0
 40
0
 41
0
  0
VERTEX
  8
0
 10
1.06738
 20
0.856771
 30
0.0
 40
0
 41
0
  0
VERTEX
  8
0
 10
0.934082
 20
1.01074
 30
0.0
 40
0
 41
0
  0
VERTEX
  8
0
 10
0.838542
 20
1.19727
 30
0.0
 40
0
 41
0
  0
SEQEND
 8
0
  0
POLYLINE
  8
0
 62
     7
 66
     1
 10
0
 20
0
 30
0.0
 70
     1
 40
0
 41
0
  0
VERTEX
  8
0
 10
1.5625
 20
2.31771
 30
0.0
 40
0
 41
0
  0
VERTEX
  8
0
 10
1.41764
 20
2.30154
 30
0.0
 40
0
 41
0
  0
VERTEX
  8
0
 10
1.28272
 20
2.25515
 30
0.0
 40
0
 41
0
  0
VERTEX
  8
0
 10
1.16064
 20
2.18169
 30
0.0
 40
0
 41
0
  0
VERTEX
  8
0
 10
1.05425
 20
2.08442
 30
0.0
 40
0
 41
0
  0
VERTEX
  8
0
 10
0.966471
 20
1.96658
 30
0.0
 40
0
 41
0
  0
VERTEX
  8
0
 10
0.900228
 20
1.83128
 30
0.0
 40
0
 41
0
  0
VERTEX
  8
0
 10
0.858344
 20
1.68175
 30
0.0
 40
0
 41
0
  0
VERTEX
  8
0
 10
0.84375
 20
1.52115
 30
0.0
 40
0
 41
0
  0
VERTEX
  8
0
 10
0.86594
 20
1.32416
 30
0.0
 40
0
 41
0
  0
VERTEX
  8
0
 10
0.928928
 20
1.14507
 30
0.0
 40
0
 41
0
  0
VERTEX
  8
0
 10
1.02707
 20
0.990126
 30
0.0
 40
0
 41
0
  0
VERTEX
  8
0
 10
1.15495
 20
0.865235
 30
0.0
 40
0
 41
0
  0
VERTEX
  8
0
 10
1.14052
 20
0.831272
 30
0.0
 40
0
 41
0
  0
VERTEX
  8
0
 10
1.13542
 20
0.793294
 30
0.0
 40
0
 41
0
  0
VERTEX
  8
0
 10
1.14616
 20
0.738769
 30
0.0
 40
0
 41
0
  0
VERTEX
  8
0
 10
1.17567
 20
0.694174
 30
0.0
 40
0
 41
0
  0
VERTEX
  8
0
 10
1.21946
 20
0.664063
 30
0.0
 40
0
 41
0
  0
VERTEX
  8
0
 10
1.27311
 20
0.652994
 30
0.0
 40
0
 41
0
  0
VERTEX
  8
0
 10
1.32671
 20
0.664063
 30
0.0
 40
0
 41
0
  0
VERTEX
  8
0
 10
1.3705
 20
0.694174
 30
0.0
 40
0
 41
0
  0
VERTEX
  8
0
 10
1.40001
 20
0.738769
 30
0.0
 40
0
 41
0
  0
VERTEX
  8
0
 10
1.41081
 20
0.793294
 30
0.0
 40
0
 41
0
  0
VERTEX
  8
0
 10
1.40983
 20
0.809571
 30
0.0
 40
0
 41
0
  0
VERTEX
  8
0
 10
1.42871
 20
0.809571
 30
0.0
 40
0
 41
0
  0
VERTEX
  8
0
 10
1.42708
 20
0.788411
 30
0.0
 40
0
 41
0
  0
VERTEX
  8
0
 10
1.43767
 20
0.735732
 30
0.0
 40
0
 41
0
  0
VERTEX
  8
0
 10
1.46669
 20
0.692708
 30
0.0
 40
0
 41
0
  0
VERTEX
  8
0
 10
1.50976
 20
0.663683
 30
0.0
 40
0
 41
0
  0
VERTEX
  8
0
 10
1.5625
 20
0.652994
 30
0.0
 40
0
 41
0
  0
VERTEX
  8
0
 10
1.61518
 20
0.663683
 30
0.0
 40
0
 41
0
  0
VERTEX
  8
0
 10
1.65826
 20
0.692708
 30
0.0
 40
0
 41
0
  0
VERTEX
  8
0
 10
1.68728
 20
0.735732
 30
0.0
 40
0
 41
0
  0
VERTEX
  8
0
 10
1.69792
 20
0.788411
 30
0.0
 40
0
 41
0
  0
VERTEX
  8
0
 10
1.69629
 20
0.809571
 30
0.0
 40
0
 41
0
  0
VERTEX
  8
0
 10
1.72037
 20
0.809571
 30
0.0
 40
0
 41
0
  0
VERTEX
  8
0
 10
1.71875
 20
0.788411
 30
0.0
 40
0
 41
0
  0
VERTEX
  8
0
 10
1.72933
 20
0.735732
 30
0.0
 40
0
 41
0
  0
VERTEX
  8
0
 10
1.75836
 20
0.692708
 30
0.0
 40
0
 41
0
  0
VERTEX
  8
0
 10
1.80143
 20
0.663683
 30
0.0
 40
0
 41
0
  0
VERTEX
  8
0
 10
1.85417
 20
0.652994
 30
0.0
 40
0
 41
0
  0
VERTEX
  8
0
 10
1.90685
 20
0.663683
 30
0.0
 40
0
 41
0
  0
VERTEX
  8
0
 10
1.94993
 20
0.692708
 30
0.0
 40
0
 41
0
  0
VERTEX
  8
0
 10
1.97894
 20
0.735732
 30
0.0
 40
0
 41
0
  0
VERTEX
  8
0
 10
1.98958
 20
0.788411
 30
0.0
 40
0
 41
0
  0
VERTEX
  8
0
 10
1.98361
 20
0.828017
 30
0.0
 40
0
 41
0
  0
VERTEX
  8
0
 10
1.96712
 20
0.862956
 30
0.0
 40
0
 41
0
  0
VERTEX
  8
0
 10
2.09608
 20
0.987901
 30
0.0
 40
0
 41
0
  0
VERTEX
  8
0
 10
2.19521
 20
1.14334
 30
0.0
 40
0
 41
0
  0
VERTEX
  8
0
 10
2.25879
 20
1.32313
 30
0.0
 40
0
 41
0
  0
VERTEX
  8
0
 10
2.28125
 20
1.52115
 30
0.0
 40
0
 41
0
  0
VERTEX
  8
0
 10
2.2666
 20
1.68175
 30
0.0
 40
0
 41
0
  0
VERTEX
  8
0
 10
2.22472
 20
1.83128
 30
0.0
 40
0
 41
0
  0
VERTEX
  8
0
 10
2.15847
 20
1.96658
 30
0.0
 40
0
 41
0
  0
VERTEX
  8
0
 10
2.07069
 20
2.08442
 30
0.0
 40
0
 41
0
  0
VERTEX
  8
0
 10
1.96431
 20
2.18169
 30
0.0
 40
0
 41
0
  0
VERTEX
  8
0
 10
1.84224
 20
2.25515
 30
0.0
 40
0
 41
0
  0
VERTEX
  8
0
 10
1.70731
 20
2.30154
 30
0.0
 40
0
 41
0
  0
VERTEX
  8
0
 10
1.5625
 20
2.31771
 30
0.0
 40
0
 41
0
  0
SEQEND
 8
0
  0
POLYLINE
  8
0
 62
     7
 66
     1
 10
0
 20
0
 30
0.0
 70
     1
 40
0
 41
0
  0
VERTEX
  8
0
 10
1.25358
 20
1.72331
 30
0.0
 40
0
 41
0
  0
VERTEX
  8
0
 10
1.31353
 20
1.71451
 30
0.0
 40
0
 41
0
  0
VERTEX
  8
0
 10
1.36914
 20
1.69011
 30
0.0
 40
0
 41
0
  0
VERTEX
  8
0
 10
1.40881
 20
1.6525
 30
0.0
 40
0
 41
0
  0
VERTEX
  8
0
 10
1.43946
 20
1.6071
 30
0.0
 40
0
 41
0
  0
VERTEX
  8
0
 10
1.44439
 20
1.57661
 30
0.0
 40
0
 41
0
  0
VERTEX
  8
0
 10
1.43815
 20
1.54644
 30
0.0
 40
0
 41
0
  0
VERTEX
  8
0
 10
1.42296
 20
1.51915
 30
0.0
 40
0
 41
0
  0
VERTEX
  8
0
 10
1.40136
 20
1.49707
 30
0.0
 40
0
 41
0
  0
VERTEX
  8
0
 10
1.36453
 20
1.47211
 30
0.0
 40
0
 41
0
  0
VERTEX
  8
0
 10
1.32454
 20
1.45313
 30
0.0
 40
0
 41
0
  0
VERTEX
  8
0
 10
1.22298
 20
1.40853
 30
0.0
 40
0
 41
0
  0
VERTEX
  8
0
 10
1.20215
 20
1.3915
 30
0.0
 40
0
 41
0
  0
VERTEX
  8
0
 10
1.19043
 20
1.36751
 30
0.0
 40
0
 41
0
  0
VERTEX
  8
0
 10
1.18414
 20
1.33681
 30
0.0
 40
0
 41
0
  0
VERTEX
  8
0
 10
1.17708
 20
1.30729
 30
0.0
 40
0
 41
0
  0
VERTEX
  8
0
 10
1.14784
 20
1.30501
 30
0.0
 40
0
 41
0
  0
VERTEX
  8
0
 10
1.12174
 20
1.32194
 30
0.0
 40
0
 41
0
  0
VERTEX
  8
0
 10
1.07796
 20
1.36442
 30
0.0
 40
0
 41
0
  0
VERTEX
  8
0
 10
1.05241
 20
1.41928
 30
0.0
 40
0
 41
0
  0
VERTEX
  8
0
 10
1.04373
 20
1.47114
 30
0.0
 40
0
 41
0
  0
VERTEX
  8
0
 10
1.04297
 20
1.52344
 30
0.0
 40
0
 41
0
  0
VERTEX
  8
0
 10
1.0568
 20
1.58419
 30
0.0
 40
0
 41
0
  0
VERTEX
  8
0
 10
1.08984
 20
1.63737
 30
0.0
 40
0
 41
0
  0
VERTEX
  8
0
 10
1.11448
 20
1.66624
 30
0.0
 40
0
 41
0
  0
VERTEX
  8
0
 10
1.14361
 20
1.69081
 30
0.0
 40
0
 41
0
  0
VERTEX
  8
0
 10
1.17681
 20
1.70904
 30
0.0
 40
0
 41
0
  0
VERTEX
  8
0
 10
1.21354
 20
1.71875
 30
0.0
 40
0
 41
0
  0
VERTEX
  8
0
 10
1.25358
 20
1.72331
 30
0.0
 40
0
 41
0
  0
SEQEND
 8
0
  0
POLYLINE
  8
0
 62
     7
 66
     1
 10
0
 20
0
 30
0.0
 70
     1
 40
0
 41
0
  0
VERTEX
  8
0
 10
1.87142
 20
1.72331
 30
0.0
 40
0
 41
0
  0
VERTEX
  8
0
 10
1.91146
 20
1.71875
 30
0.0
 40
0
 41
0
  0
VERTEX
  8
0
 10
1.94814
 20
1.70904
 30
0.0
 40
0
 41
0
  0
VERTEX
  8
0
 10
1.98133
 20
1.69081
 30
0.0
 40
0
 41
0
  0
VERTEX
  8
0
 10
2.01047
 20
1.66624
 30
0.0
 40
0
 41
0
  0
VERTEX
  8
0
 10
2.03515
 20
1.63737
 30
0.0
 40
0
 41
0
  0
VERTEX
  8
0
 10
2.06819
 20
1.58419
 30
0.0
 40
0
 41
0
  0
VERTEX
  8
0
 10
2.08203
 20
1.52344
 30
0.0
 40
0
 41
0
  0
VERTEX
  8
0
 10
2.08122
 20
1.47114
 30
0.0
 40
0
 41
0
  0
VERTEX
  8
0
 10
2.0726
 20
1.41928
 30
0.0
 40
0
 41
0
  0
VERTEX
  8
0
 10
2.04699
 20
1.36442
 30
0.0
 40
0
 41
0
  0
VERTEX
  8
0
 10
2.00325
 20
1.32194
 30
0.0
 40
0
 41
0
  0
VERTEX
  8
0
 10
1.97711
 20
1.30501
 30
0.0
 40
0
 41
0
  0
VERTEX
  8
0
 10
1.94792
 20
1.30729
 30
0.0
 40
0
 41
0
  0
VERTEX
  8
0
 10
1.94081
 20
1.33681
 30
0.0
 40
0
 41
0
  0
VERTEX
  8
0
 10
1.93457
 20
1.36751
 30
0.0
 40
0
 41
0
  0
VERTEX
  8
0
 10
1.92279
 20
1.3915
 30
0.0
 40
0
 41
0
  0
VERTEX
  8
0
 10
1.90201
 20
1.40853
 30
0.0
 40
0
 41
0
  0
VERTEX
  8
0
 10
1.80046
 20
1.45313
 30
0.0
 40
0
 41
0
  0
VERTEX
  8
0
 10
1.76042
 20
1.47211
 30
0.0
 40
0
 41
0
  0
VERTEX
  8
0
 10
1.72364
 20
1.49707
 30
0.0
 40
0
 41
0
  0
VERTEX
  8
0
 10
1.70199
 20
1.51915
 30
0.0
 40
0
 41
0
  0
VERTEX
  8
0
 10
1.68685
 20
1.54644
 30
0.0
 40
0
 41
0
  0
VERTEX
  8
0
 10
1.68056
 20
1.57661
 30
0.0
 40
0
 41
0
  0
VERTEX
  8
0
 10
1.68554
 20
1.6071
 30
0.0
 40
0
 41
0
  0
VERTEX
  8
0
 10
1.71614
 20
1.6525
 30
0.0
 40
0
 41
0
  0
VERTEX
  8
0
 10
1.75586
 20
1.69011
 30
0.0
 40
0
 41
0
  0
VERTEX
  8
0
 10
1.81142
 20
1.71451
 30
0.0
 40
0
 41
0
  0
VERTEX
  8
0
 10
1.87142
 20
1.72331
 30
0.0
 40
0
 41
0
  0
SEQEND
 8
0
  0
POLYLINE
  8
0
 62
     7
 66
     1
 10
0
 20
0
 30
0.0
 70
     1
 40
0
 41
0
  0
VERTEX
  8
0
 10
1.56478
 20
1.31445
 30
0.0
 40
0
 41
0
  0
VERTEX
  8
0
 10
1.59278
 20
1.28798
 30
0.0
 40
0
 41
0
  0
VERTEX
  8
0
 10
1.61621
 20
1.22591
 30
0.0
 40
0
 41
0
  0
VERTEX
  8
0
 10
1.63058
 20
1.15223
 30
0.0
 40
0
 41
0
  0
VERTEX
  8
0
 10
1.63151
 20
1.09082
 30
0.0
 40
0
 41
0
  0
VERTEX
  8
0
 10
1.62104
 20
1.06635
 30
0.0
 40
0
 41
0
  0
VERTEX
  8
0
 10
1.61322
 20
1.06066
 30
0.0
 40
0
 41
0
  0
VERTEX
  8
0
 10
1.60693
 20
1.0689
 30
0.0
 40
0
 41
0
  0
VERTEX
  8
0
 10
1.60129
 20
1.08643
 30
0.0
 40
0
 41
0
  0
VERTEX
  8
0
 10
1.59521
 20
1.10851
 30
0.0
 40
0
 41
0
  0
VERTEX
  8
0
 10
1.58778
 20
1.13032
 30
0.0
 40
0
 41
0
  0
VERTEX
  8
0
 10
1.57796
 20
1.14719
 30
0.0
 40
0
 41
0
  0
VERTEX
  8
0
 10
1.56478
 20
1.1543
 30
0.0
 40
0
 41
0
  0
VERTEX
  8
0
 10
1.5504
 20
1.14784
 30
0.0
 40
0
 41
0
  0
VERTEX
  8
0
 10
1.53868
 20
1.13157
 30
0.0
 40
0
 41
0
  0
VERTEX
  8
0
 10
1.52908
 20
1.11019
 30
0.0
 40
0
 41
0
  0
VERTEX
  8
0
 10
1.521
 20
1.08838
 30
0.0
 40
0
 41
0
  0
VERTEX
  8
0
 10
1.51383
 20
1.07086
 30
0.0
 40
0
 41
0
  0
VERTEX
  8
0
 10
1.50711
 20
1.06223
 30
0.0
 40
0
 41
0
  0
VERTEX
  8
0
 10
1.50017
 20
1.06722
 30
0.0
 40
0
 41
0
  0
VERTEX
  8
0
 10
1.49251
 20
1.09049
 30
0.0
 40
0
 41
0
  0
VERTEX
  8
0
 10
1.49593
 20
1.15451
 30
0.0
 40
0
 41
0
  0
VERTEX
  8
0
 10
1.51286
 20
1.22852
 30
0.0
 40
0
 41
0
  0
VERTEX
  8
0
 10
1.53765
 20
1.28955
 30
0.0
 40
0
 41
0
  0
VERTEX
  8
0
 10
1.56478
 20
1.31445
 30
0.0
 40
0
 41
0
  0
SEQEND
 8
0
  0
ENDSEC
  0
EOF
