999
dxflib 2.2.0.0
  0
SECTION
  2
HEADER
  9
$ACADVER
  1
AC1015
  9
$HANDSEED
  5
FFFF
  9
$DIMASZ
 40
0.1
  9
$PLIMMIN
 10
0.0
 20
0.0
  9
$DIMEXE
 40
0.05
  9
$DIMGAP
 40
0.025
  9
$PLIMMAX
 10
8.2677165354330722
 20
11.6929133858267722
  9
$INSUNITS
 70
1
  9
$DIMSTYLE
  2
Standard
  9
$DIMEXO
 40
0.025
  9
$DIMTXT
 40
0.1
  0
ENDSEC
  0
SECTION
  2
TABLES
  0
TABLE
  2
VPORT
  5
8
100
AcDbSymbolTable
 70
1
  0
VPORT
  5
30
100
AcDbSymbolTableRecord
100
AcDbViewportTableRecord
  2
*Active
 70
0
 10
0.0
 20
0.0
 11
1.0
 21
1.0
 12
286.3055555555554861
 22
148.5
 13
0.0
 23
0.0
 14
10.0
 24
10.0
 15
10.0
 25
10.0
 16
0.0
 26
0.0
 36
1.0
 17
0.0
 27
0.0
 37
0.0
 40
297.0
 41
1.92798353909465
 42
50.0
 43
0.0
 44
0.0
 50
0.0
 51
0.0
 71
0
 72
100
 73
1
 74
3
 75
1
 76
1
 77
0
 78
0
281
0
 65
1
110
0.0
120
0.0
130
0.0
111
1.0
121
0.0
131
0.0
112
0.0
122
1.0
132
0.0
 79
0
146
0.0
  0
ENDTAB
  0
TABLE
  2
LTYPE
  5
5
100
AcDbSymbolTable
 70
21
  0
LTYPE
  5
14
100
AcDbSymbolTableRecord
100
AcDbLinetypeTableRecord
  2
ByBlock
 70
0
  3

 72
65
 73
0
 40
0.0
  0
LTYPE
  5
15
100
AcDbSymbolTableRecord
100
AcDbLinetypeTableRecord
  2
ByLayer
 70
0
  3

 72
65
 73
0
 40
0.0
  0
LTYPE
  5
16
100
AcDbSymbolTableRecord
100
AcDbLinetypeTableRecord
  2
CONTINUOUS
 70
0
  3
Solid line
 72
65
 73
0
 40
0.0
  0
LTYPE
  5
31
100
AcDbSymbolTableRecord
100
AcDbLinetypeTableRecord
  2
DOT
 70
0
  3
Dot . . . . . . . . . . . . . . . . . . . . . .
 72
65
 73
2
 40
6.3499999999999996
 49
0.0
 74
0
 49
-6.3499999999999996
 74
0
  0
LTYPE
  5
32
100
AcDbSymbolTableRecord
100
AcDbLinetypeTableRecord
  2
DOT2
 70
0
  3
Dot (.5x) .....................................
 72
65
 73
2
 40
3.1749999999999998
 49
0.0
 74
0
 49
-3.1749999999999998
 74
0
  0
LTYPE
  5
33
100
AcDbSymbolTableRecord
100
AcDbLinetypeTableRecord
  2
DOTX2
 70
0
  3
Dot (2x) .  .  .  .  .  .  .  .  .  .  .  .  .
 72
65
 73
2
 40
12.6999999999999993
 49
0.0
 74
0
 49
-12.6999999999999993
 74
0
  0
LTYPE
  5
34
100
AcDbSymbolTableRecord
100
AcDbLinetypeTableRecord
  2
DASHED
 70
0
  3
Dashed __ __ __ __ __ __ __ __ __ __ __ __ __ _
 72
65
 73
2
 40
19.0500000000000007
 49
12.6999999999999993
 74
0
 49
-6.3499999999999996
 74
0
  0
LTYPE
  5
35
100
AcDbSymbolTableRecord
100
AcDbLinetypeTableRecord
  2
DASHED2
 70
0
  3
Dashed (.5x) _ _ _ _ _ _ _ _ _ _ _ _ _ _ _ _ _
 72
65
 73
2
 40
9.5250000000000004
 49
6.3499999999999996
 74
0
 49
-3.1749999999999998
 74
0
  0
LTYPE
  5
36
100
AcDbSymbolTableRecord
100
AcDbLinetypeTableRecord
  2
DASHEDX2
 70
0
  3
Dashed (2x) ____  ____  ____  ____  ____  ___
 72
65
 73
2
 40
38.1000000000000014
 49
25.3999999999999986
 74
0
 49
-12.6999999999999993
 74
0
  0
LTYPE
  5
37
100
AcDbSymbolTableRecord
100
AcDbLinetypeTableRecord
  2
DASHDOT
 70
0
  3
Dash dot __ . __ . __ . __ . __ . __ . __ . __
 72
65
 73
4
 40
25.3999999999999986
 49
12.6999999999999993
 74
0
 49
-6.3499999999999996
 74
0
 49
0.0
 74
0
 49
-6.3499999999999996
 74
0
  0
LTYPE
  5
38
100
AcDbSymbolTableRecord
100
AcDbLinetypeTableRecord
  2
DASHDOT2
 70
0
  3
Dash dot (.5x) _._._._._._._._._._._._._._._.
 72
65
 73
4
 40
12.6999999999999993
 49
6.3499999999999996
 74
0
 49
-3.1749999999999998
 74
0
 49
0.0
 74
0
 49
-3.1749999999999998
 74
0
  0
LTYPE
  5
39
100
AcDbSymbolTableRecord
100
AcDbLinetypeTableRecord
  2
DASHDOTX2
 70
0
  3
Dash dot (2x) ____  .  ____  .  ____  .  ___
 72
65
 73
4
 40
50.7999999999999972
 49
25.3999999999999986
 74
0
 49
-12.6999999999999993
 74
0
 49
0.0
 74
0
 49
-12.6999999999999993
 74
0
  0
LTYPE
  5
3A
100
AcDbSymbolTableRecord
100
AcDbLinetypeTableRecord
  2
DIVIDE
 70
0
  3
Divide ____ . . ____ . . ____ . . ____ . . ____
 72
65
 73
6
 40
31.75
 49
12.6999999999999993
 74
0
 49
-6.3499999999999996
 74
0
 49
0.0
 74
0
 49
-6.3499999999999996
 74
0
 49
0.0
 74
0
 49
-6.3499999999999996
 74
0
  0
LTYPE
  5
3B
100
AcDbSymbolTableRecord
100
AcDbLinetypeTableRecord
  2
DIVIDE2
 70
0
  3
Divide (.5x) __..__..__..__..__..__..__..__.._
 72
65
 73
6
 40
15.875
 49
6.3499999999999996
 74
0
 49
-3.1749999999999998
 74
0
 49
0.0
 74
0
 49
-3.1749999999999998
 74
0
 49
0.0
 74
0
 49
-3.1749999999999998
 74
0
  0
LTYPE
  5
3C
100
AcDbSymbolTableRecord
100
AcDbLinetypeTableRecord
  2
DIVIDEX2
 70
0
  3
Divide (2x) ________  .  .  ________  .  .  _
 72
65
 73
6
 40
63.5
 49
25.3999999999999986
 74
0
 49
-12.6999999999999993
 74
0
 49
0.0
 74
0
 49
-12.6999999999999993
 74
0
 49
0.0
 74
0
 49
-12.6999999999999993
 74
0
  0
LTYPE
  5
3D
100
AcDbSymbolTableRecord
100
AcDbLinetypeTableRecord
  2
CENTER
 70
0
  3
Center ____ _ ____ _ ____ _ ____ _ ____ _ ____
 72
65
 73
4
 40
50.7999999999999972
 49
31.75
 74
0
 49
-6.3499999999999996
 74
0
 49
6.3499999999999996
 74
0
 49
-6.3499999999999996
 74
0
  0
LTYPE
  5
3E
100
AcDbSymbolTableRecord
100
AcDbLinetypeTableRecord
  2
CENTER2
 70
0
  3
Center (.5x) ___ _ ___ _ ___ _ ___ _ ___ _ ___
 72
65
 73
4
 40
28.5749999999999993
 49
19.0500000000000007
 74
0
 49
-3.1749999999999998
 74
0
 49
3.1749999999999998
 74
0
 49
-3.1749999999999998
 74
0
  0
LTYPE
  5
3F
100
AcDbSymbolTableRecord
100
AcDbLinetypeTableRecord
  2
CENTERX2
 70
0
  3
Center (2x) ________  __  ________  __  _____
 72
65
 73
4
 40
101.5999999999999943
 49
63.5
 74
0
 49
-12.6999999999999993
 74
0
 49
12.6999999999999993
 74
0
 49
-12.6999999999999993
 74
0
  0
LTYPE
  5
40
100
AcDbSymbolTableRecord
100
AcDbLinetypeTableRecord
  2
BORDER
 70
0
  3
Border __ __ . __ __ . __ __ . __ __ . __ __ .
 72
65
 73
6
 40
44.4500000000000028
 49
12.6999999999999993
 74
0
 49
-6.3499999999999996
 74
0
 49
12.6999999999999993
 74
0
 49
-6.3499999999999996
 74
0
 49
0.0
 74
0
 49
-6.3499999999999996
 74
0
  0
LTYPE
  5
41
100
AcDbSymbolTableRecord
100
AcDbLinetypeTableRecord
  2
BORDER2
 70
0
  3
Border (.5x) __.__.__.__.__.__.__.__.__.__.__.
 72
65
 73
6
 40
22.2250000000000014
 49
6.3499999999999996
 74
0
 49
-3.1749999999999998
 74
0
 49
6.3499999999999996
 74
0
 49
-3.1749999999999998
 74
0
 49
0.0
 74
0
 49
-3.1749999999999998
 74
0
  0
LTYPE
  5
42
100
AcDbSymbolTableRecord
100
AcDbLinetypeTableRecord
  2
BORDERX2
 70
0
  3
Border (2x) ____  ____  .  ____  ____  .  ___
 72
65
 73
6
 40
88.9000000000000057
 49
25.3999999999999986
 74
0
 49
-12.6999999999999993
 74
0
 49
25.3999999999999986
 74
0
 49
-12.6999999999999993
 74
0
 49
0.0
 74
0
 49
-12.6999999999999993
 74
0
  0
ENDTAB
  0
TABLE
  2
LAYER
  5
2
100
AcDbSymbolTable
 70
2
  0
LAYER
  5
10
100
AcDbSymbolTableRecord
100
AcDbLayerTableRecord
  2
0
 70
0
 62
7
  6
CONTINUOUS
370
0
390
F
  0
LAYER
  5
43
100
AcDbSymbolTableRecord
100
AcDbLayerTableRecord
  2
Layer_1
 70
0
 62
7
  6
CONTINUOUS
390
F
  0
ENDTAB
  0
TABLE
  2
STYLE
  5
3
100
AcDbSymbolTable
 70
1
  0
STYLE
  5
11
100
AcDbSymbolTableRecord
100
AcDbTextStyleTableRecord
  2
Standard
 70
0
 40
0.0
 41
0.75
 50
0.0
 71
0
 42
2.5
  3
txt
  4

  0
ENDTAB
  0
TABLE
  2
VIEW
  5
6
100
AcDbSymbolTable
 70
0
  0
ENDTAB
  0
TABLE
  2
UCS
  5
7
100
AcDbSymbolTable
 70
0
  0
ENDTAB
  0
TABLE
  2
APPID
  5
9
100
AcDbSymbolTable
 70
1
  0
APPID
  5
12
100
AcDbSymbolTableRecord
100
AcDbRegAppTableRecord
  2
ACAD
 70
0
  0
ENDTAB
  0
TABLE
  2
DIMSTYLE
  5
A
100
AcDbSymbolTable
 70
1
100
AcDbDimStyleTable
 71
0
  0
DIMSTYLE
105
27
100
AcDbSymbolTableRecord
100
AcDbDimStyleTableRecord
  2
Standard
 41
0.1
 42
0.025
 43
3.75
 44
0.05
 70
0
 73
0
 74
0
 77
1
 78
8
140
0.1
141
2.5
143
0.03937007874016
147
0.025
171
3
172
1
271
2
272
2
274
3
278
44
283
0
284
8
340
11
  0
ENDTAB
  0
TABLE
  2
BLOCK_RECORD
  5
1
100
AcDbSymbolTable
 70
1
  0
BLOCK_RECORD
  5
1F
100
AcDbSymbolTableRecord
100
AcDbBlockTableRecord
  2
*Model_Space
340
22
  0
BLOCK_RECORD
  5
1B
100
AcDbSymbolTableRecord
100
AcDbBlockTableRecord
  2
*Paper_Space
340
1E
  0
BLOCK_RECORD
  5
23
100
AcDbSymbolTableRecord
100
AcDbBlockTableRecord
  2
*Paper_Space0
340
26
  0
ENDTAB
  0
ENDSEC
  0
SECTION
  2
BLOCKS
  0
BLOCK
  5
20
100
AcDbEntity
  8
0
100
AcDbBlockBegin
  2
*Model_Space
 70
0
 10
0.0
 20
0.0
 30
0.0
  3
*Model_Space
  1

  0
ENDBLK
  5
21
100
AcDbEntity
  8
0
100
AcDbBlockEnd
  0
BLOCK
  5
1C
100
AcDbEntity
 67
1
  8
0
100
AcDbBlockBegin
  2
*Paper_Space
 70
0
 10
0.0
 20
0.0
 30
0.0
  3
*Paper_Space
  1

  0
ENDBLK
  5
1D
100
AcDbEntity
 67
1
  8
0
100
AcDbBlockEnd
  0
BLOCK
  5
24
100
AcDbEntity
  8
0
100
AcDbBlockBegin
  2
*Paper_Space0
 70
0
 10
0.0
 20
0.0
 30
0.0
  3
*Paper_Space0
  1

  0
ENDBLK
  5
25
100
AcDbEntity
  8
0
100
AcDbBlockEnd
  0
ENDSEC
  0
SECTION
  2
ENTITIES
  0
LINE
  5
44
100
AcDbEntity
100
AcDbLine
  8
Layer_1
 62
0
370
-1
  6
ByLayer
 10
0.619463
 20
-8.0223320000000005
 30
0.0
 11
0.70818
 21
-7.9336149999999996
 31
0.0
  0
LINE
  5
45
100
AcDbEntity
100
AcDbLine
  8
Layer_1
 62
0
370
-1
  6
ByLayer
 10
0.70818
 20
-7.9336149999999996
 30
0.0
 11
0.604448
 21
-7.8382350000000001
 31
0.0
  0
LINE
  5
46
100
AcDbEntity
100
AcDbLine
  8
Layer_1
 62
0
370
-1
  6
ByLayer
 10
0.604448
 20
-7.8382350000000001
 30
0.0
 11
0.519974
 21
-7.7456820000000004
 31
0.0
  0
LINE
  5
47
100
AcDbEntity
100
AcDbLine
  8
Layer_1
 62
0
370
-1
  6
ByLayer
 10
0.519974
 20
-7.7456820000000004
 30
0.0
 11
0.487393
 21
-7.660749
 31
0.0
  0
LINE
  5
48
100
AcDbEntity
100
AcDbLine
  8
Layer_1
 62
0
370
-1
  6
ByLayer
 10
0.487393
 20
-7.660749
 30
0.0
 11
0.461534
 21
-7.583723
 31
0.0
  0
LINE
  5
49
100
AcDbEntity
100
AcDbLine
  8
Layer_1
 62
0
370
-1
  6
ByLayer
 10
0.461534
 20
-7.583723
 30
0.0
 11
0.4138
 21
-7.51938
 31
0.0
  0
LINE
  5
4A
100
AcDbEntity
100
AcDbLine
  8
Layer_1
 62
0
370
-1
  6
ByLayer
 10
0.4138
 20
-7.51938
 30
0.0
 11
0.349174
 21
-7.472645
 31
0.0
  0
LINE
  5
4B
100
AcDbEntity
100
AcDbLine
  8
Layer_1
 62
0
370
-1
  6
ByLayer
 10
0.349174
 20
-7.472645
 30
0.0
 11
0.272635
 21
-7.4484389999999996
 31
0.0
  0
LINE
  5
4C
100
AcDbEntity
100
AcDbLine
  8
Layer_1
 62
0
370
-1
  6
ByLayer
 10
0.272635
 20
-7.4484389999999996
 30
0.0
 11
0.189833
 21
-7.4368660000000002
 31
0.0
  0
LINE
  5
4D
100
AcDbEntity
100
AcDbLine
  8
Layer_1
 62
0
370
-1
  6
ByLayer
 10
0.189833
 20
-7.4368660000000002
 30
0.0
 11
0.269629
 21
-7.5133330000000003
 31
0.0
  0
LINE
  5
4E
100
AcDbEntity
100
AcDbLine
  8
Layer_1
 62
0
370
-1
  6
ByLayer
 10
0.269629
 20
-7.5133330000000003
 30
0.0
 11
0.349425
 21
-7.5898000000000003
 31
0.0
  0
LINE
  5
4F
100
AcDbEntity
100
AcDbLine
  8
Layer_1
 62
0
370
-1
  6
ByLayer
 10
0.349425
 20
-7.5898000000000003
 30
0.0
 11
0.271918
 21
-7.6775029999999997
 31
0.0
  0
LINE
  5
50
100
AcDbEntity
100
AcDbLine
  8
Layer_1
 62
0
370
-1
  6
ByLayer
 10
0.271918
 20
-7.6775029999999997
 30
0.0
 11
0.177667
 21
-7.7838539999999998
 31
0.0
  0
LINE
  5
51
100
AcDbEntity
100
AcDbLine
  8
Layer_1
 62
0
370
-1
  6
ByLayer
 10
0.177667
 20
-7.7838539999999998
 30
0.0
 11
0.146704
 21
-7.78104
 31
0.0
  0
LINE
  5
52
100
AcDbEntity
100
AcDbLine
  8
Layer_1
 62
0
370
-1
  6
ByLayer
 10
0.146704
 20
-7.78104
 30
0.0
 11
0.095169
 21
-7.7471740000000002
 31
0.0
  0
LINE
  5
53
100
AcDbEntity
100
AcDbLine
  8
Layer_1
 62
0
370
-1
  6
ByLayer
 10
0.095169
 20
-7.7471740000000002
 30
0.0
 11
0.01297
 21
-7.691846
 31
0.0
  0
LINE
  5
54
100
AcDbEntity
100
AcDbLine
  8
Layer_1
 62
0
370
-1
  6
ByLayer
 10
0.01297
 20
-7.691846
 30
0.0
 11
0.000001
 21
-7.7099869999999999
 31
0.0
  0
LINE
  5
55
100
AcDbEntity
100
AcDbLine
  8
Layer_1
 62
0
370
-1
  6
ByLayer
 10
0.000001
 20
-7.7099869999999999
 30
0.0
 11
0.010603
 21
-7.7542819999999999
 31
0.0
  0
LINE
  5
56
100
AcDbEntity
100
AcDbLine
  8
Layer_1
 62
0
370
-1
  6
ByLayer
 10
0.010603
 20
-7.7542819999999999
 30
0.0
 11
0.078804
 21
-7.8605539999999996
 31
0.0
  0
LINE
  5
57
100
AcDbEntity
100
AcDbLine
  8
Layer_1
 62
0
370
-1
  6
ByLayer
 10
0.078804
 20
-7.8605539999999996
 30
0.0
 11
0.145933
 21
-7.9097559999999998
 31
0.0
  0
LINE
  5
58
100
AcDbEntity
100
AcDbLine
  8
Layer_1
 62
0
370
-1
  6
ByLayer
 10
0.145933
 20
-7.9097559999999998
 30
0.0
 11
0.228126
 21
-7.9228379999999996
 31
0.0
  0
LINE
  5
59
100
AcDbEntity
100
AcDbLine
  8
Layer_1
 62
0
370
-1
  6
ByLayer
 10
0.228126
 20
-7.9228379999999996
 30
0.0
 11
0.318801
 21
-7.9404060000000003
 31
0.0
  0
LINE
  5
5A
100
AcDbEntity
100
AcDbLine
  8
Layer_1
 62
0
370
-1
  6
ByLayer
 10
0.318801
 20
-7.9404060000000003
 30
0.0
 11
0.420396
 21
-8.0163530000000005
 31
0.0
  0
LINE
  5
5B
100
AcDbEntity
100
AcDbLine
  8
Layer_1
 62
0
370
-1
  6
ByLayer
 10
0.420396
 20
-8.0163530000000005
 30
0.0
 11
0.527972
 21
-8.1102430000000005
 31
0.0
  0
LINE
  5
5C
100
AcDbEntity
100
AcDbLine
  8
Layer_1
 62
0
370
-1
  6
ByLayer
 10
0.527972
 20
-8.1102430000000005
 30
0.0
 11
0.619463
 21
-8.0223320000000005
 31
0.0
  0
LINE
  5
5D
100
AcDbEntity
100
AcDbLine
  8
Layer_1
 62
0
370
-1
  6
ByLayer
 10
0.619463
 20
-8.0223320000000005
 30
0.0
 11
0.619463
 21
-8.0223320000000005
 31
0.0
  0
LINE
  5
5E
100
AcDbEntity
100
AcDbLine
  8
Layer_1
 62
0
370
-1
  6
ByLayer
 10
1.5591459999999999
 20
-8.0290560000000006
 30
0.0
 11
1.669961
 21
-7.946269
 31
0.0
  0
LINE
  5
5F
100
AcDbEntity
100
AcDbLine
  8
Layer_1
 62
0
370
-1
  6
ByLayer
 10
1.669961
 20
-7.946269
 30
0.0
 11
1.755674
 21
-7.9263519999999996
 31
0.0
  0
LINE
  5
60
100
AcDbEntity
100
AcDbLine
  8
Layer_1
 62
0
370
-1
  6
ByLayer
 10
1.755674
 20
-7.9263519999999996
 30
0.0
 11
1.829205
 21
-7.9144290000000002
 31
0.0
  0
LINE
  5
61
100
AcDbEntity
100
AcDbLine
  8
Layer_1
 62
0
370
-1
  6
ByLayer
 10
1.829205
 20
-7.9144290000000002
 30
0.0
 11
1.8950910000000001
 21
-7.8807419999999997
 31
0.0
  0
LINE
  5
62
100
AcDbEntity
100
AcDbLine
  8
Layer_1
 62
0
370
-1
  6
ByLayer
 10
1.8950910000000001
 20
-7.8807419999999997
 30
0.0
 11
1.9479789999999999
 21
-7.8291339999999998
 31
0.0
  0
LINE
  5
63
100
AcDbEntity
100
AcDbLine
  8
Layer_1
 62
0
370
-1
  6
ByLayer
 10
1.9479789999999999
 20
-7.8291339999999998
 30
0.0
 11
1.9825159999999999
 21
-7.7634489999999996
 31
0.0
  0
LINE
  5
64
100
AcDbEntity
100
AcDbLine
  8
Layer_1
 62
0
370
-1
  6
ByLayer
 10
1.9825159999999999
 20
-7.7634489999999996
 30
0.0
 11
1.998578
 21
-7.6805409999999998
 31
0.0
  0
LINE
  5
65
100
AcDbEntity
100
AcDbLine
  8
Layer_1
 62
0
370
-1
  6
ByLayer
 10
1.998578
 20
-7.6805409999999998
 30
0.0
 11
1.912388
 21
-7.7360860000000002
 31
0.0
  0
LINE
  5
66
100
AcDbEntity
100
AcDbLine
  8
Layer_1
 62
0
370
-1
  6
ByLayer
 10
1.912388
 20
-7.7360860000000002
 30
0.0
 11
1.834694
 21
-7.8001269999999998
 31
0.0
  0
LINE
  5
67
100
AcDbEntity
100
AcDbLine
  8
Layer_1
 62
0
370
-1
  6
ByLayer
 10
1.834694
 20
-7.8001269999999998
 30
0.0
 11
1.742264
 21
-7.6988269999999996
 31
0.0
  0
LINE
  5
68
100
AcDbEntity
100
AcDbLine
  8
Layer_1
 62
0
370
-1
  6
ByLayer
 10
1.742264
 20
-7.6988269999999996
 30
0.0
 11
1.649834
 21
-7.5975260000000002
 31
0.0
  0
LINE
  5
69
100
AcDbEntity
100
AcDbLine
  8
Layer_1
 62
0
370
-1
  6
ByLayer
 10
1.649834
 20
-7.5975260000000002
 30
0.0
 11
1.726804
 21
-7.5161949999999997
 31
0.0
  0
LINE
  5
6A
100
AcDbEntity
100
AcDbLine
  8
Layer_1
 62
0
370
-1
  6
ByLayer
 10
1.726804
 20
-7.5161949999999997
 30
0.0
 11
1.803774
 21
-7.434863
 31
0.0
  0
LINE
  5
6B
100
AcDbEntity
100
AcDbLine
  8
Layer_1
 62
0
370
-1
  6
ByLayer
 10
1.803774
 20
-7.434863
 30
0.0
 11
1.7209719999999999
 21
-7.447438
 31
0.0
  0
LINE
  5
6C
100
AcDbEntity
100
AcDbLine
  8
Layer_1
 62
0
370
-1
  6
ByLayer
 10
1.7209719999999999
 20
-7.447438
 30
0.0
 11
1.6443319999999999
 21
-7.4724700000000004
 31
0.0
  0
LINE
  5
6D
100
AcDbEntity
100
AcDbLine
  8
Layer_1
 62
0
370
-1
  6
ByLayer
 10
1.6443319999999999
 20
-7.4724700000000004
 30
0.0
 11
1.5796829999999999
 21
-7.519685
 31
0.0
  0
LINE
  5
6E
100
AcDbEntity
100
AcDbLine
  8
Layer_1
 62
0
370
-1
  6
ByLayer
 10
1.5796829999999999
 20
-7.519685
 30
0.0
 11
1.5319799999999999
 21
-7.5841580000000004
 31
0.0
  0
LINE
  5
6F
100
AcDbEntity
100
AcDbLine
  8
Layer_1
 62
0
370
-1
  6
ByLayer
 10
1.5319799999999999
 20
-7.5841580000000004
 30
0.0
 11
1.5061800000000001
 21
-7.6609600000000002
 31
0.0
  0
LINE
  5
70
100
AcDbEntity
100
AcDbLine
  8
Layer_1
 62
0
370
-1
  6
ByLayer
 10
1.5061800000000001
 20
-7.6609600000000002
 30
0.0
 11
1.4723839999999999
 21
-7.747458
 31
0.0
  0
LINE
  5
71
100
AcDbEntity
100
AcDbLine
  8
Layer_1
 62
0
370
-1
  6
ByLayer
 10
1.4723839999999999
 20
-7.747458
 30
0.0
 11
1.3806309999999999
 21
-7.8458129999999997
 31
0.0
  0
LINE
  5
72
100
AcDbEntity
100
AcDbLine
  8
Layer_1
 62
0
370
-1
  6
ByLayer
 10
1.3806309999999999
 20
-7.8458129999999997
 30
0.0
 11
1.26844
 21
-7.9483480000000002
 31
0.0
  0
LINE
  5
73
100
AcDbEntity
100
AcDbLine
  8
Layer_1
 62
0
370
-1
  6
ByLayer
 10
1.26844
 20
-7.9483480000000002
 30
0.0
 11
1.347464
 21
-8.0382040000000003
 31
0.0
  0
LINE
  5
74
100
AcDbEntity
100
AcDbLine
  8
Layer_1
 62
0
370
-1
  6
ByLayer
 10
1.347464
 20
-8.0382040000000003
 30
0.0
 11
1.433384
 21
-8.1300340000000002
 31
0.0
  0
LINE
  5
75
100
AcDbEntity
100
AcDbLine
  8
Layer_1
 62
0
370
-1
  6
ByLayer
 10
1.433384
 20
-8.1300340000000002
 30
0.0
 11
1.5591459999999999
 21
-8.0290560000000006
 31
0.0
  0
LINE
  5
76
100
AcDbEntity
100
AcDbLine
  8
Layer_1
 62
0
370
-1
  6
ByLayer
 10
1.5591459999999999
 20
-8.0290560000000006
 30
0.0
 11
1.5591459999999999
 21
-8.0290560000000006
 31
0.0
  0
LINE
  5
77
100
AcDbEntity
100
AcDbLine
  8
Layer_1
 62
0
370
-1
  6
ByLayer
 10
1.2336480000000001
 20
-8.5648540000000004
 30
0.0
 11
1.155939
 21
-8.5072139999999994
 31
0.0
  0
LINE
  5
78
100
AcDbEntity
100
AcDbLine
  8
Layer_1
 62
0
370
-1
  6
ByLayer
 10
1.155939
 20
-8.5072139999999994
 30
0.0
 11
1.1003350000000001
 21
-8.4735329999999998
 31
0.0
  0
LINE
  5
79
100
AcDbEntity
100
AcDbLine
  8
Layer_1
 62
0
370
-1
  6
ByLayer
 10
1.1003350000000001
 20
-8.4735329999999998
 30
0.0
 11
1.0708819999999999
 21
-8.4385519999999996
 31
0.0
  0
LINE
  5
7A
100
AcDbEntity
100
AcDbLine
  8
Layer_1
 62
0
370
-1
  6
ByLayer
 10
1.0708819999999999
 20
-8.4385519999999996
 30
0.0
 11
1.0674760000000001
 21
-8.4020480000000006
 31
0.0
  0
LINE
  5
7B
100
AcDbEntity
100
AcDbLine
  8
Layer_1
 62
0
370
-1
  6
ByLayer
 10
1.0674760000000001
 20
-8.4020480000000006
 30
0.0
 11
1.090015
 21
-8.3637960000000007
 31
0.0
  0
LINE
  5
7C
100
AcDbEntity
100
AcDbLine
  8
Layer_1
 62
0
370
-1
  6
ByLayer
 10
1.090015
 20
-8.3637960000000007
 30
0.0
 11
1.1408609999999999
 21
-8.3291280000000008
 31
0.0
  0
LINE
  5
7D
100
AcDbEntity
100
AcDbLine
  8
Layer_1
 62
0
370
-1
  6
ByLayer
 10
1.1408609999999999
 20
-8.3291280000000008
 30
0.0
 11
1.200847
 21
-8.3199380000000005
 31
0.0
  0
LINE
  5
7E
100
AcDbEntity
100
AcDbLine
  8
Layer_1
 62
0
370
-1
  6
ByLayer
 10
1.200847
 20
-8.3199380000000005
 30
0.0
 11
1.2603359999999999
 21
-8.3356980000000007
 31
0.0
  0
LINE
  5
7F
100
AcDbEntity
100
AcDbLine
  8
Layer_1
 62
0
370
-1
  6
ByLayer
 10
1.2603359999999999
 20
-8.3356980000000007
 30
0.0
 11
1.3096859999999999
 21
-8.3758759999999999
 31
0.0
  0
LINE
  5
80
100
AcDbEntity
100
AcDbLine
  8
Layer_1
 62
0
370
-1
  6
ByLayer
 10
1.3096859999999999
 20
-8.3758759999999999
 30
0.0
 11
1.3509739999999999
 21
-8.4625240000000002
 31
0.0
  0
LINE
  5
81
100
AcDbEntity
100
AcDbLine
  8
Layer_1
 62
0
370
-1
  6
ByLayer
 10
1.3509739999999999
 20
-8.4625240000000002
 30
0.0
 11
1.344576
 21
-8.5027950000000008
 31
0.0
  0
LINE
  5
82
100
AcDbEntity
100
AcDbLine
  8
Layer_1
 62
0
370
-1
  6
ByLayer
 10
1.344576
 20
-8.5027950000000008
 30
0.0
 11
1.3204990000000001
 21
-8.5465459999999993
 31
0.0
  0
LINE
  5
83
100
AcDbEntity
100
AcDbLine
  8
Layer_1
 62
0
370
-1
  6
ByLayer
 10
1.3204990000000001
 20
-8.5465459999999993
 30
0.0
 11
1.272044
 21
-8.590878
 31
0.0
  0
LINE
  5
84
100
AcDbEntity
100
AcDbLine
  8
Layer_1
 62
0
370
-1
  6
ByLayer
 10
1.272044
 20
-8.590878
 30
0.0
 11
1.2520739999999999
 21
-8.5865580000000001
 31
0.0
  0
LINE
  5
85
100
AcDbEntity
100
AcDbLine
  8
Layer_1
 62
0
370
-1
  6
ByLayer
 10
1.2520739999999999
 20
-8.5865580000000001
 30
0.0
 11
1.2336480000000001
 21
-8.5648540000000004
 31
0.0
  0
LINE
  5
86
100
AcDbEntity
100
AcDbLine
  8
Layer_1
 62
0
370
-1
  6
ByLayer
 10
1.2336480000000001
 20
-8.5648540000000004
 30
0.0
 11
1.2336480000000001
 21
-8.5648540000000004
 31
0.0
  0
LINE
  5
87
100
AcDbEntity
100
AcDbLine
  8
Layer_1
 62
0
370
-1
  6
ByLayer
 10
0.6521479999999999
 20
-8.5465459999999993
 30
0.0
 11
0.628071
 21
-8.5027950000000008
 31
0.0
  0
LINE
  5
88
100
AcDbEntity
100
AcDbLine
  8
Layer_1
 62
0
370
-1
  6
ByLayer
 10
0.628071
 20
-8.5027950000000008
 30
0.0
 11
0.621673
 21
-8.4625240000000002
 31
0.0
  0
LINE
  5
89
100
AcDbEntity
100
AcDbLine
  8
Layer_1
 62
0
370
-1
  6
ByLayer
 10
0.621673
 20
-8.4625240000000002
 30
0.0
 11
0.662961
 21
-8.3758759999999999
 31
0.0
  0
LINE
  5
8A
100
AcDbEntity
100
AcDbLine
  8
Layer_1
 62
0
370
-1
  6
ByLayer
 10
0.662961
 20
-8.3758759999999999
 30
0.0
 11
0.712311
 21
-8.3356980000000007
 31
0.0
  0
LINE
  5
8B
100
AcDbEntity
100
AcDbLine
  8
Layer_1
 62
0
370
-1
  6
ByLayer
 10
0.712311
 20
-8.3356980000000007
 30
0.0
 11
0.771799
 21
-8.3199380000000005
 31
0.0
  0
LINE
  5
8C
100
AcDbEntity
100
AcDbLine
  8
Layer_1
 62
0
370
-1
  6
ByLayer
 10
0.771799
 20
-8.3199380000000005
 30
0.0
 11
0.831786
 21
-8.3291280000000008
 31
0.0
  0
LINE
  5
8D
100
AcDbEntity
100
AcDbLine
  8
Layer_1
 62
0
370
-1
  6
ByLayer
 10
0.831786
 20
-8.3291280000000008
 30
0.0
 11
0.882632
 21
-8.3637960000000007
 31
0.0
  0
LINE
  5
8E
100
AcDbEntity
100
AcDbLine
  8
Layer_1
 62
0
370
-1
  6
ByLayer
 10
0.882632
 20
-8.3637960000000007
 30
0.0
 11
0.9051709999999999
 21
-8.4020480000000006
 31
0.0
  0
LINE
  5
8F
100
AcDbEntity
100
AcDbLine
  8
Layer_1
 62
0
370
-1
  6
ByLayer
 10
0.9051709999999999
 20
-8.4020480000000006
 30
0.0
 11
0.901765
 21
-8.4385519999999996
 31
0.0
  0
LINE
  5
90
100
AcDbEntity
100
AcDbLine
  8
Layer_1
 62
0
370
-1
  6
ByLayer
 10
0.901765
 20
-8.4385519999999996
 30
0.0
 11
0.872312
 21
-8.4735329999999998
 31
0.0
  0
LINE
  5
91
100
AcDbEntity
100
AcDbLine
  8
Layer_1
 62
0
370
-1
  6
ByLayer
 10
0.872312
 20
-8.4735329999999998
 30
0.0
 11
0.816708
 21
-8.5072139999999994
 31
0.0
  0
LINE
  5
92
100
AcDbEntity
100
AcDbLine
  8
Layer_1
 62
0
370
-1
  6
ByLayer
 10
0.816708
 20
-8.5072139999999994
 30
0.0
 11
0.738999
 21
-8.5648540000000004
 31
0.0
  0
LINE
  5
93
100
AcDbEntity
100
AcDbLine
  8
Layer_1
 62
0
370
-1
  6
ByLayer
 10
0.738999
 20
-8.5648540000000004
 30
0.0
 11
0.720573
 21
-8.5865580000000001
 31
0.0
  0
LINE
  5
94
100
AcDbEntity
100
AcDbLine
  8
Layer_1
 62
0
370
-1
  6
ByLayer
 10
0.720573
 20
-8.5865580000000001
 30
0.0
 11
0.700603
 21
-8.590878
 31
0.0
  0
LINE
  5
95
100
AcDbEntity
100
AcDbLine
  8
Layer_1
 62
0
370
-1
  6
ByLayer
 10
0.700603
 20
-8.590878
 30
0.0
 11
0.6521479999999999
 21
-8.5465459999999993
 31
0.0
  0
LINE
  5
96
100
AcDbEntity
100
AcDbLine
  8
Layer_1
 62
0
370
-1
  6
ByLayer
 10
0.6521479999999999
 20
-8.5465459999999993
 30
0.0
 11
0.6521479999999999
 21
-8.5465459999999993
 31
0.0
  0
LINE
  5
97
100
AcDbEntity
100
AcDbLine
  8
Layer_1
 62
0
370
-1
  6
ByLayer
 10
0.9339229999999999
 20
-8.7307349999999992
 30
0.0
 11
0.9581730000000001
 21
-8.6397840000000006
 31
0.0
  0
LINE
  5
98
100
AcDbEntity
100
AcDbLine
  8
Layer_1
 62
0
370
-1
  6
ByLayer
 10
0.9581730000000001
 20
-8.6397840000000006
 30
0.0
 11
0.980078
 21
-8.6072159999999993
 31
0.0
  0
LINE
  5
99
100
AcDbEntity
100
AcDbLine
  8
Layer_1
 62
0
370
-1
  6
ByLayer
 10
0.980078
 20
-8.6072159999999993
 30
0.0
 11
1.0010300000000001
 21
-8.5980319999999999
 31
0.0
  0
LINE
  5
9A
100
AcDbEntity
100
AcDbLine
  8
Layer_1
 62
0
370
-1
  6
ByLayer
 10
1.0010300000000001
 20
-8.5980319999999999
 30
0.0
 11
1.022861
 21
-8.6211760000000002
 31
0.0
  0
LINE
  5
9B
100
AcDbEntity
100
AcDbLine
  8
Layer_1
 62
0
370
-1
  6
ByLayer
 10
1.022861
 20
-8.6211760000000002
 30
0.0
 11
1.040986
 21
-8.664714
 31
0.0
  0
LINE
  5
9C
100
AcDbEntity
100
AcDbLine
  8
Layer_1
 62
0
370
-1
  6
ByLayer
 10
1.040986
 20
-8.664714
 30
0.0
 11
1.045693
 21
-8.745533
 31
0.0
  0
LINE
  5
9D
100
AcDbEntity
100
AcDbLine
  8
Layer_1
 62
0
370
-1
  6
ByLayer
 10
1.045693
 20
-8.745533
 30
0.0
 11
1.031253
 21
-8.7513719999999999
 31
0.0
  0
LINE
  5
9E
100
AcDbEntity
100
AcDbLine
  8
Layer_1
 62
0
370
-1
  6
ByLayer
 10
1.031253
 20
-8.7513719999999999
 30
0.0
 11
1.0135479999999999
 21
-8.7368480000000002
 31
0.0
  0
LINE
  5
9F
100
AcDbEntity
100
AcDbLine
  8
Layer_1
 62
0
370
-1
  6
ByLayer
 10
1.0135479999999999
 20
-8.7368480000000002
 30
0.0
 11
0.995552
 21
-8.7197990000000001
 31
0.0
  0
LINE
  5
A0
100
AcDbEntity
100
AcDbLine
  8
Layer_1
 62
0
370
-1
  6
ByLayer
 10
0.995552
 20
-8.7197990000000001
 30
0.0
 11
0.982981
 21
-8.7346109999999992
 31
0.0
  0
LINE
  5
A1
100
AcDbEntity
100
AcDbLine
  8
Layer_1
 62
0
370
-1
  6
ByLayer
 10
0.982981
 20
-8.7346109999999992
 30
0.0
 11
0.952997
 21
-8.7599889999999991
 31
0.0
  0
LINE
  5
A2
100
AcDbEntity
100
AcDbLine
  8
Layer_1
 62
0
370
-1
  6
ByLayer
 10
0.952997
 20
-8.7599889999999991
 30
0.0
 11
0.939543
 21
-8.751989
 31
0.0
  0
LINE
  5
A3
100
AcDbEntity
100
AcDbLine
  8
Layer_1
 62
0
370
-1
  6
ByLayer
 10
0.939543
 20
-8.751989
 30
0.0
 11
0.9339229999999999
 21
-8.7307349999999992
 31
0.0
  0
LINE
  5
A4
100
AcDbEntity
100
AcDbLine
  8
Layer_1
 62
0
370
-1
  6
ByLayer
 10
0.9339229999999999
 20
-8.7307349999999992
 30
0.0
 11
0.9339229999999999
 21
-8.7307349999999992
 31
0.0
  0
LINE
  5
A5
100
AcDbEntity
100
AcDbLine
  8
Layer_1
 62
0
370
-1
  6
ByLayer
 10
0.892002
 20
-8.8825749999999992
 30
0.0
 11
0.910841
 21
-8.8512000000000004
 31
0.0
  0
LINE
  5
A6
100
AcDbEntity
100
AcDbLine
  8
Layer_1
 62
0
370
-1
  6
ByLayer
 10
0.910841
 20
-8.8512000000000004
 30
0.0
 11
0.923089
 21
-8.8568739999999995
 31
0.0
  0
LINE
  5
A7
100
AcDbEntity
100
AcDbLine
  8
Layer_1
 62
0
370
-1
  6
ByLayer
 10
0.923089
 20
-8.8568739999999995
 30
0.0
 11
0.927179
 21
-8.8802830000000004
 31
0.0
  0
LINE
  5
A8
100
AcDbEntity
100
AcDbLine
  8
Layer_1
 62
0
370
-1
  6
ByLayer
 10
0.927179
 20
-8.8802830000000004
 30
0.0
 11
0.935476
 21
-8.9394650000000002
 31
0.0
  0
LINE
  5
A9
100
AcDbEntity
100
AcDbLine
  8
Layer_1
 62
0
370
-1
  6
ByLayer
 10
0.935476
 20
-8.9394650000000002
 30
0.0
 11
0.959627
 21
-8.9671420000000008
 31
0.0
  0
LINE
  5
AA
100
AcDbEntity
100
AcDbLine
  8
Layer_1
 62
0
370
-1
  6
ByLayer
 10
0.959627
 20
-8.9671420000000008
 30
0.0
 11
1.0072840000000001
 21
-8.9799249999999997
 31
0.0
  0
LINE
  5
AB
100
AcDbEntity
100
AcDbLine
  8
Layer_1
 62
0
370
-1
  6
ByLayer
 10
1.0072840000000001
 20
-8.9799249999999997
 30
0.0
 11
1.053828
 21
-8.9714310000000008
 31
0.0
  0
LINE
  5
AC
100
AcDbEntity
100
AcDbLine
  8
Layer_1
 62
0
370
-1
  6
ByLayer
 10
1.053828
 20
-8.9714310000000008
 30
0.0
 11
1.075707
 21
-8.9480819999999994
 31
0.0
  0
LINE
  5
AD
100
AcDbEntity
100
AcDbLine
  8
Layer_1
 62
0
370
-1
  6
ByLayer
 10
1.075707
 20
-8.9480819999999994
 30
0.0
 11
1.0823910000000001
 21
-8.8927779999999998
 31
0.0
  0
LINE
  5
AE
100
AcDbEntity
100
AcDbLine
  8
Layer_1
 62
0
370
-1
  6
ByLayer
 10
1.0823910000000001
 20
-8.8927779999999998
 30
0.0
 11
1.088506
 21
-8.8635839999999995
 31
0.0
  0
LINE
  5
AF
100
AcDbEntity
100
AcDbLine
  8
Layer_1
 62
0
370
-1
  6
ByLayer
 10
1.088506
 20
-8.8635839999999995
 30
0.0
 11
1.101431
 21
-8.8563179999999999
 31
0.0
  0
LINE
  5
B0
100
AcDbEntity
100
AcDbLine
  8
Layer_1
 62
0
370
-1
  6
ByLayer
 10
1.101431
 20
-8.8563179999999999
 30
0.0
 11
1.120066
 21
-8.8944840000000003
 31
0.0
  0
LINE
  5
B1
100
AcDbEntity
100
AcDbLine
  8
Layer_1
 62
0
370
-1
  6
ByLayer
 10
1.120066
 20
-8.8944840000000003
 30
0.0
 11
1.144053
 21
-8.9529189999999996
 31
0.0
  0
LINE
  5
B2
100
AcDbEntity
100
AcDbLine
  8
Layer_1
 62
0
370
-1
  6
ByLayer
 10
1.144053
 20
-8.9529189999999996
 30
0.0
 11
1.2113659999999999
 21
-8.9777439999999995
 31
0.0
  0
LINE
  5
B3
100
AcDbEntity
100
AcDbLine
  8
Layer_1
 62
0
370
-1
  6
ByLayer
 10
1.2113659999999999
 20
-8.9777439999999995
 30
0.0
 11
1.2447859999999999
 21
-8.9694660000000006
 31
0.0
  0
LINE
  5
B4
100
AcDbEntity
100
AcDbLine
  8
Layer_1
 62
0
370
-1
  6
ByLayer
 10
1.2447859999999999
 20
-8.9694660000000006
 30
0.0
 11
1.261989
 21
-8.9475960000000008
 31
0.0
  0
LINE
  5
B5
100
AcDbEntity
100
AcDbLine
  8
Layer_1
 62
0
370
-1
  6
ByLayer
 10
1.261989
 20
-8.9475960000000008
 30
0.0
 11
1.2692870000000001
 21
-8.8829440000000002
 31
0.0
  0
LINE
  5
B6
100
AcDbEntity
100
AcDbLine
  8
Layer_1
 62
0
370
-1
  6
ByLayer
 10
1.2692870000000001
 20
-8.8829440000000002
 30
0.0
 11
1.2845230000000001
 21
-8.8186520000000002
 31
0.0
  0
LINE
  5
B7
100
AcDbEntity
100
AcDbLine
  8
Layer_1
 62
0
370
-1
  6
ByLayer
 10
1.2845230000000001
 20
-8.8186520000000002
 30
0.0
 11
1.324864
 21
-8.7533560000000001
 31
0.0
  0
LINE
  5
B8
100
AcDbEntity
100
AcDbLine
  8
Layer_1
 62
0
370
-1
  6
ByLayer
 10
1.324864
 20
-8.7533560000000001
 30
0.0
 11
1.376757
 21
-8.6814490000000006
 31
0.0
  0
LINE
  5
B9
100
AcDbEntity
100
AcDbLine
  8
Layer_1
 62
0
370
-1
  6
ByLayer
 10
1.376757
 20
-8.6814490000000006
 30
0.0
 11
1.411473
 21
-8.6070060000000002
 31
0.0
  0
LINE
  5
BA
100
AcDbEntity
100
AcDbLine
  8
Layer_1
 62
0
370
-1
  6
ByLayer
 10
1.411473
 20
-8.6070060000000002
 30
0.0
 11
1.430912
 21
-8.5245280000000001
 31
0.0
  0
LINE
  5
BB
100
AcDbEntity
100
AcDbLine
  8
Layer_1
 62
0
370
-1
  6
ByLayer
 10
1.430912
 20
-8.5245280000000001
 30
0.0
 11
1.4369689999999999
 21
-8.4285150000000009
 31
0.0
  0
LINE
  5
BC
100
AcDbEntity
100
AcDbLine
  8
Layer_1
 62
0
370
-1
  6
ByLayer
 10
1.4369689999999999
 20
-8.4285150000000009
 30
0.0
 11
1.4216740000000001
 21
-8.2991170000000007
 31
0.0
  0
LINE
  5
BD
100
AcDbEntity
100
AcDbLine
  8
Layer_1
 62
0
370
-1
  6
ByLayer
 10
1.4216740000000001
 20
-8.2991170000000007
 30
0.0
 11
1.3786579999999999
 21
-8.185454
 31
0.0
  0
LINE
  5
BE
100
AcDbEntity
100
AcDbLine
  8
Layer_1
 62
0
370
-1
  6
ByLayer
 10
1.3786579999999999
 20
-8.185454
 30
0.0
 11
1.3122259999999999
 21
-8.0903770000000002
 31
0.0
  0
LINE
  5
BF
100
AcDbEntity
100
AcDbLine
  8
Layer_1
 62
0
370
-1
  6
ByLayer
 10
1.3122259999999999
 20
-8.0903770000000002
 30
0.0
 11
1.2266840000000001
 21
-8.0167330000000003
 31
0.0
  0
LINE
  5
C0
100
AcDbEntity
100
AcDbLine
  8
Layer_1
 62
0
370
-1
  6
ByLayer
 10
1.2266840000000001
 20
-8.0167330000000003
 30
0.0
 11
1.1263380000000001
 21
-7.9673730000000003
 31
0.0
  0
LINE
  5
C1
100
AcDbEntity
100
AcDbLine
  8
Layer_1
 62
0
370
-1
  6
ByLayer
 10
1.1263380000000001
 20
-7.9673730000000003
 30
0.0
 11
1.0154920000000001
 21
-7.945144
 31
0.0
  0
LINE
  5
C2
100
AcDbEntity
100
AcDbLine
  8
Layer_1
 62
0
370
-1
  6
ByLayer
 10
1.0154920000000001
 20
-7.945144
 30
0.0
 11
0.898452
 21
-7.952896
 31
0.0
  0
LINE
  5
C3
100
AcDbEntity
100
AcDbLine
  8
Layer_1
 62
0
370
-1
  6
ByLayer
 10
0.898452
 20
-7.952896
 30
0.0
 11
0.779523
 21
-7.9934770000000004
 31
0.0
  0
LINE
  5
C4
100
AcDbEntity
100
AcDbLine
  8
Layer_1
 62
0
370
-1
  6
ByLayer
 10
0.779523
 20
-7.9934770000000004
 30
0.0
 11
0.681073
 21
-8.0590899999999994
 31
0.0
  0
LINE
  5
C5
100
AcDbEntity
100
AcDbLine
  8
Layer_1
 62
0
370
-1
  6
ByLayer
 10
0.681073
 20
-8.0590899999999994
 30
0.0
 11
0.605299
 21
-8.1450759999999995
 31
0.0
  0
LINE
  5
C6
100
AcDbEntity
100
AcDbLine
  8
Layer_1
 62
0
370
-1
  6
ByLayer
 10
0.605299
 20
-8.1450759999999995
 30
0.0
 11
0.55297
 21
-8.2459229999999994
 31
0.0
  0
LINE
  5
C7
100
AcDbEntity
100
AcDbLine
  8
Layer_1
 62
0
370
-1
  6
ByLayer
 10
0.55297
 20
-8.2459229999999994
 30
0.0
 11
0.524854
 21
-8.3561209999999999
 31
0.0
  0
LINE
  5
C8
100
AcDbEntity
100
AcDbLine
  8
Layer_1
 62
0
370
-1
  6
ByLayer
 10
0.524854
 20
-8.3561209999999999
 30
0.0
 11
0.521719
 21
-8.4701570000000004
 31
0.0
  0
LINE
  5
C9
100
AcDbEntity
100
AcDbLine
  8
Layer_1
 62
0
370
-1
  6
ByLayer
 10
0.521719
 20
-8.4701570000000004
 30
0.0
 11
0.544332
 21
-8.5825209999999998
 31
0.0
  0
LINE
  5
CA
100
AcDbEntity
100
AcDbLine
  8
Layer_1
 62
0
370
-1
  6
ByLayer
 10
0.544332
 20
-8.5825209999999998
 30
0.0
 11
0.593463
 21
-8.6876999999999995
 31
0.0
  0
LINE
  5
CB
100
AcDbEntity
100
AcDbLine
  8
Layer_1
 62
0
370
-1
  6
ByLayer
 10
0.593463
 20
-8.6876999999999995
 30
0.0
 11
0.66988
 21
-8.7801840000000002
 31
0.0
  0
LINE
  5
CC
100
AcDbEntity
100
AcDbLine
  8
Layer_1
 62
0
370
-1
  6
ByLayer
 10
0.66988
 20
-8.7801840000000002
 30
0.0
 11
0.708328
 21
-8.8291590000000006
 31
0.0
  0
LINE
  5
CD
100
AcDbEntity
100
AcDbLine
  8
Layer_1
 62
0
370
-1
  6
ByLayer
 10
0.708328
 20
-8.8291590000000006
 30
0.0
 11
0.72432
 21
-8.8755520000000008
 31
0.0
  0
LINE
  5
CE
100
AcDbEntity
100
AcDbLine
  8
Layer_1
 62
0
370
-1
  6
ByLayer
 10
0.72432
 20
-8.8755520000000008
 30
0.0
 11
0.742382
 21
-8.9571450000000006
 31
0.0
  0
LINE
  5
CF
100
AcDbEntity
100
AcDbLine
  8
Layer_1
 62
0
370
-1
  6
ByLayer
 10
0.742382
 20
-8.9571450000000006
 30
0.0
 11
0.767972
 21
-8.9733909999999995
 31
0.0
  0
LINE
  5
D0
100
AcDbEntity
100
AcDbLine
  8
Layer_1
 62
0
370
-1
  6
ByLayer
 10
0.767972
 20
-8.9733909999999995
 30
0.0
 11
0.80886
 21
-8.9784520000000008
 31
0.0
  0
LINE
  5
D1
100
AcDbEntity
100
AcDbLine
  8
Layer_1
 62
0
370
-1
  6
ByLayer
 10
0.80886
 20
-8.9784520000000008
 30
0.0
 11
0.847579
 21
-8.9695420000000006
 31
0.0
  0
LINE
  5
D2
100
AcDbEntity
100
AcDbLine
  8
Layer_1
 62
0
370
-1
  6
ByLayer
 10
0.847579
 20
-8.9695420000000006
 30
0.0
 11
0.869439
 21
-8.9459359999999997
 31
0.0
  0
LINE
  5
D3
100
AcDbEntity
100
AcDbLine
  8
Layer_1
 62
0
370
-1
  6
ByLayer
 10
0.869439
 20
-8.9459359999999997
 30
0.0
 11
0.892002
 21
-8.882574
 31
0.0
  0
LINE
  5
D4
100
AcDbEntity
100
AcDbLine
  8
Layer_1
 62
0
370
-1
  6
ByLayer
 10
0.892002
 20
-8.882574
 30
0.0
 11
0.892002
 21
-8.8825749999999992
 31
0.0
  0
LINE
  5
D5
100
AcDbEntity
100
AcDbLine
  8
Layer_1
 62
0
370
-1
  6
ByLayer
 10
1.7228079999999999
 20
-9.1957330000000006
 30
0.0
 11
1.645337
 21
-9.1276119999999992
 31
0.0
  0
LINE
  5
D6
100
AcDbEntity
100
AcDbLine
  8
Layer_1
 62
0
370
-1
  6
ByLayer
 10
1.645337
 20
-9.1276119999999992
 30
0.0
 11
1.7314259999999999
 21
-9.0280520000000006
 31
0.0
  0
LINE
  5
D7
100
AcDbEntity
100
AcDbLine
  8
Layer_1
 62
0
370
-1
  6
ByLayer
 10
1.7314259999999999
 20
-9.0280520000000006
 30
0.0
 11
1.840938
 21
-8.9284920000000003
 31
0.0
  0
LINE
  5
D8
100
AcDbEntity
100
AcDbLine
  8
Layer_1
 62
0
370
-1
  6
ByLayer
 10
1.840938
 20
-8.9284920000000003
 30
0.0
 11
1.92293
 21
-8.9846039999999991
 31
0.0
  0
LINE
  5
D9
100
AcDbEntity
100
AcDbLine
  8
Layer_1
 62
0
370
-1
  6
ByLayer
 10
1.92293
 20
-8.9846039999999991
 30
0.0
 11
1.9669410000000001
 21
-9.0198909999999994
 31
0.0
  0
LINE
  5
DA
100
AcDbEntity
100
AcDbLine
  8
Layer_1
 62
0
370
-1
  6
ByLayer
 10
1.9669410000000001
 20
-9.0198909999999994
 30
0.0
 11
1.9924599999999999
 21
-9.0252479999999995
 31
0.0
  0
LINE
  5
DB
100
AcDbEntity
100
AcDbLine
  8
Layer_1
 62
0
370
-1
  6
ByLayer
 10
1.9924599999999999
 20
-9.0252479999999995
 30
0.0
 11
1.9979899999999999
 21
-9.0015560000000008
 31
0.0
  0
LINE
  5
DC
100
AcDbEntity
100
AcDbLine
  8
Layer_1
 62
0
370
-1
  6
ByLayer
 10
1.9979899999999999
 20
-9.0015560000000008
 30
0.0
 11
1.9820390000000001
 21
-8.9496990000000007
 31
0.0
  0
LINE
  5
DD
100
AcDbEntity
100
AcDbLine
  8
Layer_1
 62
0
370
-1
  6
ByLayer
 10
1.9820390000000001
 20
-8.9496990000000007
 30
0.0
 11
1.941538
 21
-8.8807480000000005
 31
0.0
  0
LINE
  5
DE
100
AcDbEntity
100
AcDbLine
  8
Layer_1
 62
0
370
-1
  6
ByLayer
 10
1.941538
 20
-8.8807480000000005
 30
0.0
 11
1.8857699999999999
 21
-8.8277680000000007
 31
0.0
  0
LINE
  5
DF
100
AcDbEntity
100
AcDbLine
  8
Layer_1
 62
0
370
-1
  6
ByLayer
 10
1.8857699999999999
 20
-8.8277680000000007
 30
0.0
 11
1.8189789999999999
 21
-8.7937720000000006
 31
0.0
  0
LINE
  5
E0
100
AcDbEntity
100
AcDbLine
  8
Layer_1
 62
0
370
-1
  6
ByLayer
 10
1.8189789999999999
 20
-8.7937720000000006
 30
0.0
 11
1.745409
 21
-8.7817710000000009
 31
0.0
  0
LINE
  5
E1
100
AcDbEntity
100
AcDbLine
  8
Layer_1
 62
0
370
-1
  6
ByLayer
 10
1.745409
 20
-8.7817710000000009
 30
0.0
 11
1.659673
 21
-8.7668060000000008
 31
0.0
  0
LINE
  5
E2
100
AcDbEntity
100
AcDbLine
  8
Layer_1
 62
0
370
-1
  6
ByLayer
 10
1.659673
 20
-8.7668060000000008
 30
0.0
 11
1.5767150000000001
 21
-8.7031709999999993
 31
0.0
  0
LINE
  5
E3
100
AcDbEntity
100
AcDbLine
  8
Layer_1
 62
0
370
-1
  6
ByLayer
 10
1.5767150000000001
 20
-8.7031709999999993
 30
0.0
 11
1.514702
 21
-8.65306
 31
0.0
  0
LINE
  5
E4
100
AcDbEntity
100
AcDbLine
  8
Layer_1
 62
0
370
-1
  6
ByLayer
 10
1.514702
 20
-8.65306
 30
0.0
 11
1.4854560000000001
 21
-8.6494110000000006
 31
0.0
  0
LINE
  5
E5
100
AcDbEntity
100
AcDbLine
  8
Layer_1
 62
0
370
-1
  6
ByLayer
 10
1.4854560000000001
 20
-8.6494110000000006
 30
0.0
 11
1.416388
 21
-8.7569619999999997
 31
0.0
  0
LINE
  5
E6
100
AcDbEntity
100
AcDbLine
  8
Layer_1
 62
0
370
-1
  6
ByLayer
 10
1.416388
 20
-8.7569619999999997
 30
0.0
 11
1.356473
 21
-8.8396709999999992
 31
0.0
  0
LINE
  5
E7
100
AcDbEntity
100
AcDbLine
  8
Layer_1
 62
0
370
-1
  6
ByLayer
 10
1.356473
 20
-8.8396709999999992
 30
0.0
 11
1.4281619999999999
 21
-8.9091529999999999
 31
0.0
  0
LINE
  5
E8
100
AcDbEntity
100
AcDbLine
  8
Layer_1
 62
0
370
-1
  6
ByLayer
 10
1.4281619999999999
 20
-8.9091529999999999
 30
0.0
 11
1.4787920000000001
 21
-8.9684120000000007
 31
0.0
  0
LINE
  5
E9
100
AcDbEntity
100
AcDbLine
  8
Layer_1
 62
0
370
-1
  6
ByLayer
 10
1.4787920000000001
 20
-8.9684120000000007
 30
0.0
 11
1.4998499999999999
 21
-9.0133159999999997
 31
0.0
  0
LINE
  5
EA
100
AcDbEntity
100
AcDbLine
  8
Layer_1
 62
0
370
-1
  6
ByLayer
 10
1.4998499999999999
 20
-9.0133159999999997
 30
0.0
 11
1.5197000000000001
 21
-9.1074339999999996
 31
0.0
  0
LINE
  5
EB
100
AcDbEntity
100
AcDbLine
  8
Layer_1
 62
0
370
-1
  6
ByLayer
 10
1.5197000000000001
 20
-9.1074339999999996
 30
0.0
 11
1.5727249999999999
 21
-9.1873799999999992
 31
0.0
  0
LINE
  5
EC
100
AcDbEntity
100
AcDbLine
  8
Layer_1
 62
0
370
-1
  6
ByLayer
 10
1.5727249999999999
 20
-9.1873799999999992
 30
0.0
 11
1.6491359999999999
 21
-9.2429089999999992
 31
0.0
  0
LINE
  5
ED
100
AcDbEntity
100
AcDbLine
  8
Layer_1
 62
0
370
-1
  6
ByLayer
 10
1.6491359999999999
 20
-9.2429089999999992
 30
0.0
 11
1.7391449999999999
 21
-9.2637750000000008
 31
0.0
  0
LINE
  5
EE
100
AcDbEntity
100
AcDbLine
  8
Layer_1
 62
0
370
-1
  6
ByLayer
 10
1.7391449999999999
 20
-9.2637750000000008
 30
0.0
 11
1.800278
 21
-9.2638859999999994
 31
0.0
  0
LINE
  5
EF
100
AcDbEntity
100
AcDbLine
  8
Layer_1
 62
0
370
-1
  6
ByLayer
 10
1.800278
 20
-9.2638859999999994
 30
0.0
 11
1.7228079999999999
 21
-9.1957649999999997
 31
0.0
  0
LINE
  5
F0
100
AcDbEntity
100
AcDbLine
  8
Layer_1
 62
0
370
-1
  6
ByLayer
 10
1.7228079999999999
 20
-9.1957649999999997
 30
0.0
 11
1.7228079999999999
 21
-9.1957330000000006
 31
0.0
  0
LINE
  5
F1
100
AcDbEntity
100
AcDbLine
  8
Layer_1
 62
0
370
-1
  6
ByLayer
 10
0.368682
 20
-9.2320580000000003
 30
0.0
 11
0.416643
 21
-9.1962030000000006
 31
0.0
  0
LINE
  5
F2
100
AcDbEntity
100
AcDbLine
  8
Layer_1
 62
0
370
-1
  6
ByLayer
 10
0.416643
 20
-9.1962030000000006
 30
0.0
 11
0.45648
 21
-9.1457390000000007
 31
0.0
  0
LINE
  5
F3
100
AcDbEntity
100
AcDbLine
  8
Layer_1
 62
0
370
-1
  6
ByLayer
 10
0.45648
 20
-9.1457390000000007
 30
0.0
 11
0.483687
 21
-9.0879429999999992
 31
0.0
  0
LINE
  5
F4
100
AcDbEntity
100
AcDbLine
  8
Layer_1
 62
0
370
-1
  6
ByLayer
 10
0.483687
 20
-9.0879429999999992
 30
0.0
 11
0.493757
 21
-9.0300910000000005
 31
0.0
  0
LINE
  5
F5
100
AcDbEntity
100
AcDbLine
  8
Layer_1
 62
0
370
-1
  6
ByLayer
 10
0.493757
 20
-9.0300910000000005
 30
0.0
 11
0.513083
 21
-8.9768139999999992
 31
0.0
  0
LINE
  5
F6
100
AcDbEntity
100
AcDbLine
  8
Layer_1
 62
0
370
-1
  6
ByLayer
 10
0.513083
 20
-8.9768139999999992
 30
0.0
 11
0.559546
 21
-8.9150109999999998
 31
0.0
  0
LINE
  5
F7
100
AcDbEntity
100
AcDbLine
  8
Layer_1
 62
0
370
-1
  6
ByLayer
 10
0.559546
 20
-8.9150109999999998
 30
0.0
 11
0.625335
 21
-8.8471349999999997
 31
0.0
  0
LINE
  5
F8
100
AcDbEntity
100
AcDbLine
  8
Layer_1
 62
0
370
-1
  6
ByLayer
 10
0.625335
 20
-8.8471349999999997
 30
0.0
 11
0.5752660000000001
 21
-8.7858210000000003
 31
0.0
  0
LINE
  5
F9
100
AcDbEntity
100
AcDbLine
  8
Layer_1
 62
0
370
-1
  6
ByLayer
 10
0.5752660000000001
 20
-8.7858210000000003
 30
0.0
 11
0.50123
 21
-8.6850179999999995
 31
0.0
  0
LINE
  5
FA
100
AcDbEntity
100
AcDbLine
  8
Layer_1
 62
0
370
-1
  6
ByLayer
 10
0.50123
 20
-8.6850179999999995
 30
0.0
 11
0.486286
 21
-8.6645990000000008
 31
0.0
  0
LINE
  5
FB
100
AcDbEntity
100
AcDbLine
  8
Layer_1
 62
0
370
-1
  6
ByLayer
 10
0.486286
 20
-8.6645990000000008
 30
0.0
 11
0.470533
 21
-8.6607760000000003
 31
0.0
  0
LINE
  5
FC
100
AcDbEntity
100
AcDbLine
  8
Layer_1
 62
0
370
-1
  6
ByLayer
 10
0.470533
 20
-8.6607760000000003
 30
0.0
 11
0.406908
 21
-8.7111389999999993
 31
0.0
  0
LINE
  5
FD
100
AcDbEntity
100
AcDbLine
  8
Layer_1
 62
0
370
-1
  6
ByLayer
 10
0.406908
 20
-8.7111389999999993
 30
0.0
 11
0.329608
 21
-8.7647049999999993
 31
0.0
  0
LINE
  5
FE
100
AcDbEntity
100
AcDbLine
  8
Layer_1
 62
0
370
-1
  6
ByLayer
 10
0.329608
 20
-8.7647049999999993
 30
0.0
 11
0.234527
 21
-8.7874440000000007
 31
0.0
  0
LINE
  5
FF
100
AcDbEntity
100
AcDbLine
  8
Layer_1
 62
0
370
-1
  6
ByLayer
 10
0.234527
 20
-8.7874440000000007
 30
0.0
 11
0.154875
 21
-8.8055090000000007
 31
0.0
  0
LINE
  5
100
100
AcDbEntity
100
AcDbLine
  8
Layer_1
 62
0
370
-1
  6
ByLayer
 10
0.154875
 20
-8.8055090000000007
 30
0.0
 11
0.091362
 21
-8.8412869999999995
 31
0.0
  0
LINE
  5
101
100
AcDbEntity
100
AcDbLine
  8
Layer_1
 62
0
370
-1
  6
ByLayer
 10
0.091362
 20
-8.8412869999999995
 30
0.0
 11
0.044049
 21
-8.8947280000000006
 31
0.0
  0
LINE
  5
102
100
AcDbEntity
100
AcDbLine
  8
Layer_1
 62
0
370
-1
  6
ByLayer
 10
0.044049
 20
-8.8947280000000006
 30
0.0
 11
0.012998
 21
-8.9657839999999993
 31
0.0
  0
LINE
  5
103
100
AcDbEntity
100
AcDbLine
  8
Layer_1
 62
0
370
-1
  6
ByLayer
 10
0.012998
 20
-8.9657839999999993
 30
0.0
 11
0.003493
 21
-9.0122579999999992
 31
0.0
  0
LINE
  5
104
100
AcDbEntity
100
AcDbLine
  8
Layer_1
 62
0
370
-1
  6
ByLayer
 10
0.003493
 20
-9.0122579999999992
 30
0.0
 11
0.010217
 21
-9.0301770000000001
 31
0.0
  0
LINE
  5
105
100
AcDbEntity
100
AcDbLine
  8
Layer_1
 62
0
370
-1
  6
ByLayer
 10
0.010217
 20
-9.0301770000000001
 30
0.0
 11
0.074552
 21
-8.9808920000000008
 31
0.0
  0
LINE
  5
106
100
AcDbEntity
100
AcDbLine
  8
Layer_1
 62
0
370
-1
  6
ByLayer
 10
0.074552
 20
-8.9808920000000008
 30
0.0
 11
0.149785
 21
-8.9284920000000003
 31
0.0
  0
LINE
  5
107
100
AcDbEntity
100
AcDbLine
  8
Layer_1
 62
0
370
-1
  6
ByLayer
 10
0.149785
 20
-8.9284920000000003
 30
0.0
 11
0.2634
 21
-9.0280210000000007
 31
0.0
  0
LINE
  5
108
100
AcDbEntity
100
AcDbLine
  8
Layer_1
 62
0
370
-1
  6
ByLayer
 10
0.2634
 20
-9.0280210000000007
 30
0.0
 11
0.35101
 21
-9.1275490000000001
 31
0.0
  0
LINE
  5
109
100
AcDbEntity
100
AcDbLine
  8
Layer_1
 62
0
370
-1
  6
ByLayer
 10
0.35101
 20
-9.1275490000000001
 30
0.0
 11
0.272169
 21
-9.1957020000000007
 31
0.0
  0
LINE
  5
10A
100
AcDbEntity
100
AcDbLine
  8
Layer_1
 62
0
370
-1
  6
ByLayer
 10
0.272169
 20
-9.1957020000000007
 30
0.0
 11
0.193329
 21
-9.2638529999999992
 31
0.0
  0
LINE
  5
10B
100
AcDbEntity
100
AcDbLine
  8
Layer_1
 62
0
370
-1
  6
ByLayer
 10
0.193329
 20
-9.2638529999999992
 30
0.0
 11
0.250263
 21
-9.2638529999999992
 31
0.0
  0
LINE
  5
10C
100
AcDbEntity
100
AcDbLine
  8
Layer_1
 62
0
370
-1
  6
ByLayer
 10
0.250263
 20
-9.2638529999999992
 30
0.0
 11
0.368682
 21
-9.2320580000000003
 31
0.0
  0
LINE
  5
10D
100
AcDbEntity
100
AcDbLine
  8
Layer_1
 62
0
370
-1
  6
ByLayer
 10
0.368682
 20
-9.2320580000000003
 30
0.0
 11
0.368682
 21
-9.2320580000000003
 31
0.0
  0
ENDSEC
  0
SECTION
  2
OBJECTS
  0
DICTIONARY
  5
C
100
AcDbDictionary
280
0
281
1
  3
ACAD_GROUP
350
D
  3
ACAD_LAYOUT
350
1A
  3
ACAD_MLINESTYLE
350
17
  3
ACAD_PLOTSETTINGS
350
19
  3
ACAD_PLOTSTYLENAME
350
E
  3
AcDbVariableDictionary
350
10E
  0
DICTIONARY
  5
D
100
AcDbDictionary
280
0
281
1
  0
ACDBDICTIONARYWDFLT
  5
E
100
AcDbDictionary
281
1
  3
Normal
350
F
100
AcDbDictionaryWithDefault
340
F
  0
ACDBPLACEHOLDER
  5
F
  0
DICTIONARY
  5
17
100
AcDbDictionary
280
0
281
1
  3
Standard
350
18
  0
MLINESTYLE
  5
18
100
AcDbMlineStyle
  2
STANDARD
 70
0
  3

 62
256
 51
90.0
 52
90.0
 71
2
 49
0.5
 62
256
  6
BYLAYER
 49
-0.5
 62
256
  6
BYLAYER
  0
DICTIONARY
  5
19
100
AcDbDictionary
280
0
281
1
  0
DICTIONARY
  5
1A
100
AcDbDictionary
281
1
  3
Layout1
350
1E
  3
Layout2
350
26
  3
Model
350
22
  0
LAYOUT
  5
1E
100
AcDbPlotSettings
  1

  2
C:\Program Files\AutoCAD 2002\plotters\DWF ePlot (optimized for plotting).pc3
  4

  6

 40
0.0
 41
0.0
 42
0.0
 43
0.0
 44
0.0
 45
0.0
 46
0.0
 47
0.0
 48
0.0
 49
0.0
140
0.0
141
0.0
142
1.0
143
1.0
 70
688
 72
0
 73
0
 74
5
  7

 75
16
147
1.0
148
0.0
149
0.0
100
AcDbLayout
  1
Layout1
 70
1
 71
1
 10
0.0
 20
0.0
 11
420.0
 21
297.0
 12
0.0
 22
0.0
 32
0.0
 14
100000000000000000000.0
 24
100000000000000000000.0
 34
100000000000000000000.0
 15
-100000000000000000000.0
 25
-100000000000000000000.0
 35
-100000000000000000000.0
146
0.0
 13
0.0
 23
0.0
 33
0.0
 16
1.0
 26
0.0
 36
0.0
 17
0.0
 27
1.0
 37
0.0
 76
0
330
1B
  0
LAYOUT
  5
22
100
AcDbPlotSettings
  1

  2
C:\Program Files\AutoCAD 2002\plotters\DWF ePlot (optimized for plotting).pc3
  4

  6

 40
0.0
 41
0.0
 42
0.0
 43
0.0
 44
0.0
 45
0.0
 46
0.0
 47
0.0
 48
0.0
 49
0.0
140
0.0
141
0.0
142
1.0
143
1.0
 70
1712
 72
0
 73
0
 74
0
  7

 75
0
147
1.0
148
0.0
149
0.0
100
AcDbLayout
  1
Model
 70
1
 71
0
 10
0.0
 20
0.0
 11
12.0
 21
9.0
 12
0.0
 22
0.0
 32
0.0
 14
0.0
 24
0.0
 34
0.0
 15
0.0
 25
0.0
 35
0.0
146
0.0
 13
0.0
 23
0.0
 33
0.0
 16
1.0
 26
0.0
 36
0.0
 17
0.0
 27
1.0
 37
0.0
 76
0
330
1F
  0
LAYOUT
  5
26
100
AcDbPlotSettings
  1

  2
C:\Program Files\AutoCAD 2002\plotters\DWF ePlot (optimized for plotting).pc3
  4

  6

 40
0.0
 41
0.0
 42
0.0
 43
0.0
 44
0.0
 45
0.0
 46
0.0
 47
0.0
 48
0.0
 49
0.0
140
0.0
141
0.0
142
1.0
143
1.0
 70
688
 72
0
 73
0
 74
5
  7

 75
16
147
1.0
148
0.0
149
0.0
100
AcDbLayout
  1
Layout2
 70
1
 71
2
 10
0.0
 20
0.0
 11
12.0
 21
9.0
 12
0.0
 22
0.0
 32
0.0
 14
0.0
 24
0.0
 34
0.0
 15
0.0
 25
0.0
 35
0.0
146
0.0
 13
0.0
 23
0.0
 33
0.0
 16
1.0
 26
0.0
 36
0.0
 17
0.0
 27
1.0
 37
0.0
 76
0
330
23
  0
DICTIONARY
  5
10E
100
AcDbDictionary
281
1
  3
DIMASSOC
350
110
  3
HIDETEXT
350
10F
  0
DICTIONARYVAR
  5
10F
100
DictionaryVariables
280
0
  1
2
  0
DICTIONARYVAR
  5
110
100
DictionaryVariables
280
0
  1
1
  0
ENDSEC
  0
EOF
