  0
SECTION
  2
HEADER
  9
$ACADVER
  1
AC1009
  9
$EXTMIN
 10
0.0
 20
0.0
 30
0.0
  9
$EXTMAX
 10
1000.0
 20
1000.0
 30
0.0
  9
$FILLMODE
 70
 0
  9
$SPLFRAME
 70
 1
  0
ENDSEC
  0
SECTION
  2
TABLES
  0
TABLE
  2
LAYER
 70
1
  0
LAYER
  2
0
 70
     0
 62
     7
  6
CONTINUOUS
  0
ENDTAB
  0
ENDSEC
  0
SECTION
  2
ENTITIES
  0
POLYLINE
  8
0
 62
     0
 66
     1
 10
0
 20
0
 30
0.0
 70
     1
 40
0
 41
0
  0
VERTEX
  8
0
 10
0.585938
 20
1.16922
 30
0.0
 40
0
 41
0
  0
VERTEX
  8
0
 10
0.669108
 20
1.25239
 30
0.0
 40
0
 41
0
  0
VERTEX
  8
0
 10
0.571886
 20
1.34174
 30
0.0
 40
0
 41
0
  0
VERTEX
  8
0
 10
0.524631
 20
1.38835
 30
0.0
 40
0
 41
0
  0
VERTEX
  8
0
 10
0.492676
 20
1.42854
 30
0.0
 40
0
 41
0
  0
VERTEX
  8
0
 10
0.472819
 20
1.46696
 30
0.0
 40
0
 41
0
  0
VERTEX
  8
0
 10
0.462131
 20
1.50819
 30
0.0
 40
0
 41
0
  0
VERTEX
  8
0
 10
0.437879
 20
1.5804
 30
0.0
 40
0
 41
0
  0
VERTEX
  8
0
 10
0.393121
 20
1.64068
 30
0.0
 40
0
 41
0
  0
VERTEX
  8
0
 10
0.332519
 20
1.68446
 30
0.0
 40
0
 41
0
  0
VERTEX
  8
0
 10
0.260796
 20
1.70714
 30
0.0
 40
0
 41
0
  0
VERTEX
  8
0
 10
0.18316
 20
1.71799
 30
0.0
 40
0
 41
0
  0
VERTEX
  8
0
 10
0.33279
 20
1.57471
 30
0.0
 40
0
 41
0
  0
VERTEX
  8
0
 10
0.260146
 20
1.4924
 30
0.0
 40
0
 41
0
  0
VERTEX
  8
0
 10
0.230632
 20
1.45915
 30
0.0
 40
0
 41
0
  0
VERTEX
  8
0
 10
0.204156
 20
1.42925
 30
0.0
 40
0
 41
0
  0
VERTEX
  8
0
 10
0.183539
 20
1.40603
 30
0.0
 40
0
 41
0
  0
VERTEX
  8
0
 10
0.171767
 20
1.39268
 30
0.0
 40
0
 41
0
  0
VERTEX
  8
0
 10
0.160807
 20
1.38986
 30
0.0
 40
0
 41
0
  0
VERTEX
  8
0
 10
0.142686
 20
1.39535
 30
0.0
 40
0
 41
0
  0
VERTEX
  8
0
 10
0.119792
 20
1.40815
 30
0.0
 40
0
 41
0
  0
VERTEX
  8
0
 10
0.0944553
 20
1.42714
 30
0.0
 40
0
 41
0
  0
VERTEX
  8
0
 10
0.0692817
 20
1.44732
 30
0.0
 40
0
 41
0
  0
VERTEX
  8
0
 10
0.0463325
 20
1.46376
 30
0.0
 40
0
 41
0
  0
VERTEX
  8
0
 10
0.0281575
 20
1.47488
 30
0.0
 40
0
 41
0
  0
VERTEX
  8
0
 10
0.0173611
 20
1.47894
 30
0.0
 40
0
 41
0
  0
VERTEX
  8
0
 10
0.00813803
 20
1.47444
 30
0.0
 40
0
 41
0
  0
VERTEX
  8
0
 10
0.00515408
 20
1.46197
 30
0.0
 40
0
 41
0
  0
VERTEX
  8
0
 10
0.00775825
 20
1.44342
 30
0.0
 40
0
 41
0
  0
VERTEX
  8
0
 10
0.0151367
 20
1.42046
 30
0.0
 40
0
 41
0
  0
VERTEX
  8
0
 10
0.0266385
 20
1.39497
 30
0.0
 40
0
 41
0
  0
VERTEX
  8
0
 10
0.0416124
 20
1.36871
 30
0.0
 40
0
 41
0
  0
VERTEX
  8
0
 10
0.059299
 20
1.34343
 30
0.0
 40
0
 41
0
  0
VERTEX
  8
0
 10
0.0791015
 20
1.32086
 30
0.0
 40
0
 41
0
  0
VERTEX
  8
0
 10
0.111111
 20
1.29259
 30
0.0
 40
0
 41
0
  0
VERTEX
  8
0
 10
0.141982
 20
1.27474
 30
0.0
 40
0
 41
0
  0
VERTEX
  8
0
 10
0.176432
 20
1.26535
 30
0.0
 40
0
 41
0
  0
VERTEX
  8
0
 10
0.219075
 20
1.26248
 30
0.0
 40
0
 41
0
  0
VERTEX
  8
0
 10
0.264649
 20
1.25895
 30
0.0
 40
0
 41
0
  0
VERTEX
  8
0
 10
0.304036
 20
1.24598
 30
0.0
 40
0
 41
0
  0
VERTEX
  8
0
 10
0.345975
 20
1.2194
 30
0.0
 40
0
 41
0
  0
VERTEX
  8
0
 10
0.399306
 20
1.1748
 30
0.0
 40
0
 41
0
  0
VERTEX
  8
0
 10
0.437662
 20
1.1409
 30
0.0
 40
0
 41
0
  0
VERTEX
  8
0
 10
0.469456
 20
1.11296
 30
0.0
 40
0
 41
0
  0
VERTEX
  8
0
 10
0.491374
 20
1.09391
 30
0.0
 40
0
 41
0
  0
VERTEX
  8
0
 10
0.500162
 20
1.0867
 30
0.0
 40
0
 41
0
  0
VERTEX
  8
0
 10
0.507704
 20
1.09304
 30
0.0
 40
0
 41
0
  0
VERTEX
  8
0
 10
0.526421
 20
1.11068
 30
0.0
 40
0
 41
0
  0
VERTEX
  8
0
 10
0.55344
 20
1.13699
 30
0.0
 40
0
 41
0
  0
VERTEX
  8
0
 10
0.585938
 20
1.16922
 30
0.0
 40
0
 41
0
  0
SEQEND
 8
0
  0
POLYLINE
  8
0
 62
     0
 66
     1
 10
0
 20
0
 30
0.0
 70
     1
 40
0
 41
0
  0
VERTEX
  8
0
 10
1.4669
 20
1.16287
 30
0.0
 40
0
 41
0
  0
VERTEX
  8
0
 10
1.52556
 20
1.21105
 30
0.0
 40
0
 41
0
  0
VERTEX
  8
0
 10
1.57075
 20
1.24051
 30
0.0
 40
0
 41
0
  0
VERTEX
  8
0
 10
1.61014
 20
1.25521
 30
0.0
 40
0
 41
0
  0
VERTEX
  8
0
 10
1.65115
 20
1.25911
 30
0.0
 40
0
 41
0
  0
VERTEX
  8
0
 10
1.72006
 20
1.27034
 30
0.0
 40
0
 41
0
  0
VERTEX
  8
0
 10
1.78185
 20
1.30198
 30
0.0
 40
0
 41
0
  0
VERTEX
  8
0
 10
1.83143
 20
1.35032
 30
0.0
 40
0
 41
0
  0
VERTEX
  8
0
 10
1.86382
 20
1.41183
 30
0.0
 40
0
 41
0
  0
VERTEX
  8
0
 10
1.87207
 20
1.43956
 30
0.0
 40
0
 41
0
  0
VERTEX
  8
0
 10
1.87771
 20
1.46349
 30
0.0
 40
0
 41
0
  0
VERTEX
  8
0
 10
1.8801
 20
1.48107
 30
0.0
 40
0
 41
0
  0
VERTEX
  8
0
 10
1.87885
 20
1.48964
 30
0.0
 40
0
 41
0
  0
VERTEX
  8
0
 10
1.87001
 20
1.48801
 30
0.0
 40
0
 41
0
  0
VERTEX
  8
0
 10
1.85183
 20
1.47765
 30
0.0
 40
0
 41
0
  0
VERTEX
  8
0
 10
1.82693
 20
1.46029
 30
0.0
 40
0
 41
0
  0
VERTEX
  8
0
 10
1.79807
 20
1.43756
 30
0.0
 40
0
 41
0
  0
VERTEX
  8
0
 10
1.72526
 20
1.3775
 30
0.0
 40
0
 41
0
  0
VERTEX
  8
0
 10
1.63857
 20
1.4725
 30
0.0
 40
0
 41
0
  0
VERTEX
  8
0
 10
1.55192
 20
1.56743
 30
0.0
 40
0
 41
0
  0
VERTEX
  8
0
 10
1.62408
 20
1.64372
 30
0.0
 40
0
 41
0
  0
VERTEX
  8
0
 10
1.69624
 20
1.71994
 30
0.0
 40
0
 41
0
  0
VERTEX
  8
0
 10
1.6186
 20
1.70811
 30
0.0
 40
0
 41
0
  0
VERTEX
  8
0
 10
1.54676
 20
1.68468
 30
0.0
 40
0
 41
0
  0
VERTEX
  8
0
 10
1.48617
 20
1.6404
 30
0.0
 40
0
 41
0
  0
VERTEX
  8
0
 10
1.4414
 20
1.57997
 30
0.0
 40
0
 41
0
  0
VERTEX
  8
0
 10
1.41726
 20
1.50792
 30
0.0
 40
0
 41
0
  0
VERTEX
  8
0
 10
1.40625
 20
1.46604
 30
0.0
 40
0
 41
0
  0
VERTEX
  8
0
 10
1.38552
 20
1.42692
 30
0.0
 40
0
 41
0
  0
VERTEX
  8
0
 10
1.35124
 20
1.38498
 30
0.0
 40
0
 41
0
  0
VERTEX
  8
0
 10
1.29953
 20
1.33469
 30
0.0
 40
0
 41
0
  0
VERTEX
  8
0
 10
1.19439
 20
1.23855
 30
0.0
 40
0
 41
0
  0
VERTEX
  8
0
 10
1.26845
 20
1.15424
 30
0.0
 40
0
 41
0
  0
VERTEX
  8
0
 10
1.29769
 20
1.12142
 30
0.0
 40
0
 41
0
  0
VERTEX
  8
0
 10
1.32265
 20
1.09424
 30
0.0
 40
0
 41
0
  0
VERTEX
  8
0
 10
1.3406
 20
1.07557
 30
0.0
 40
0
 41
0
  0
VERTEX
  8
0
 10
1.34901
 20
1.06814
 30
0.0
 40
0
 41
0
  0
VERTEX
  8
0
 10
1.3603
 20
1.07509
 30
0.0
 40
0
 41
0
  0
VERTEX
  8
0
 10
1.38628
 20
1.09527
 30
0.0
 40
0
 41
0
  0
VERTEX
  8
0
 10
1.42307
 20
1.12554
 30
0.0
 40
0
 41
0
  0
VERTEX
  8
0
 10
1.4669
 20
1.16287
 30
0.0
 40
0
 41
0
  0
SEQEND
 8
0
  0
POLYLINE
  8
0
 62
     0
 66
     1
 10
0
 20
0
 30
0.0
 70
     1
 40
0
 41
0
  0
VERTEX
  8
0
 10
1.16173
 20
0.66059
 30
0.0
 40
0
 41
0
  0
VERTEX
  8
0
 10
1.13384
 20
0.687392
 30
0.0
 40
0
 41
0
  0
VERTEX
  8
0
 10
1.08892
 20
0.714572
 30
0.0
 40
0
 41
0
  0
VERTEX
  8
0
 10
1.03673
 20
0.746203
 30
0.0
 40
0
 41
0
  0
VERTEX
  8
0
 10
1.00911
 20
0.779025
 30
0.0
 40
0
 41
0
  0
VERTEX
  8
0
 10
1.00591
 20
0.81326
 30
0.0
 40
0
 41
0
  0
VERTEX
  8
0
 10
1.02707
 20
0.849067
 30
0.0
 40
0
 41
0
  0
VERTEX
  8
0
 10
1.07476
 20
0.881565
 30
0.0
 40
0
 41
0
  0
VERTEX
  8
0
 10
1.13097
 20
0.890192
 30
0.0
 40
0
 41
0
  0
VERTEX
  8
0
 10
1.18674
 20
0.875433
 30
0.0
 40
0
 41
0
  0
VERTEX
  8
0
 10
1.23302
 20
0.837728
 30
0.0
 40
0
 41
0
  0
VERTEX
  8
0
 10
1.26091
 20
0.794868
 30
0.0
 40
0
 41
0
  0
VERTEX
  8
0
 10
1.2717
 20
0.756511
 30
0.0
 40
0
 41
0
  0
VERTEX
  8
0
 10
1.26573
 20
0.71875
 30
0.0
 40
0
 41
0
  0
VERTEX
  8
0
 10
1.24316
 20
0.677735
 30
0.0
 40
0
 41
0
  0
VERTEX
  8
0
 10
1.2188
 20
0.6486
 30
0.0
 40
0
 41
0
  0
VERTEX
  8
0
 10
1.1977
 20
0.636176
 30
0.0
 40
0
 41
0
  0
VERTEX
  8
0
 10
1.17898
 20
0.640246
 30
0.0
 40
0
 41
0
  0
VERTEX
  8
0
 10
1.16173
 20
0.66059
 30
0.0
 40
0
 41
0
  0
SEQEND
 8
0
  0
POLYLINE
  8
0
 62
     0
 66
     1
 10
0
 20
0
 30
0.0
 70
     1
 40
0
 41
0
  0
VERTEX
  8
0
 10
0.61659
 20
0.677735
 30
0.0
 40
0
 41
0
  0
VERTEX
  8
0
 10
0.594021
 20
0.71875
 30
0.0
 40
0
 41
0
  0
VERTEX
  8
0
 10
0.587999
 20
0.756511
 30
0.0
 40
0
 41
0
  0
VERTEX
  8
0
 10
0.59885
 20
0.794868
 30
0.0
 40
0
 41
0
  0
VERTEX
  8
0
 10
0.626736
 20
0.837728
 30
0.0
 40
0
 41
0
  0
VERTEX
  8
0
 10
0.67296
 20
0.875433
 30
0.0
 40
0
 41
0
  0
VERTEX
  8
0
 10
0.728733
 20
0.890192
 30
0.0
 40
0
 41
0
  0
VERTEX
  8
0
 10
0.784993
 20
0.881565
 30
0.0
 40
0
 41
0
  0
VERTEX
  8
0
 10
0.832682
 20
0.849067
 30
0.0
 40
0
 41
0
  0
VERTEX
  8
0
 10
0.853787
 20
0.81326
 30
0.0
 40
0
 41
0
  0
VERTEX
  8
0
 10
0.850586
 20
0.779025
 30
0.0
 40
0
 41
0
  0
VERTEX
  8
0
 10
0.822971
 20
0.746203
 30
0.0
 40
0
 41
0
  0
VERTEX
  8
0
 10
0.770887
 20
0.714572
 30
0.0
 40
0
 41
0
  0
VERTEX
  8
0
 10
0.725857
 20
0.687392
 30
0.0
 40
0
 41
0
  0
VERTEX
  8
0
 10
0.698025
 20
0.66059
 30
0.0
 40
0
 41
0
  0
VERTEX
  8
0
 10
0.680718
 20
0.640246
 30
0.0
 40
0
 41
0
  0
VERTEX
  8
0
 10
0.662001
 20
0.636176
 30
0.0
 40
0
 41
0
  0
VERTEX
  8
0
 10
0.640896
 20
0.6486
 30
0.0
 40
0
 41
0
  0
VERTEX
  8
0
 10
0.61659
 20
0.677735
 30
0.0
 40
0
 41
0
  0
SEQEND
 8
0
  0
POLYLINE
  8
0
 62
     0
 66
     1
 10
0
 20
0
 30
0.0
 70
     1
 40
0
 41
0
  0
VERTEX
  8
0
 10
0.880751
 20
0.504992
 30
0.0
 40
0
 41
0
  0
VERTEX
  8
0
 10
0.887261
 20
0.548232
 30
0.0
 40
0
 41
0
  0
VERTEX
  8
0
 10
0.903483
 20
0.590332
 30
0.0
 40
0
 41
0
  0
VERTEX
  8
0
 10
0.92399
 20
0.620822
 30
0.0
 40
0
 41
0
  0
VERTEX
  8
0
 10
0.943685
 20
0.629394
 30
0.0
 40
0
 41
0
  0
VERTEX
  8
0
 10
0.964085
 20
0.607747
 30
0.0
 40
0
 41
0
  0
VERTEX
  8
0
 10
0.981119
 20
0.566949
 30
0.0
 40
0
 41
0
  0
VERTEX
  8
0
 10
0.989854
 20
0.52284
 30
0.0
 40
0
 41
0
  0
VERTEX
  8
0
 10
0.985568
 20
0.491157
 30
0.0
 40
0
 41
0
  0
VERTEX
  8
0
 10
0.972006
 20
0.485678
 30
0.0
 40
0
 41
0
  0
VERTEX
  8
0
 10
0.955404
 20
0.499294
 30
0.0
 40
0
 41
0
  0
VERTEX
  8
0
 10
0.938531
 20
0.5153
 30
0.0
 40
0
 41
0
  0
VERTEX
  8
0
 10
0.926758
 20
0.501411
 30
0.0
 40
0
 41
0
  0
VERTEX
  8
0
 10
0.913792
 20
0.482964
 30
0.0
 40
0
 41
0
  0
VERTEX
  8
0
 10
0.8986
 20
0.477647
 30
0.0
 40
0
 41
0
  0
VERTEX
  8
0
 10
0.886014
 20
0.485135
 30
0.0
 40
0
 41
0
  0
VERTEX
  8
0
 10
0.880751
 20
0.504992
 30
0.0
 40
0
 41
0
  0
SEQEND
 8
0
  0
POLYLINE
  8
0
 62
     0
 66
     1
 10
0
 20
0
 30
0.0
 70
     1
 40
0
 41
0
  0
VERTEX
  8
0
 10
0.841471
 20
0.362685
 30
0.0
 40
0
 41
0
  0
VERTEX
  8
0
 10
0.84706
 20
0.383301
 30
0.0
 40
0
 41
0
  0
VERTEX
  8
0
 10
0.859104
 20
0.392144
 30
0.0
 40
0
 41
0
  0
VERTEX
  8
0
 10
0.870606
 20
0.386828
 30
0.0
 40
0
 41
0
  0
VERTEX
  8
0
 10
0.874457
 20
0.364854
 30
0.0
 40
0
 41
0
  0
VERTEX
  8
0
 10
0.874457
 20
0.339735
 30
0.0
 40
0
 41
0
  0
VERTEX
  8
0
 10
0.882215
 20
0.309353
 30
0.0
 40
0
 41
0
  0
VERTEX
  8
0
 10
0.904839
 20
0.283419
 30
0.0
 40
0
 41
0
  0
VERTEX
  8
0
 10
0.949544
 20
0.271376
 30
0.0
 40
0
 41
0
  0
VERTEX
  8
0
 10
0.993164
 20
0.279406
 30
0.0
 40
0
 41
0
  0
VERTEX
  8
0
 10
1.01367
 20
0.301269
 30
0.0
 40
0
 41
0
  0
VERTEX
  8
0
 10
1.01969
 20
0.328668
 30
0.0
 40
0
 41
0
  0
VERTEX
  8
0
 10
1.01997
 20
0.353136
 30
0.0
 40
0
 41
0
  0
VERTEX
  8
0
 10
1.02566
 20
0.380533
 30
0.0
 40
0
 41
0
  0
VERTEX
  8
0
 10
1.03776
 20
0.387369
 30
0.0
 40
0
 41
0
  0
VERTEX
  8
0
 10
1.0498
 20
0.376682
 30
0.0
 40
0
 41
0
  0
VERTEX
  8
0
 10
1.05528
 20
0.351563
 30
0.0
 40
0
 41
0
  0
VERTEX
  8
0
 10
1.06103
 20
0.32156
 30
0.0
 40
0
 41
0
  0
VERTEX
  8
0
 10
1.07775
 20
0.296767
 30
0.0
 40
0
 41
0
  0
VERTEX
  8
0
 10
1.1046
 20
0.279839
 30
0.0
 40
0
 41
0
  0
VERTEX
  8
0
 10
1.14084
 20
0.273492
 30
0.0
 40
0
 41
0
  0
VERTEX
  8
0
 10
1.17215
 20
0.28125
 30
0.0
 40
0
 41
0
  0
VERTEX
  8
0
 10
1.18831
 20
0.301758
 30
0.0
 40
0
 41
0
  0
VERTEX
  8
0
 10
1.19428
 20
0.33035
 30
0.0
 40
0
 41
0
  0
VERTEX
  8
0
 10
1.19515
 20
0.362358
 30
0.0
 40
0
 41
0
  0
VERTEX
  8
0
 10
1.20942
 20
0.422635
 30
0.0
 40
0
 41
0
  0
VERTEX
  8
0
 10
1.24729
 20
0.483832
 30
0.0
 40
0
 41
0
  0
VERTEX
  8
0
 10
1.2959
 20
0.551269
 30
0.0
 40
0
 41
0
  0
VERTEX
  8
0
 10
1.32845
 20
0.621039
 30
0.0
 40
0
 41
0
  0
VERTEX
  8
0
 10
1.34668
 20
0.698406
 30
0.0
 40
0
 41
0
  0
VERTEX
  8
0
 10
1.35238
 20
0.788411
 30
0.0
 40
0
 41
0
  0
VERTEX
  8
0
 10
1.338
 20
0.909722
 30
0.0
 40
0
 41
0
  0
VERTEX
  8
0
 10
1.29769
 20
1.01628
 30
0.0
 40
0
 41
0
  0
VERTEX
  8
0
 10
1.23541
 20
1.10541
 30
0.0
 40
0
 41
0
  0
VERTEX
  8
0
 10
1.15522
 20
1.17448
 30
0.0
 40
0
 41
0
  0
VERTEX
  8
0
 10
1.06114
 20
1.22076
 30
0.0
 40
0
 41
0
  0
VERTEX
  8
0
 10
0.957194
 20
1.24159
 30
0.0
 40
0
 41
0
  0
VERTEX
  8
0
 10
0.847493
 20
1.23432
 30
0.0
 40
0
 41
0
  0
VERTEX
  8
0
 10
0.736003
 20
1.19623
 30
0.0
 40
0
 41
0
  0
VERTEX
  8
0
 10
0.643664
 20
1.13471
 30
0.0
 40
0
 41
0
  0
VERTEX
  8
0
 10
0.572646
 20
1.05409
 30
0.0
 40
0
 41
0
  0
VERTEX
  8
0
 10
0.5236
 20
0.959581
 30
0.0
 40
0
 41
0
  0
VERTEX
  8
0
 10
0.497233
 20
0.856228
 30
0.0
 40
0
 41
0
  0
VERTEX
  8
0
 10
0.494303
 20
0.749349
 30
0.0
 40
0
 41
0
  0
VERTEX
  8
0
 10
0.515517
 20
0.643989
 30
0.0
 40
0
 41
0
  0
VERTEX
  8
0
 10
0.561578
 20
0.545356
 30
0.0
 40
0
 41
0
  0
VERTEX
  8
0
 10
0.633247
 20
0.458658
 30
0.0
 40
0
 41
0
  0
VERTEX
  8
0
 10
0.652994
 20
0.436903
 30
0.0
 40
0
 41
0
  0
VERTEX
  8
0
 10
0.669217
 20
0.412761
 30
0.0
 40
0
 41
0
  0
VERTEX
  8
0
 10
0.680176
 20
0.389268
 30
0.0
 40
0
 41
0
  0
VERTEX
  8
0
 10
0.684244
 20
0.369303
 30
0.0
 40
0
 41
0
  0
VERTEX
  8
0
 10
0.688531
 20
0.322157
 30
0.0
 40
0
 41
0
  0
VERTEX
  8
0
 10
0.701172
 20
0.292806
 30
0.0
 40
0
 41
0
  0
VERTEX
  8
0
 10
0.725151
 20
0.277615
 30
0.0
 40
0
 41
0
  0
VERTEX
  8
0
 10
0.76351
 20
0.27284
 30
0.0
 40
0
 41
0
  0
VERTEX
  8
0
 10
0.799804
 20
0.281196
 30
0.0
 40
0
 41
0
  0
VERTEX
  8
0
 10
0.820313
 20
0.303276
 30
0.0
 40
0
 41
0
  0
VERTEX
  8
0
 10
0.831868
 20
0.332682
 30
0.0
 40
0
 41
0
  0
VERTEX
  8
0
 10
0.841471
 20
0.362685
 30
0.0
 40
0
 41
0
  0
SEQEND
 8
0
  0
POLYLINE
  8
0
 62
     0
 66
     1
 10
0
 20
0
 30
0.0
 70
     1
 40
0
 41
0
  0
VERTEX
  8
0
 10
1.62033
 20
0.0691189
 30
0.0
 40
0
 41
0
  0
VERTEX
  8
0
 10
1.54769
 20
0.132921
 30
0.0
 40
0
 41
0
  0
VERTEX
  8
0
 10
1.62842
 20
0.226346
 30
0.0
 40
0
 41
0
  0
VERTEX
  8
0
 10
1.66146
 20
0.262586
 30
0.0
 40
0
 41
0
  0
VERTEX
  8
0
 10
1.69183
 20
0.292264
 30
0.0
 40
0
 41
0
  0
VERTEX
  8
0
 10
1.71614
 20
0.312338
 30
0.0
 40
0
 41
0
  0
VERTEX
  8
0
 10
1.73107
 20
0.319661
 30
0.0
 40
0
 41
0
  0
VERTEX
  8
0
 10
1.74392
 20
0.315539
 30
0.0
 40
0
 41
0
  0
VERTEX
  8
0
 10
1.76269
 20
0.304253
 30
0.0
 40
0
 41
0
  0
VERTEX
  8
0
 10
1.78489
 20
0.287489
 30
0.0
 40
0
 41
0
  0
VERTEX
  8
0
 10
1.80794
 20
0.267036
 30
0.0
 40
0
 41
0
  0
VERTEX
  8
0
 10
1.84918
 20
0.233996
 30
0.0
 40
0
 41
0
  0
VERTEX
  8
0
 10
1.8731
 20
0.229004
 30
0.0
 40
0
 41
0
  0
VERTEX
  8
0
 10
1.87831
 20
0.251193
 30
0.0
 40
0
 41
0
  0
VERTEX
  8
0
 10
1.86339
 20
0.299804
 30
0.0
 40
0
 41
0
  0
VERTEX
  8
0
 10
1.82536
 20
0.364421
 30
0.0
 40
0
 41
0
  0
VERTEX
  8
0
 10
1.77311
 20
0.414063
 30
0.0
 40
0
 41
0
  0
VERTEX
  8
0
 10
1.7105
 20
0.44591
 30
0.0
 40
0
 41
0
  0
VERTEX
  8
0
 10
1.64154
 20
0.45714
 30
0.0
 40
0
 41
0
  0
VERTEX
  8
0
 10
1.59744
 20
0.460124
 30
0.0
 40
0
 41
0
  0
VERTEX
  8
0
 10
1.56114
 20
0.471246
 30
0.0
 40
0
 41
0
  0
VERTEX
  8
0
 10
1.52544
 20
0.493761
 30
0.0
 40
0
 41
0
  0
VERTEX
  8
0
 10
1.4834
 20
0.530925
 30
0.0
 40
0
 41
0
  0
VERTEX
  8
0
 10
1.45128
 20
0.559353
 30
0.0
 40
0
 41
0
  0
VERTEX
  8
0
 10
1.42524
 20
0.577854
 30
0.0
 40
0
 41
0
  0
VERTEX
  8
0
 10
1.40685
 20
0.585558
 30
0.0
 40
0
 41
0
  0
VERTEX
  8
0
 10
1.39785
 20
0.581326
 30
0.0
 40
0
 41
0
  0
VERTEX
  8
0
 10
1.39003
 20
0.566189
 30
0.0
 40
0
 41
0
  0
VERTEX
  8
0
 10
1.37527
 20
0.5421
 30
0.0
 40
0
 41
0
  0
VERTEX
  8
0
 10
1.35552
 20
0.512424
 30
0.0
 40
0
 41
0
  0
VERTEX
  8
0
 10
1.33306
 20
0.480469
 30
0.0
 40
0
 41
0
  0
VERTEX
  8
0
 10
1.27691
 20
0.40294
 30
0.0
 40
0
 41
0
  0
VERTEX
  8
0
 10
1.34413
 20
0.337728
 30
0.0
 40
0
 41
0
  0
VERTEX
  8
0
 10
1.37017
 20
0.309896
 30
0.0
 40
0
 41
0
  0
VERTEX
  8
0
 10
1.39154
 20
0.282226
 30
0.0
 40
0
 41
0
  0
VERTEX
  8
0
 10
1.40597
 20
0.257867
 30
0.0
 40
0
 41
0
  0
VERTEX
  8
0
 10
1.41129
 20
0.240072
 30
0.0
 40
0
 41
0
  0
VERTEX
  8
0
 10
1.4299
 20
0.151856
 30
0.0
 40
0
 41
0
  0
VERTEX
  8
0
 10
1.4796
 20
0.0769314
 30
0.0
 40
0
 41
0
  0
VERTEX
  8
0
 10
1.55122
 20
0.0249024
 30
0.0
 40
0
 41
0
  0
VERTEX
  8
0
 10
1.63564
 20
0.00531683
 30
0.0
 40
0
 41
0
  0
VERTEX
  8
0
 10
1.69299
 20
0.00515408
 30
0.0
 40
0
 41
0
  0
VERTEX
  8
0
 10
1.62033
 20
0.0691189
 30
0.0
 40
0
 41
0
  0
SEQEND
 8
0
  0
POLYLINE
  8
0
 62
     0
 66
     1
 10
0
 20
0
 30
0.0
 70
     1
 40
0
 41
0
  0
VERTEX
  8
0
 10
0.350857
 20
0.0350478
 30
0.0
 40
0
 41
0
  0
VERTEX
  8
0
 10
0.395779
 20
0.0686849
 30
0.0
 40
0
 41
0
  0
VERTEX
  8
0
 10
0.43316
 20
0.11594
 30
0.0
 40
0
 41
0
  0
VERTEX
  8
0
 10
0.458658
 20
0.170139
 30
0.0
 40
0
 41
0
  0
VERTEX
  8
0
 10
0.468099
 20
0.224338
 30
0.0
 40
0
 41
0
  0
VERTEX
  8
0
 10
0.472928
 20
0.246582
 30
0.0
 40
0
 41
0
  0
VERTEX
  8
0
 10
0.486219
 20
0.27436
 30
0.0
 40
0
 41
0
  0
VERTEX
  8
0
 10
0.505806
 20
0.30409
 30
0.0
 40
0
 41
0
  0
VERTEX
  8
0
 10
0.529785
 20
0.332303
 30
0.0
 40
0
 41
0
  0
VERTEX
  8
0
 10
0.591471
 20
0.395942
 30
0.0
 40
0
 41
0
  0
VERTEX
  8
0
 10
0.544542
 20
0.453396
 30
0.0
 40
0
 41
0
  0
VERTEX
  8
0
 10
0.524522
 20
0.478678
 30
0.0
 40
0
 41
0
  0
VERTEX
  8
0
 10
0.504775
 20
0.504883
 30
0.0
 40
0
 41
0
  0
VERTEX
  8
0
 10
0.487522
 20
0.528971
 30
0.0
 40
0
 41
0
  0
VERTEX
  8
0
 10
0.475097
 20
0.547851
 30
0.0
 40
0
 41
0
  0
VERTEX
  8
0
 10
0.461046
 20
0.567057
 30
0.0
 40
0
 41
0
  0
VERTEX
  8
0
 10
0.446289
 20
0.570637
 30
0.0
 40
0
 41
0
  0
VERTEX
  8
0
 10
0.423828
 20
0.556749
 30
0.0
 40
0
 41
0
  0
VERTEX
  8
0
 10
0.386664
 20
0.523438
 30
0.0
 40
0
 41
0
  0
VERTEX
  8
0
 10
0.35064
 20
0.493869
 30
0.0
 40
0
 41
0
  0
VERTEX
  8
0
 10
0.314182
 20
0.473199
 30
0.0
 40
0
 41
0
  0
VERTEX
  8
0
 10
0.273546
 20
0.459744
 30
0.0
 40
0
 41
0
  0
VERTEX
  8
0
 10
0.225097
 20
0.451822
 30
0.0
 40
0
 41
0
  0
VERTEX
  8
0
 10
0.15039
 20
0.43495
 30
0.0
 40
0
 41
0
  0
VERTEX
  8
0
 10
0.0908203
 20
0.401421
 30
0.0
 40
0
 41
0
  0
VERTEX
  8
0
 10
0.0464953
 20
0.351346
 30
0.0
 40
0
 41
0
  0
VERTEX
  8
0
 10
0.0174154
 20
0.284668
 30
0.0
 40
0
 41
0
  0
VERTEX
  8
0
 10
0.00846354
 20
0.241103
 30
0.0
 40
0
 41
0
  0
VERTEX
  8
0
 10
0.0147569
 20
0.224338
 30
0.0
 40
0
 41
0
  0
VERTEX
  8
0
 10
0.0367839
 20
0.234213
 30
0.0
 40
0
 41
0
  0
VERTEX
  8
0
 10
0.0750868
 20
0.270562
 30
0.0
 40
0
 41
0
  0
VERTEX
  8
0
 10
0.0948893
 20
0.28966
 30
0.0
 40
0
 41
0
  0
VERTEX
  8
0
 10
0.1148
 20
0.305285
 30
0.0
 40
0
 41
0
  0
VERTEX
  8
0
 10
0.132487
 20
0.31581
 30
0.0
 40
0
 41
0
  0
VERTEX
  8
0
 10
0.145617
 20
0.319661
 30
0.0
 40
0
 41
0
  0
VERTEX
  8
0
 10
0.161512
 20
0.312338
 30
0.0
 40
0
 41
0
  0
VERTEX
  8
0
 10
0.186957
 20
0.292264
 30
0.0
 40
0
 41
0
  0
VERTEX
  8
0
 10
0.218317
 20
0.262586
 30
0.0
 40
0
 41
0
  0
VERTEX
  8
0
 10
0.252169
 20
0.226346
 30
0.0
 40
0
 41
0
  0
VERTEX
  8
0
 10
0.334256
 20
0.132975
 30
0.0
 40
0
 41
0
  0
VERTEX
  8
0
 10
0.260362
 20
0.0691732
 30
0.0
 40
0
 41
0
  0
VERTEX
  8
0
 10
0.186469
 20
0.00526258
 30
0.0
 40
0
 41
0
  0
VERTEX
  8
0
 10
0.239854
 20
0.00526258
 30
0.0
 40
0
 41
0
  0
VERTEX
  8
0
 10
0.294433
 20
0.0140517
 30
0.0
 40
0
 41
0
  0
VERTEX
  8
0
 10
0.350857
 20
0.0350478
 30
0.0
 40
0
 41
0
  0
SEQEND
 8
0
  0
POLYLINE
  8
0
 62
     0
 66
     1
 10
0
 20
0
 30
0.0
 70
     1
 40
0.75
 41
0.75
  0
VERTEX
  8
0
 10
0.585938
 20
1.16922
 30
0.0
 40
0.0104167
 41
0.0104167
  0
VERTEX
  8
0
 10
0.669108
 20
1.25239
 30
0.0
 40
0.0104167
 41
0.0104167
  0
VERTEX
  8
0
 10
0.571886
 20
1.34174
 30
0.0
 40
0.0104167
 41
0.0104167
  0
VERTEX
  8
0
 10
0.524631
 20
1.38835
 30
0.0
 40
0.0104167
 41
0.0104167
  0
VERTEX
  8
0
 10
0.492676
 20
1.42854
 30
0.0
 40
0.0104167
 41
0.0104167
  0
VERTEX
  8
0
 10
0.472819
 20
1.46696
 30
0.0
 40
0.0104167
 41
0.0104167
  0
VERTEX
  8
0
 10
0.462131
 20
1.50819
 30
0.0
 40
0.0104167
 41
0.0104167
  0
VERTEX
  8
0
 10
0.437879
 20
1.5804
 30
0.0
 40
0.0104167
 41
0.0104167
  0
VERTEX
  8
0
 10
0.393121
 20
1.64068
 30
0.0
 40
0.0104167
 41
0.0104167
  0
VERTEX
  8
0
 10
0.332519
 20
1.68451
 30
0.0
 40
0.0104167
 41
0.0104167
  0
VERTEX
  8
0
 10
0.260796
 20
1.70719
 30
0.0
 40
0.0104167
 41
0.0104167
  0
VERTEX
  8
0
 10
0.18316
 20
1.71799
 30
0.0
 40
0.0104167
 41
0.0104167
  0
VERTEX
  8
0
 10
0.33279
 20
1.57471
 30
0.0
 40
0.0104167
 41
0.0104167
  0
VERTEX
  8
0
 10
0.260146
 20
1.4924
 30
0.0
 40
0.0104167
 41
0.0104167
  0
VERTEX
  8
0
 10
0.230632
 20
1.45915
 30
0.0
 40
0.0104167
 41
0.0104167
  0
VERTEX
  8
0
 10
0.204156
 20
1.42925
 30
0.0
 40
0.0104167
 41
0.0104167
  0
VERTEX
  8
0
 10
0.183539
 20
1.40603
 30
0.0
 40
0.0104167
 41
0.0104167
  0
VERTEX
  8
0
 10
0.171767
 20
1.39268
 30
0.0
 40
0.0104167
 41
0.0104167
  0
VERTEX
  8
0
 10
0.160807
 20
1.38986
 30
0.0
 40
0.0104167
 41
0.0104167
  0
VERTEX
  8
0
 10
0.142686
 20
1.39535
 30
0.0
 40
0.0104167
 41
0.0104167
  0
VERTEX
  8
0
 10
0.119792
 20
1.40815
 30
0.0
 40
0.0104167
 41
0.0104167
  0
VERTEX
  8
0
 10
0.0944553
 20
1.42714
 30
0.0
 40
0.0104167
 41
0.0104167
  0
VERTEX
  8
0
 10
0.0692817
 20
1.44732
 30
0.0
 40
0.0104167
 41
0.0104167
  0
VERTEX
  8
0
 10
0.0463325
 20
1.46376
 30
0.0
 40
0.0104167
 41
0.0104167
  0
VERTEX
  8
0
 10
0.0281575
 20
1.47488
 30
0.0
 40
0.0104167
 41
0.0104167
  0
VERTEX
  8
0
 10
0.0173611
 20
1.47894
 30
0.0
 40
0.0104167
 41
0.0104167
  0
VERTEX
  8
0
 10
0.00813803
 20
1.47444
 30
0.0
 40
0.0104167
 41
0.0104167
  0
VERTEX
  8
0
 10
0.00515408
 20
1.46197
 30
0.0
 40
0.0104167
 41
0.0104167
  0
VERTEX
  8
0
 10
0.00775825
 20
1.44342
 30
0.0
 40
0.0104167
 41
0.0104167
  0
VERTEX
  8
0
 10
0.0151367
 20
1.42046
 30
0.0
 40
0.0104167
 41
0.0104167
  0
VERTEX
  8
0
 10
0.0266385
 20
1.39497
 30
0.0
 40
0.0104167
 41
0.0104167
  0
VERTEX
  8
0
 10
0.0416124
 20
1.36871
 30
0.0
 40
0.0104167
 41
0.0104167
  0
VERTEX
  8
0
 10
0.059299
 20
1.34343
 30
0.0
 40
0.0104167
 41
0.0104167
  0
VERTEX
  8
0
 10
0.0791015
 20
1.32086
 30
0.0
 40
0.0104167
 41
0.0104167
  0
VERTEX
  8
0
 10
0.111111
 20
1.29259
 30
0.0
 40
0.0104167
 41
0.0104167
  0
VERTEX
  8
0
 10
0.141982
 20
1.27474
 30
0.0
 40
0.0104167
 41
0.0104167
  0
VERTEX
  8
0
 10
0.176432
 20
1.26535
 30
0.0
 40
0.0104167
 41
0.0104167
  0
VERTEX
  8
0
 10
0.219075
 20
1.26248
 30
0.0
 40
0.0104167
 41
0.0104167
  0
VERTEX
  8
0
 10
0.264649
 20
1.25895
 30
0.0
 40
0.0104167
 41
0.0104167
  0
VERTEX
  8
0
 10
0.304036
 20
1.24598
 30
0.0
 40
0.0104167
 41
0.0104167
  0
VERTEX
  8
0
 10
0.345975
 20
1.2194
 30
0.0
 40
0.0104167
 41
0.0104167
  0
VERTEX
  8
0
 10
0.399306
 20
1.1748
 30
0.0
 40
0.0104167
 41
0.0104167
  0
VERTEX
  8
0
 10
0.437662
 20
1.1409
 30
0.0
 40
0.0104167
 41
0.0104167
  0
VERTEX
  8
0
 10
0.469456
 20
1.11296
 30
0.0
 40
0.0104167
 41
0.0104167
  0
VERTEX
  8
0
 10
0.491374
 20
1.09391
 30
0.0
 40
0.0104167
 41
0.0104167
  0
VERTEX
  8
0
 10
0.500162
 20
1.0867
 30
0.0
 40
0.0104167
 41
0.0104167
  0
VERTEX
  8
0
 10
0.507704
 20
1.09304
 30
0.0
 40
0.0104167
 41
0.0104167
  0
VERTEX
  8
0
 10
0.526421
 20
1.11068
 30
0.0
 40
0.0104167
 41
0.0104167
  0
VERTEX
  8
0
 10
0.55344
 20
1.13699
 30
0.0
 40
0.0104167
 41
0.0104167
  0
VERTEX
  8
0
 10
0.585938
 20
1.16922
 30
0.0
 40
0.0104167
 41
0.0104167
  0
SEQEND
 8
0
  0
POLYLINE
  8
0
 62
     0
 66
     1
 10
0
 20
0
 30
0.0
 70
     1
 40
0.75
 41
0.75
  0
VERTEX
  8
0
 10
1.4669
 20
1.16287
 30
0.0
 40
0.0104167
 41
0.0104167
  0
VERTEX
  8
0
 10
1.52556
 20
1.21105
 30
0.0
 40
0.0104167
 41
0.0104167
  0
VERTEX
  8
0
 10
1.57075
 20
1.24051
 30
0.0
 40
0.0104167
 41
0.0104167
  0
VERTEX
  8
0
 10
1.61014
 20
1.25521
 30
0.0
 40
0.0104167
 41
0.0104167
  0
VERTEX
  8
0
 10
1.65115
 20
1.25911
 30
0.0
 40
0.0104167
 41
0.0104167
  0
VERTEX
  8
0
 10
1.72006
 20
1.27034
 30
0.0
 40
0.0104167
 41
0.0104167
  0
VERTEX
  8
0
 10
1.78185
 20
1.30198
 30
0.0
 40
0.0104167
 41
0.0104167
  0
VERTEX
  8
0
 10
1.83143
 20
1.35032
 30
0.0
 40
0.0104167
 41
0.0104167
  0
VERTEX
  8
0
 10
1.86382
 20
1.41183
 30
0.0
 40
0.0104167
 41
0.0104167
  0
VERTEX
  8
0
 10
1.87207
 20
1.43961
 30
0.0
 40
0.0104167
 41
0.0104167
  0
VERTEX
  8
0
 10
1.87771
 20
1.46354
 30
0.0
 40
0.0104167
 41
0.0104167
  0
VERTEX
  8
0
 10
1.8801
 20
1.48107
 30
0.0
 40
0.0104167
 41
0.0104167
  0
VERTEX
  8
0
 10
1.87885
 20
1.48964
 30
0.0
 40
0.0104167
 41
0.0104167
  0
VERTEX
  8
0
 10
1.87001
 20
1.48796
 30
0.0
 40
0.0104167
 41
0.0104167
  0
VERTEX
  8
0
 10
1.85183
 20
1.4776
 30
0.0
 40
0.0104167
 41
0.0104167
  0
VERTEX
  8
0
 10
1.82693
 20
1.46029
 30
0.0
 40
0.0104167
 41
0.0104167
  0
VERTEX
  8
0
 10
1.79807
 20
1.43756
 30
0.0
 40
0.0104167
 41
0.0104167
  0
VERTEX
  8
0
 10
1.72526
 20
1.3775
 30
0.0
 40
0.0104167
 41
0.0104167
  0
VERTEX
  8
0
 10
1.63857
 20
1.4725
 30
0.0
 40
0.0104167
 41
0.0104167
  0
VERTEX
  8
0
 10
1.55192
 20
1.56743
 30
0.0
 40
0.0104167
 41
0.0104167
  0
VERTEX
  8
0
 10
1.62408
 20
1.64372
 30
0.0
 40
0.0104167
 41
0.0104167
  0
VERTEX
  8
0
 10
1.69624
 20
1.71994
 30
0.0
 40
0.0104167
 41
0.0104167
  0
VERTEX
  8
0
 10
1.6186
 20
1.70811
 30
0.0
 40
0.0104167
 41
0.0104167
  0
VERTEX
  8
0
 10
1.54676
 20
1.68468
 30
0.0
 40
0.0104167
 41
0.0104167
  0
VERTEX
  8
0
 10
1.48617
 20
1.6404
 30
0.0
 40
0.0104167
 41
0.0104167
  0
VERTEX
  8
0
 10
1.4414
 20
1.57997
 30
0.0
 40
0.0104167
 41
0.0104167
  0
VERTEX
  8
0
 10
1.41726
 20
1.50792
 30
0.0
 40
0.0104167
 41
0.0104167
  0
VERTEX
  8
0
 10
1.40625
 20
1.46604
 30
0.0
 40
0.0104167
 41
0.0104167
  0
VERTEX
  8
0
 10
1.38552
 20
1.42692
 30
0.0
 40
0.0104167
 41
0.0104167
  0
VERTEX
  8
0
 10
1.35124
 20
1.38498
 30
0.0
 40
0.0104167
 41
0.0104167
  0
VERTEX
  8
0
 10
1.29953
 20
1.33469
 30
0.0
 40
0.0104167
 41
0.0104167
  0
VERTEX
  8
0
 10
1.19439
 20
1.23855
 30
0.0
 40
0.0104167
 41
0.0104167
  0
VERTEX
  8
0
 10
1.26845
 20
1.15424
 30
0.0
 40
0.0104167
 41
0.0104167
  0
VERTEX
  8
0
 10
1.29769
 20
1.12142
 30
0.0
 40
0.0104167
 41
0.0104167
  0
VERTEX
  8
0
 10
1.32265
 20
1.09424
 30
0.0
 40
0.0104167
 41
0.0104167
  0
VERTEX
  8
0
 10
1.3406
 20
1.07552
 30
0.0
 40
0.0104167
 41
0.0104167
  0
VERTEX
  8
0
 10
1.34901
 20
1.06814
 30
0.0
 40
0.0104167
 41
0.0104167
  0
VERTEX
  8
0
 10
1.3603
 20
1.07509
 30
0.0
 40
0.0104167
 41
0.0104167
  0
VERTEX
  8
0
 10
1.38628
 20
1.09527
 30
0.0
 40
0.0104167
 41
0.0104167
  0
VERTEX
  8
0
 10
1.42307
 20
1.12554
 30
0.0
 40
0.0104167
 41
0.0104167
  0
VERTEX
  8
0
 10
1.4669
 20
1.16287
 30
0.0
 40
0.0104167
 41
0.0104167
  0
SEQEND
 8
0
  0
POLYLINE
  8
0
 62
     0
 66
     1
 10
0
 20
0
 30
0.0
 70
     1
 40
0.75
 41
0.75
  0
VERTEX
  8
0
 10
1.16173
 20
0.66059
 30
0.0
 40
0.0104167
 41
0.0104167
  0
VERTEX
  8
0
 10
1.13384
 20
0.687392
 30
0.0
 40
0.0104167
 41
0.0104167
  0
VERTEX
  8
0
 10
1.08892
 20
0.714572
 30
0.0
 40
0.0104167
 41
0.0104167
  0
VERTEX
  8
0
 10
1.03673
 20
0.746203
 30
0.0
 40
0.0104167
 41
0.0104167
  0
VERTEX
  8
0
 10
1.00911
 20
0.779025
 30
0.0
 40
0.0104167
 41
0.0104167
  0
VERTEX
  8
0
 10
1.00591
 20
0.81326
 30
0.0
 40
0.0104167
 41
0.0104167
  0
VERTEX
  8
0
 10
1.02707
 20
0.849067
 30
0.0
 40
0.0104167
 41
0.0104167
  0
VERTEX
  8
0
 10
1.07476
 20
0.881565
 30
0.0
 40
0.0104167
 41
0.0104167
  0
VERTEX
  8
0
 10
1.13097
 20
0.890192
 30
0.0
 40
0.0104167
 41
0.0104167
  0
VERTEX
  8
0
 10
1.18674
 20
0.875379
 30
0.0
 40
0.0104167
 41
0.0104167
  0
VERTEX
  8
0
 10
1.23302
 20
0.837674
 30
0.0
 40
0.0104167
 41
0.0104167
  0
VERTEX
  8
0
 10
1.26091
 20
0.794868
 30
0.0
 40
0.0104167
 41
0.0104167
  0
VERTEX
  8
0
 10
1.2717
 20
0.756511
 30
0.0
 40
0.0104167
 41
0.0104167
  0
VERTEX
  8
0
 10
1.26573
 20
0.71875
 30
0.0
 40
0.0104167
 41
0.0104167
  0
VERTEX
  8
0
 10
1.24316
 20
0.677735
 30
0.0
 40
0.0104167
 41
0.0104167
  0
VERTEX
  8
0
 10
1.2188
 20
0.6486
 30
0.0
 40
0.0104167
 41
0.0104167
  0
VERTEX
  8
0
 10
1.1977
 20
0.636176
 30
0.0
 40
0.0104167
 41
0.0104167
  0
VERTEX
  8
0
 10
1.17898
 20
0.640246
 30
0.0
 40
0.0104167
 41
0.0104167
  0
VERTEX
  8
0
 10
1.16173
 20
0.66059
 30
0.0
 40
0.0104167
 41
0.0104167
  0
SEQEND
 8
0
  0
POLYLINE
  8
0
 62
     0
 66
     1
 10
0
 20
0
 30
0.0
 70
     1
 40
0.75
 41
0.75
  0
VERTEX
  8
0
 10
0.61659
 20
0.677735
 30
0.0
 40
0.0104167
 41
0.0104167
  0
VERTEX
  8
0
 10
0.594021
 20
0.71875
 30
0.0
 40
0.0104167
 41
0.0104167
  0
VERTEX
  8
0
 10
0.587999
 20
0.756511
 30
0.0
 40
0.0104167
 41
0.0104167
  0
VERTEX
  8
0
 10
0.59885
 20
0.794868
 30
0.0
 40
0.0104167
 41
0.0104167
  0
VERTEX
  8
0
 10
0.626736
 20
0.837674
 30
0.0
 40
0.0104167
 41
0.0104167
  0
VERTEX
  8
0
 10
0.67296
 20
0.875379
 30
0.0
 40
0.0104167
 41
0.0104167
  0
VERTEX
  8
0
 10
0.728733
 20
0.890192
 30
0.0
 40
0.0104167
 41
0.0104167
  0
VERTEX
  8
0
 10
0.784993
 20
0.881565
 30
0.0
 40
0.0104167
 41
0.0104167
  0
VERTEX
  8
0
 10
0.832682
 20
0.849067
 30
0.0
 40
0.0104167
 41
0.0104167
  0
VERTEX
  8
0
 10
0.853787
 20
0.81326
 30
0.0
 40
0.0104167
 41
0.0104167
  0
VERTEX
  8
0
 10
0.850586
 20
0.779025
 30
0.0
 40
0.0104167
 41
0.0104167
  0
VERTEX
  8
0
 10
0.822971
 20
0.746203
 30
0.0
 40
0.0104167
 41
0.0104167
  0
VERTEX
  8
0
 10
0.770887
 20
0.714572
 30
0.0
 40
0.0104167
 41
0.0104167
  0
VERTEX
  8
0
 10
0.725857
 20
0.687392
 30
0.0
 40
0.0104167
 41
0.0104167
  0
VERTEX
  8
0
 10
0.698025
 20
0.66059
 30
0.0
 40
0.0104167
 41
0.0104167
  0
VERTEX
  8
0
 10
0.680718
 20
0.640246
 30
0.0
 40
0.0104167
 41
0.0104167
  0
VERTEX
  8
0
 10
0.662001
 20
0.636176
 30
0.0
 40
0.0104167
 41
0.0104167
  0
VERTEX
  8
0
 10
0.640896
 20
0.6486
 30
0.0
 40
0.0104167
 41
0.0104167
  0
VERTEX
  8
0
 10
0.61659
 20
0.677735
 30
0.0
 40
0.0104167
 41
0.0104167
  0
SEQEND
 8
0
  0
POLYLINE
  8
0
 62
     0
 66
     1
 10
0
 20
0
 30
0.0
 70
     1
 40
0.75
 41
0.75
  0
VERTEX
  8
0
 10
0.880751
 20
0.504992
 30
0.0
 40
0.0104167
 41
0.0104167
  0
VERTEX
  8
0
 10
0.887261
 20
0.548232
 30
0.0
 40
0.0104167
 41
0.0104167
  0
VERTEX
  8
0
 10
0.903483
 20
0.590332
 30
0.0
 40
0.0104167
 41
0.0104167
  0
VERTEX
  8
0
 10
0.92399
 20
0.620822
 30
0.0
 40
0.0104167
 41
0.0104167
  0
VERTEX
  8
0
 10
0.943685
 20
0.629394
 30
0.0
 40
0.0104167
 41
0.0104167
  0
VERTEX
  8
0
 10
0.964085
 20
0.607747
 30
0.0
 40
0.0104167
 41
0.0104167
  0
VERTEX
  8
0
 10
0.981119
 20
0.566949
 30
0.0
 40
0.0104167
 41
0.0104167
  0
VERTEX
  8
0
 10
0.989854
 20
0.52284
 30
0.0
 40
0.0104167
 41
0.0104167
  0
VERTEX
  8
0
 10
0.985568
 20
0.491157
 30
0.0
 40
0.0104167
 41
0.0104167
  0
VERTEX
  8
0
 10
0.972006
 20
0.485678
 30
0.0
 40
0.0104167
 41
0.0104167
  0
VERTEX
  8
0
 10
0.955404
 20
0.499294
 30
0.0
 40
0.0104167
 41
0.0104167
  0
VERTEX
  8
0
 10
0.938531
 20
0.5153
 30
0.0
 40
0.0104167
 41
0.0104167
  0
VERTEX
  8
0
 10
0.926758
 20
0.501411
 30
0.0
 40
0.0104167
 41
0.0104167
  0
VERTEX
  8
0
 10
0.913792
 20
0.482964
 30
0.0
 40
0.0104167
 41
0.0104167
  0
VERTEX
  8
0
 10
0.8986
 20
0.477647
 30
0.0
 40
0.0104167
 41
0.0104167
  0
VERTEX
  8
0
 10
0.886014
 20
0.485135
 30
0.0
 40
0.0104167
 41
0.0104167
  0
VERTEX
  8
0
 10
0.880751
 20
0.504992
 30
0.0
 40
0.0104167
 41
0.0104167
  0
SEQEND
 8
0
  0
POLYLINE
  8
0
 62
     0
 66
     1
 10
0
 20
0
 30
0.0
 70
     1
 40
0.75
 41
0.75
  0
VERTEX
  8
0
 10
0.841471
 20
0.362685
 30
0.0
 40
0.0104167
 41
0.0104167
  0
VERTEX
  8
0
 10
0.84706
 20
0.383301
 30
0.0
 40
0.0104167
 41
0.0104167
  0
VERTEX
  8
0
 10
0.859104
 20
0.392144
 30
0.0
 40
0.0104167
 41
0.0104167
  0
VERTEX
  8
0
 10
0.870606
 20
0.386828
 30
0.0
 40
0.0104167
 41
0.0104167
  0
VERTEX
  8
0
 10
0.874457
 20
0.364854
 30
0.0
 40
0.0104167
 41
0.0104167
  0
VERTEX
  8
0
 10
0.874457
 20
0.339735
 30
0.0
 40
0.0104167
 41
0.0104167
  0
VERTEX
  8
0
 10
0.882215
 20
0.309353
 30
0.0
 40
0.0104167
 41
0.0104167
  0
VERTEX
  8
0
 10
0.904839
 20
0.283419
 30
0.0
 40
0.0104167
 41
0.0104167
  0
VERTEX
  8
0
 10
0.949544
 20
0.271431
 30
0.0
 40
0.0104167
 41
0.0104167
  0
VERTEX
  8
0
 10
0.993164
 20
0.279406
 30
0.0
 40
0.0104167
 41
0.0104167
  0
VERTEX
  8
0
 10
1.01367
 20
0.301269
 30
0.0
 40
0.0104167
 41
0.0104167
  0
VERTEX
  8
0
 10
1.01969
 20
0.328668
 30
0.0
 40
0.0104167
 41
0.0104167
  0
VERTEX
  8
0
 10
1.01997
 20
0.353136
 30
0.0
 40
0.0104167
 41
0.0104167
  0
VERTEX
  8
0
 10
1.02566
 20
0.380533
 30
0.0
 40
0.0104167
 41
0.0104167
  0
VERTEX
  8
0
 10
1.03776
 20
0.387369
 30
0.0
 40
0.0104167
 41
0.0104167
  0
VERTEX
  8
0
 10
1.0498
 20
0.376682
 30
0.0
 40
0.0104167
 41
0.0104167
  0
VERTEX
  8
0
 10
1.05528
 20
0.351563
 30
0.0
 40
0.0104167
 41
0.0104167
  0
VERTEX
  8
0
 10
1.06103
 20
0.32156
 30
0.0
 40
0.0104167
 41
0.0104167
  0
VERTEX
  8
0
 10
1.07775
 20
0.296767
 30
0.0
 40
0.0104167
 41
0.0104167
  0
VERTEX
  8
0
 10
1.1046
 20
0.279839
 30
0.0
 40
0.0104167
 41
0.0104167
  0
VERTEX
  8
0
 10
1.14084
 20
0.273438
 30
0.0
 40
0.0104167
 41
0.0104167
  0
VERTEX
  8
0
 10
1.17215
 20
0.28125
 30
0.0
 40
0.0104167
 41
0.0104167
  0
VERTEX
  8
0
 10
1.18831
 20
0.301758
 30
0.0
 40
0.0104167
 41
0.0104167
  0
VERTEX
  8
0
 10
1.19428
 20
0.33035
 30
0.0
 40
0.0104167
 41
0.0104167
  0
VERTEX
  8
0
 10
1.19515
 20
0.362358
 30
0.0
 40
0.0104167
 41
0.0104167
  0
VERTEX
  8
0
 10
1.20942
 20
0.422635
 30
0.0
 40
0.0104167
 41
0.0104167
  0
VERTEX
  8
0
 10
1.24729
 20
0.483832
 30
0.0
 40
0.0104167
 41
0.0104167
  0
VERTEX
  8
0
 10
1.2959
 20
0.551269
 30
0.0
 40
0.0104167
 41
0.0104167
  0
VERTEX
  8
0
 10
1.32845
 20
0.621039
 30
0.0
 40
0.0104167
 41
0.0104167
  0
VERTEX
  8
0
 10
1.34668
 20
0.698406
 30
0.0
 40
0.0104167
 41
0.0104167
  0
VERTEX
  8
0
 10
1.35238
 20
0.788411
 30
0.0
 40
0.0104167
 41
0.0104167
  0
VERTEX
  8
0
 10
1.338
 20
0.909722
 30
0.0
 40
0.0104167
 41
0.0104167
  0
VERTEX
  8
0
 10
1.29769
 20
1.01628
 30
0.0
 40
0.0104167
 41
0.0104167
  0
VERTEX
  8
0
 10
1.23541
 20
1.10541
 30
0.0
 40
0.0104167
 41
0.0104167
  0
VERTEX
  8
0
 10
1.15522
 20
1.17448
 30
0.0
 40
0.0104167
 41
0.0104167
  0
VERTEX
  8
0
 10
1.06114
 20
1.22076
 30
0.0
 40
0.0104167
 41
0.0104167
  0
VERTEX
  8
0
 10
0.957194
 20
1.24159
 30
0.0
 40
0.0104167
 41
0.0104167
  0
VERTEX
  8
0
 10
0.847493
 20
1.23432
 30
0.0
 40
0.0104167
 41
0.0104167
  0
VERTEX
  8
0
 10
0.736003
 20
1.19623
 30
0.0
 40
0.0104167
 41
0.0104167
  0
VERTEX
  8
0
 10
0.643664
 20
1.13471
 30
0.0
 40
0.0104167
 41
0.0104167
  0
VERTEX
  8
0
 10
0.572646
 20
1.05409
 30
0.0
 40
0.0104167
 41
0.0104167
  0
VERTEX
  8
0
 10
0.5236
 20
0.959581
 30
0.0
 40
0.0104167
 41
0.0104167
  0
VERTEX
  8
0
 10
0.497233
 20
0.856228
 30
0.0
 40
0.0104167
 41
0.0104167
  0
VERTEX
  8
0
 10
0.494303
 20
0.749349
 30
0.0
 40
0.0104167
 41
0.0104167
  0
VERTEX
  8
0
 10
0.515517
 20
0.643989
 30
0.0
 40
0.0104167
 41
0.0104167
  0
VERTEX
  8
0
 10
0.561578
 20
0.545356
 30
0.0
 40
0.0104167
 41
0.0104167
  0
VERTEX
  8
0
 10
0.633247
 20
0.458658
 30
0.0
 40
0.0104167
 41
0.0104167
  0
VERTEX
  8
0
 10
0.652994
 20
0.436903
 30
0.0
 40
0.0104167
 41
0.0104167
  0
VERTEX
  8
0
 10
0.669217
 20
0.412761
 30
0.0
 40
0.0104167
 41
0.0104167
  0
VERTEX
  8
0
 10
0.680176
 20
0.389268
 30
0.0
 40
0.0104167
 41
0.0104167
  0
VERTEX
  8
0
 10
0.684244
 20
0.369303
 30
0.0
 40
0.0104167
 41
0.0104167
  0
VERTEX
  8
0
 10
0.688531
 20
0.322157
 30
0.0
 40
0.0104167
 41
0.0104167
  0
VERTEX
  8
0
 10
0.701172
 20
0.292806
 30
0.0
 40
0.0104167
 41
0.0104167
  0
VERTEX
  8
0
 10
0.725151
 20
0.277615
 30
0.0
 40
0.0104167
 41
0.0104167
  0
VERTEX
  8
0
 10
0.76351
 20
0.27284
 30
0.0
 40
0.0104167
 41
0.0104167
  0
VERTEX
  8
0
 10
0.799804
 20
0.281196
 30
0.0
 40
0.0104167
 41
0.0104167
  0
VERTEX
  8
0
 10
0.820313
 20
0.303276
 30
0.0
 40
0.0104167
 41
0.0104167
  0
VERTEX
  8
0
 10
0.831868
 20
0.332682
 30
0.0
 40
0.0104167
 41
0.0104167
  0
VERTEX
  8
0
 10
0.841471
 20
0.362685
 30
0.0
 40
0.0104167
 41
0.0104167
  0
SEQEND
 8
0
  0
POLYLINE
  8
0
 62
     0
 66
     1
 10
0
 20
0
 30
0.0
 70
     1
 40
0.75
 41
0.75
  0
VERTEX
  8
0
 10
1.62033
 20
0.0691189
 30
0.0
 40
0.0104167
 41
0.0104167
  0
VERTEX
  8
0
 10
1.54769
 20
0.132921
 30
0.0
 40
0.0104167
 41
0.0104167
  0
VERTEX
  8
0
 10
1.62842
 20
0.226346
 30
0.0
 40
0.0104167
 41
0.0104167
  0
VERTEX
  8
0
 10
1.66146
 20
0.262586
 30
0.0
 40
0.0104167
 41
0.0104167
  0
VERTEX
  8
0
 10
1.69183
 20
0.292264
 30
0.0
 40
0.0104167
 41
0.0104167
  0
VERTEX
  8
0
 10
1.71614
 20
0.312338
 30
0.0
 40
0.0104167
 41
0.0104167
  0
VERTEX
  8
0
 10
1.73107
 20
0.319661
 30
0.0
 40
0.0104167
 41
0.0104167
  0
VERTEX
  8
0
 10
1.74392
 20
0.315539
 30
0.0
 40
0.0104167
 41
0.0104167
  0
VERTEX
  8
0
 10
1.76269
 20
0.304253
 30
0.0
 40
0.0104167
 41
0.0104167
  0
VERTEX
  8
0
 10
1.78489
 20
0.287489
 30
0.0
 40
0.0104167
 41
0.0104167
  0
VERTEX
  8
0
 10
1.80794
 20
0.267036
 30
0.0
 40
0.0104167
 41
0.0104167
  0
VERTEX
  8
0
 10
1.84918
 20
0.233996
 30
0.0
 40
0.0104167
 41
0.0104167
  0
VERTEX
  8
0
 10
1.8731
 20
0.229004
 30
0.0
 40
0.0104167
 41
0.0104167
  0
VERTEX
  8
0
 10
1.87831
 20
0.251193
 30
0.0
 40
0.0104167
 41
0.0104167
  0
VERTEX
  8
0
 10
1.86339
 20
0.299804
 30
0.0
 40
0.0104167
 41
0.0104167
  0
VERTEX
  8
0
 10
1.82536
 20
0.364475
 30
0.0
 40
0.0104167
 41
0.0104167
  0
VERTEX
  8
0
 10
1.77311
 20
0.414117
 30
0.0
 40
0.0104167
 41
0.0104167
  0
VERTEX
  8
0
 10
1.7105
 20
0.445964
 30
0.0
 40
0.0104167
 41
0.0104167
  0
VERTEX
  8
0
 10
1.64154
 20
0.457194
 30
0.0
 40
0.0104167
 41
0.0104167
  0
VERTEX
  8
0
 10
1.59744
 20
0.460178
 30
0.0
 40
0.0104167
 41
0.0104167
  0
VERTEX
  8
0
 10
1.56114
 20
0.471246
 30
0.0
 40
0.0104167
 41
0.0104167
  0
VERTEX
  8
0
 10
1.52544
 20
0.493761
 30
0.0
 40
0.0104167
 41
0.0104167
  0
VERTEX
  8
0
 10
1.4834
 20
0.530925
 30
0.0
 40
0.0104167
 41
0.0104167
  0
VERTEX
  8
0
 10
1.45128
 20
0.559353
 30
0.0
 40
0.0104167
 41
0.0104167
  0
VERTEX
  8
0
 10
1.42524
 20
0.577854
 30
0.0
 40
0.0104167
 41
0.0104167
  0
VERTEX
  8
0
 10
1.40685
 20
0.585558
 30
0.0
 40
0.0104167
 41
0.0104167
  0
VERTEX
  8
0
 10
1.39785
 20
0.581326
 30
0.0
 40
0.0104167
 41
0.0104167
  0
VERTEX
  8
0
 10
1.39003
 20
0.566189
 30
0.0
 40
0.0104167
 41
0.0104167
  0
VERTEX
  8
0
 10
1.37527
 20
0.5421
 30
0.0
 40
0.0104167
 41
0.0104167
  0
VERTEX
  8
0
 10
1.35552
 20
0.512424
 30
0.0
 40
0.0104167
 41
0.0104167
  0
VERTEX
  8
0
 10
1.33306
 20
0.480469
 30
0.0
 40
0.0104167
 41
0.0104167
  0
VERTEX
  8
0
 10
1.27691
 20
0.40294
 30
0.0
 40
0.0104167
 41
0.0104167
  0
VERTEX
  8
0
 10
1.34413
 20
0.337728
 30
0.0
 40
0.0104167
 41
0.0104167
  0
VERTEX
  8
0
 10
1.37017
 20
0.309896
 30
0.0
 40
0.0104167
 41
0.0104167
  0
VERTEX
  8
0
 10
1.39154
 20
0.282226
 30
0.0
 40
0.0104167
 41
0.0104167
  0
VERTEX
  8
0
 10
1.40597
 20
0.257867
 30
0.0
 40
0.0104167
 41
0.0104167
  0
VERTEX
  8
0
 10
1.41129
 20
0.240072
 30
0.0
 40
0.0104167
 41
0.0104167
  0
VERTEX
  8
0
 10
1.4299
 20
0.151856
 30
0.0
 40
0.0104167
 41
0.0104167
  0
VERTEX
  8
0
 10
1.4796
 20
0.0769314
 30
0.0
 40
0.0104167
 41
0.0104167
  0
VERTEX
  8
0
 10
1.55122
 20
0.0249024
 30
0.0
 40
0.0104167
 41
0.0104167
  0
VERTEX
  8
0
 10
1.63564
 20
0.00531683
 30
0.0
 40
0.0104167
 41
0.0104167
  0
VERTEX
  8
0
 10
1.69299
 20
0.00515408
 30
0.0
 40
0.0104167
 41
0.0104167
  0
VERTEX
  8
0
 10
1.62033
 20
0.0691189
 30
0.0
 40
0.0104167
 41
0.0104167
  0
SEQEND
 8
0
  0
POLYLINE
  8
0
 62
     0
 66
     1
 10
0
 20
0
 30
0.0
 70
     1
 40
0.75
 41
0.75
  0
VERTEX
  8
0
 10
0.350857
 20
0.0349935
 30
0.0
 40
0.0104167
 41
0.0104167
  0
VERTEX
  8
0
 10
0.395779
 20
0.0686307
 30
0.0
 40
0.0104167
 41
0.0104167
  0
VERTEX
  8
0
 10
0.43316
 20
0.115994
 30
0.0
 40
0.0104167
 41
0.0104167
  0
VERTEX
  8
0
 10
0.458658
 20
0.170193
 30
0.0
 40
0.0104167
 41
0.0104167
  0
VERTEX
  8
0
 10
0.468099
 20
0.224338
 30
0.0
 40
0.0104167
 41
0.0104167
  0
VERTEX
  8
0
 10
0.472928
 20
0.246582
 30
0.0
 40
0.0104167
 41
0.0104167
  0
VERTEX
  8
0
 10
0.486219
 20
0.27436
 30
0.0
 40
0.0104167
 41
0.0104167
  0
VERTEX
  8
0
 10
0.505806
 20
0.30409
 30
0.0
 40
0.0104167
 41
0.0104167
  0
VERTEX
  8
0
 10
0.529785
 20
0.332303
 30
0.0
 40
0.0104167
 41
0.0104167
  0
VERTEX
  8
0
 10
0.591471
 20
0.395942
 30
0.0
 40
0.0104167
 41
0.0104167
  0
VERTEX
  8
0
 10
0.544542
 20
0.453396
 30
0.0
 40
0.0104167
 41
0.0104167
  0
VERTEX
  8
0
 10
0.524522
 20
0.478678
 30
0.0
 40
0.0104167
 41
0.0104167
  0
VERTEX
  8
0
 10
0.504775
 20
0.504883
 30
0.0
 40
0.0104167
 41
0.0104167
  0
VERTEX
  8
0
 10
0.487522
 20
0.528971
 30
0.0
 40
0.0104167
 41
0.0104167
  0
VERTEX
  8
0
 10
0.475097
 20
0.547851
 30
0.0
 40
0.0104167
 41
0.0104167
  0
VERTEX
  8
0
 10
0.461046
 20
0.567057
 30
0.0
 40
0.0104167
 41
0.0104167
  0
VERTEX
  8
0
 10
0.446289
 20
0.570637
 30
0.0
 40
0.0104167
 41
0.0104167
  0
VERTEX
  8
0
 10
0.423828
 20
0.556749
 30
0.0
 40
0.0104167
 41
0.0104167
  0
VERTEX
  8
0
 10
0.386664
 20
0.523438
 30
0.0
 40
0.0104167
 41
0.0104167
  0
VERTEX
  8
0
 10
0.35064
 20
0.493869
 30
0.0
 40
0.0104167
 41
0.0104167
  0
VERTEX
  8
0
 10
0.314182
 20
0.473199
 30
0.0
 40
0.0104167
 41
0.0104167
  0
VERTEX
  8
0
 10
0.273546
 20
0.459744
 30
0.0
 40
0.0104167
 41
0.0104167
  0
VERTEX
  8
0
 10
0.225097
 20
0.451822
 30
0.0
 40
0.0104167
 41
0.0104167
  0
VERTEX
  8
0
 10
0.15039
 20
0.43495
 30
0.0
 40
0.0104167
 41
0.0104167
  0
VERTEX
  8
0
 10
0.0908203
 20
0.401421
 30
0.0
 40
0.0104167
 41
0.0104167
  0
VERTEX
  8
0
 10
0.0464953
 20
0.351346
 30
0.0
 40
0.0104167
 41
0.0104167
  0
VERTEX
  8
0
 10
0.0174154
 20
0.284668
 30
0.0
 40
0.0104167
 41
0.0104167
  0
VERTEX
  8
0
 10
0.00846354
 20
0.241103
 30
0.0
 40
0.0104167
 41
0.0104167
  0
VERTEX
  8
0
 10
0.0147569
 20
0.224338
 30
0.0
 40
0.0104167
 41
0.0104167
  0
VERTEX
  8
0
 10
0.0367839
 20
0.234213
 30
0.0
 40
0.0104167
 41
0.0104167
  0
VERTEX
  8
0
 10
0.0750868
 20
0.270562
 30
0.0
 40
0.0104167
 41
0.0104167
  0
VERTEX
  8
0
 10
0.0948893
 20
0.28966
 30
0.0
 40
0.0104167
 41
0.0104167
  0
VERTEX
  8
0
 10
0.1148
 20
0.305285
 30
0.0
 40
0.0104167
 41
0.0104167
  0
VERTEX
  8
0
 10
0.132487
 20
0.31581
 30
0.0
 40
0.0104167
 41
0.0104167
  0
VERTEX
  8
0
 10
0.145617
 20
0.319661
 30
0.0
 40
0.0104167
 41
0.0104167
  0
VERTEX
  8
0
 10
0.161512
 20
0.312338
 30
0.0
 40
0.0104167
 41
0.0104167
  0
VERTEX
  8
0
 10
0.186957
 20
0.292264
 30
0.0
 40
0.0104167
 41
0.0104167
  0
VERTEX
  8
0
 10
0.218317
 20
0.262586
 30
0.0
 40
0.0104167
 41
0.0104167
  0
VERTEX
  8
0
 10
0.252169
 20
0.226346
 30
0.0
 40
0.0104167
 41
0.0104167
  0
VERTEX
  8
0
 10
0.334256
 20
0.132975
 30
0.0
 40
0.0104167
 41
0.0104167
  0
VERTEX
  8
0
 10
0.260362
 20
0.0691732
 30
0.0
 40
0.0104167
 41
0.0104167
  0
VERTEX
  8
0
 10
0.186469
 20
0.00526258
 30
0.0
 40
0.0104167
 41
0.0104167
  0
VERTEX
  8
0
 10
0.239854
 20
0.00526258
 30
0.0
 40
0.0104167
 41
0.0104167
  0
VERTEX
  8
0
 10
0.294433
 20
0.0140517
 30
0.0
 40
0.0104167
 41
0.0104167
  0
VERTEX
  8
0
 10
0.350857
 20
0.0349935
 30
0.0
 40
0.0104167
 41
0.0104167
  0
SEQEND
 8
0
  0
ENDSEC
  0
EOF
